<svg width="47" height="47" viewBox="0 0 47 47" fill="none" xmlns="http://www.w3.org/2000/svg">
<path d="M40.591 34.3185C40.591 34.9338 40.4541 35.5662 40.1631 36.1815C39.8721 36.7967 39.4955 37.3778 38.9992 37.9247C38.1604 38.8476 37.2362 39.5142 36.192 39.9415C35.165 40.3687 34.0525 40.5909 32.8543 40.5909C31.1084 40.5909 29.2427 40.1807 27.2743 39.3433C25.3059 38.5058 23.3375 37.3778 21.3862 35.9593C19.4178 34.5236 17.5521 32.9342 15.772 31.1738C14.0089 29.3964 12.4171 27.5335 10.9964 25.5851C9.59286 23.6367 8.46317 21.6884 7.64157 19.7571C6.81998 17.8087 6.40918 15.9458 6.40918 14.1684C6.40918 13.0062 6.61458 11.8953 7.02538 10.8698C7.43617 9.82727 8.08661 8.87018 8.99378 8.01563C10.0892 6.93891 11.2874 6.40909 12.554 6.40909C13.0333 6.40909 13.5126 6.51163 13.9405 6.71672C14.3855 6.92182 14.7792 7.22945 15.0873 7.67382L19.0583 13.2625C19.3664 13.6898 19.589 14.0829 19.743 14.4589C19.897 14.8178 19.9826 15.1767 19.9826 15.5015C19.9826 15.9116 19.8628 16.3218 19.6232 16.7149C19.4007 17.108 19.0755 17.5182 18.6647 17.9284L17.3638 19.2785C17.1755 19.4665 17.0899 19.6887 17.0899 19.9622C17.0899 20.0989 17.107 20.2185 17.1413 20.3553C17.1926 20.492 17.244 20.5945 17.2782 20.6971C17.5863 21.2611 18.1169 21.996 18.8701 22.8847C19.6403 23.7735 20.4619 24.6793 21.352 25.5851C22.2763 26.4909 23.1663 27.3284 24.0735 28.0975C24.9636 28.8495 25.6996 29.3622 26.2815 29.6698C26.3671 29.704 26.4698 29.7553 26.5896 29.8065C26.7266 29.8578 26.8635 29.8749 27.0175 29.8749C27.3085 29.8749 27.531 29.7724 27.7193 29.5844L29.0202 28.3025C29.4481 27.8753 29.8589 27.5505 30.2526 27.3455C30.6463 27.1062 31.0399 26.9865 31.4679 26.9865C31.7931 26.9865 32.1354 27.0549 32.512 27.2087C32.8885 27.3625 33.2822 27.5847 33.7101 27.8753L39.3757 31.8916C39.8208 32.1993 40.1289 32.5582 40.3171 32.9855C40.4883 33.4127 40.591 33.84 40.591 34.3185Z" stroke="white" stroke-width="2" stroke-miterlimit="10"/>
</svg>
