<?xml version="1.0" encoding="iso-8859-1"?>
<!-- Generator: Adobe Illustrator 18.0.0, SVG Export Plug-In . SVG Version: 6.00 Build 0)  -->
<!DOCTYPE svg PUBLIC "-//W3C//DTD SVG 1.1//EN" "http://www.w3.org/Graphics/SVG/1.1/DTD/svg11.dtd">
<svg version="1.1" id="Capa_1" xmlns="http://www.w3.org/2000/svg" xmlns:xlink="http://www.w3.org/1999/xlink" x="0px" y="0px"
	 viewBox="0 0 56.936 56.936" style="enable-background:new 0 0 56.936 56.936;" xml:space="preserve" >
<g>
	<path d="M54.86,43.904c-2.008-3.796-8.98-7.912-9.287-8.092c-0.896-0.51-1.831-0.78-2.706-0.78c-1.301,0-2.366,0.596-3.011,1.68
		c-1.02,1.22-2.285,2.646-2.592,2.867c-2.378,1.611-4.237,1.429-6.295-0.629L19.483,27.464c-2.045-2.045-2.233-3.928-0.631-6.292
		c0.224-0.31,1.649-1.575,2.869-2.595c0.778-0.463,1.312-1.15,1.545-1.994c0.312-1.123,0.082-2.444-0.652-3.733
		c-0.173-0.296-4.289-7.269-8.085-9.276C13.821,3.198,13.024,3,12.224,3c-1.318,0-2.558,0.514-3.49,1.445L6.197,6.982
		c-4.014,4.013-5.468,8.562-4.321,13.519c0.956,4.132,3.742,8.529,8.282,13.069l14.705,14.705c5.746,5.746,11.224,8.66,16.281,8.66
		c0.001,0,0,0,0.001,0c3.721,0,7.188-1.581,10.306-4.699l2.537-2.536C55.529,48.158,55.88,45.829,54.86,43.904z"/>
	<path d="M38.439,27c2.757,0,5-2.243,5-5v-1.646V18V4.616c0.32,0.34,0.673,0.684,1.103,1.028c0.412,0.33,0.702,0.622,0.914,0.92
		c0.671,0.939,1.34,2.495,0.714,4.564c-0.16,0.528,0.139,1.086,0.668,1.246c0.096,0.029,0.193,0.043,0.289,0.043
		c0.43,0,0.826-0.278,0.957-0.711c0.906-2.996-0.237-5.236-0.999-6.304c-0.322-0.452-0.733-0.872-1.293-1.32
		C43.77,2.465,43.44,0.91,43.423,0.825c-0.007-0.038-0.03-0.068-0.041-0.104c-0.019-0.065-0.041-0.126-0.072-0.185
		c-0.031-0.059-0.067-0.109-0.108-0.16c-0.038-0.047-0.076-0.089-0.122-0.128c-0.054-0.047-0.112-0.084-0.175-0.118
		c-0.048-0.026-0.094-0.048-0.146-0.066c-0.072-0.025-0.144-0.037-0.221-0.045C42.505,0.017,42.475,0,42.439,0
		c-0.028,0-0.051,0.014-0.078,0.016c-0.029,0.003-0.056-0.007-0.086-0.002c-0.04,0.007-0.07,0.03-0.108,0.041
		c-0.067,0.019-0.129,0.04-0.189,0.072c-0.056,0.03-0.105,0.064-0.154,0.103c-0.051,0.041-0.097,0.082-0.139,0.132
		c-0.041,0.049-0.073,0.1-0.105,0.155c-0.031,0.056-0.058,0.111-0.079,0.172c-0.021,0.063-0.031,0.127-0.039,0.195
		C41.457,0.924,41.439,0.959,41.439,1v16h-3c-2.757,0-5,2.243-5,5S35.682,27,38.439,27z"/>
</g>
<g>
</g>
<g>
</g>
<g>
</g>
<g>
</g>
<g>
</g>
<g>
</g>
<g>
</g>
<g>
</g>
<g>
</g>
<g>
</g>
<g>
</g>
<g>
</g>
<g>
</g>
<g>
</g>
<g>
</g>
</svg>
