<svg width="114" height="114" viewBox="0 0 114 114" fill="none" xmlns="http://www.w3.org/2000/svg">
    <path fill="#fff" d="M0 0h114v114H0z"/>
    <mask id="ugrmpztjua" maskUnits="userSpaceOnUse" x="5.721" y="9.609" width="103" height="94" fill="#000">
        <path fill="#fff" d="M5.721 9.609h103v94h-103z"/>
        <path d="m107.665 76.148-5.293-19.05a28.582 28.582 0 0 0 3.254-13.218c0-18.336-17.835-33.27-39.695-33.27-21.904 0-39.74 14.933-39.74 33.27.01 1.595.162 3.187.455 4.756C15.874 53.427 8.542 62.939 8.542 73.839c-.001 3.919.927 7.781 2.707 11.272l-4.476 16.11h-.001a1.571 1.571 0 0 0 .361 1.456c.292.315.702.493 1.13.492a.845.845 0 0 0 .316-.047l18.512-3.884a39.383 39.383 0 0 0 15.397 3.077c17.919 0 32.582-11.633 33.854-26.39a42.834 42.834 0 0 0 7.648-2.447l21.904 4.57a.68.68 0 0 0 .325.046c.415 0 .811-.178 1.084-.491a1.52 1.52 0 0 0 .362-1.456zM42.489 99.276a36.322 36.322 0 0 1-14.628-3.031 1.546 1.546 0 0 0-.899-.084l-16.564 3.477 3.976-14.293v-.001a1.42 1.42 0 0 0-.13-1.14 21.727 21.727 0 0 1-2.67-10.364c0-14.025 13.895-25.436 30.915-25.436 17.057 0 30.916 11.41 30.916 25.436 0 14.034-13.858 25.436-30.916 25.436zM84.129 70.4a.569.569 0 0 0-.27-.047 1.423 1.423 0 0 0-.639.14 42.78 42.78 0 0 1-6.786 2.308c-.676-15.258-15.619-27.43-33.946-27.43a38.852 38.852 0 0 0-12.903 2.123 24.37 24.37 0 0 1-.315-3.615c0-16.658 16.426-30.192 36.661-30.192 20.19 0 36.616 13.534 36.616 30.192h.001a25.382 25.382 0 0 1-3.171 12.31c-.18.349-.226.75-.13 1.131l4.793 17.241L84.129 70.4zm5.293-35.892a1.52 1.52 0 0 1-1.54 1.54H45.38a1.525 1.525 0 0 1-1.538-1.54 1.554 1.554 0 0 1 1.538-1.54h42.503a1.554 1.554 0 0 1 1.538 1.54h.001zm0 11.365a1.512 1.512 0 0 1-1.54 1.492H66.84a1.518 1.518 0 0 1-1.538-1.515 1.514 1.514 0 0 1 1.538-1.516h21.043a1.525 1.525 0 0 1 1.538 1.538l.001.001zm0 11.31a1.52 1.52 0 0 1-1.54 1.538H77.52a1.539 1.539 0 0 1 0-3.078h10.364a1.53 1.53 0 0 1 1.538 1.54h.001zM58.87 64.198a1.526 1.526 0 0 1-1.539 1.539H27.01a1.516 1.516 0 1 1 0-3.031h30.322a1.513 1.513 0 0 1 1.539 1.492zm0 10.725a1.526 1.526 0 0 1-1.539 1.539H27.01a1.539 1.539 0 0 1 0-3.078h30.322a1.528 1.528 0 0 1 1.539 1.539zm-7.648 10.734a1.53 1.53 0 0 1-1.538 1.54H27.01a1.539 1.539 0 0 1 0-3.078h22.674a1.522 1.522 0 0 1 1.538 1.538z"/>
    </mask>
    <path d="m107.665 76.148-5.293-19.05a28.582 28.582 0 0 0 3.254-13.218c0-18.336-17.835-33.27-39.695-33.27-21.904 0-39.74 14.933-39.74 33.27.01 1.595.162 3.187.455 4.756C15.874 53.427 8.542 62.939 8.542 73.839c-.001 3.919.927 7.781 2.707 11.272l-4.476 16.11h-.001a1.571 1.571 0 0 0 .361 1.456c.292.315.702.493 1.13.492a.845.845 0 0 0 .316-.047l18.512-3.884a39.383 39.383 0 0 0 15.397 3.077c17.919 0 32.582-11.633 33.854-26.39a42.834 42.834 0 0 0 7.648-2.447l21.904 4.57a.68.68 0 0 0 .325.046c.415 0 .811-.178 1.084-.491a1.52 1.52 0 0 0 .362-1.456zM42.489 99.276a36.322 36.322 0 0 1-14.628-3.031 1.546 1.546 0 0 0-.899-.084l-16.564 3.477 3.976-14.293v-.001a1.42 1.42 0 0 0-.13-1.14 21.727 21.727 0 0 1-2.67-10.364c0-14.025 13.895-25.436 30.915-25.436 17.057 0 30.916 11.41 30.916 25.436 0 14.034-13.858 25.436-30.916 25.436zM84.129 70.4a.569.569 0 0 0-.27-.047 1.423 1.423 0 0 0-.639.14 42.78 42.78 0 0 1-6.786 2.308c-.676-15.258-15.619-27.43-33.946-27.43a38.852 38.852 0 0 0-12.903 2.123 24.37 24.37 0 0 1-.315-3.615c0-16.658 16.426-30.192 36.661-30.192 20.19 0 36.616 13.534 36.616 30.192h.001a25.382 25.382 0 0 1-3.171 12.31c-.18.349-.226.75-.13 1.131l4.793 17.241L84.129 70.4zm5.293-35.892a1.52 1.52 0 0 1-1.54 1.54H45.38a1.525 1.525 0 0 1-1.538-1.54 1.554 1.554 0 0 1 1.538-1.54h42.503a1.554 1.554 0 0 1 1.538 1.54h.001zm0 11.365a1.512 1.512 0 0 1-1.54 1.492H66.84a1.518 1.518 0 0 1-1.538-1.515 1.514 1.514 0 0 1 1.538-1.516h21.043a1.525 1.525 0 0 1 1.538 1.538l.001.001zm0 11.31a1.52 1.52 0 0 1-1.54 1.538H77.52a1.539 1.539 0 0 1 0-3.078h10.364a1.53 1.53 0 0 1 1.538 1.54h.001zM58.87 64.198a1.526 1.526 0 0 1-1.539 1.539H27.01a1.516 1.516 0 1 1 0-3.031h30.322a1.513 1.513 0 0 1 1.539 1.492zm0 10.725a1.526 1.526 0 0 1-1.539 1.539H27.01a1.539 1.539 0 0 1 0-3.078h30.322a1.528 1.528 0 0 1 1.539 1.539zm-7.648 10.734a1.53 1.53 0 0 1-1.538 1.54H27.01a1.539 1.539 0 0 1 0-3.078h22.674a1.522 1.522 0 0 1 1.538 1.538z" fill="#3093BB"/>
    <path d="m107.665 76.148-5.293-19.05a28.582 28.582 0 0 0 3.254-13.218c0-18.336-17.835-33.27-39.695-33.27-21.904 0-39.74 14.933-39.74 33.27.01 1.595.162 3.187.455 4.756C15.874 53.427 8.542 62.939 8.542 73.839c-.001 3.919.927 7.781 2.707 11.272l-4.476 16.11h-.001a1.571 1.571 0 0 0 .361 1.456c.292.315.702.493 1.13.492a.845.845 0 0 0 .316-.047l18.512-3.884a39.383 39.383 0 0 0 15.397 3.077c17.919 0 32.582-11.633 33.854-26.39a42.834 42.834 0 0 0 7.648-2.447l21.904 4.57a.68.68 0 0 0 .325.046c.415 0 .811-.178 1.084-.491a1.52 1.52 0 0 0 .362-1.456zM42.489 99.276a36.322 36.322 0 0 1-14.628-3.031 1.546 1.546 0 0 0-.899-.084l-16.564 3.477 3.976-14.293v-.001a1.42 1.42 0 0 0-.13-1.14 21.727 21.727 0 0 1-2.67-10.364c0-14.025 13.895-25.436 30.915-25.436 17.057 0 30.916 11.41 30.916 25.436 0 14.034-13.858 25.436-30.916 25.436zM84.129 70.4a.569.569 0 0 0-.27-.047 1.423 1.423 0 0 0-.639.14 42.78 42.78 0 0 1-6.786 2.308c-.676-15.258-15.619-27.43-33.946-27.43a38.852 38.852 0 0 0-12.903 2.123 24.37 24.37 0 0 1-.315-3.615c0-16.658 16.426-30.192 36.661-30.192 20.19 0 36.616 13.534 36.616 30.192h.001a25.382 25.382 0 0 1-3.171 12.31c-.18.349-.226.75-.13 1.131l4.793 17.241L84.129 70.4zm5.293-35.892a1.52 1.52 0 0 1-1.54 1.54H45.38a1.525 1.525 0 0 1-1.538-1.54 1.554 1.554 0 0 1 1.538-1.54h42.503a1.554 1.554 0 0 1 1.538 1.54h.001zm0 11.365a1.512 1.512 0 0 1-1.54 1.492H66.84a1.518 1.518 0 0 1-1.538-1.515 1.514 1.514 0 0 1 1.538-1.516h21.043a1.525 1.525 0 0 1 1.538 1.538l.001.001zm0 11.31a1.52 1.52 0 0 1-1.54 1.538H77.52a1.539 1.539 0 0 1 0-3.078h10.364a1.53 1.53 0 0 1 1.538 1.54h.001zM58.87 64.198a1.526 1.526 0 0 1-1.539 1.539H27.01a1.516 1.516 0 1 1 0-3.031h30.322a1.513 1.513 0 0 1 1.539 1.492zm0 10.725a1.526 1.526 0 0 1-1.539 1.539H27.01a1.539 1.539 0 0 1 0-3.078h30.322a1.528 1.528 0 0 1 1.539 1.539zm-7.648 10.734a1.53 1.53 0 0 1-1.538 1.54H27.01a1.539 1.539 0 0 1 0-3.078h22.674a1.522 1.522 0 0 1 1.538 1.538z" stroke="#3093BB" stroke-width=".4" mask="url(#ugrmpztjua)"/>
</svg>
