<svg width="114" height="114" viewBox="0 0 114 114" fill="none" xmlns="http://www.w3.org/2000/svg">
    <path fill="#F8FBFF" d="M0 0h114v114H0z"/>
    <path d="m37.422 44.948-26.54-.025a4.054 4.054 0 0 1-4.047-4.047V15.513a4.05 4.05 0 0 1 4.047-4.047h93.406a4.051 4.051 0 0 1 4.047 4.048v25.363a4.051 4.051 0 0 1-4.047 4.047H78.136a1.027 1.027 0 0 1 0-2.053h26.152c1.1 0 1.993-.894 1.993-1.994V15.514a1.996 1.996 0 0 0-1.994-1.993H10.88a1.996 1.996 0 0 0-1.992 1.993v25.363c0 1.098.894 1.992 1.993 1.994l26.542.024v2.053zm0 0v.001a1.026 1.026 0 1 0 .001-2.054v2.053z" fill="#3093BB" stroke="#3093BB" stroke-width=".5"/>
    <path d="M98.954 29.222H16.217a1.027 1.027 0 0 1-.001-2.054h82.738a1.027 1.027 0 1 1 0 2.054zm0 0z" fill="#3093BB" stroke="#3093BB" stroke-width=".5"/>
    <mask id="li1v47j7da" maskUnits="userSpaceOnUse" x="44.038" y="48.385" width="27" height="27" fill="#000">
        <path fill="#fff" d="M44.038 48.385h27v27h-27z"/>
        <path fill-rule="evenodd" clip-rule="evenodd" d="M57.78 50.94a11.124 11.124 0 0 0-8.038 3.395 11.063 11.063 0 0 0-3.149 7.936c.097 6.091 5.096 10.98 11.182 10.98.06 0 .12 0 .18-.003a11.124 11.124 0 0 0 7.858-3.392 11.07 11.07 0 0 0 3.15-7.94c-.098-6.089-5.096-10.977-11.182-10.977zm-.005 23.864c-6.932 0-12.625-5.57-12.736-12.507a12.607 12.607 0 0 1 3.589-9.046 12.667 12.667 0 0 1 8.947-3.864c.07-.002.138-.002.206-.002 6.932 0 12.625 5.568 12.735 12.507a12.607 12.607 0 0 1-3.588 9.045 12.673 12.673 0 0 1-8.948 3.864l-.205.003z"/>
    </mask>
    <path fill-rule="evenodd" clip-rule="evenodd" d="M57.78 50.94a11.124 11.124 0 0 0-8.038 3.395 11.063 11.063 0 0 0-3.149 7.936c.097 6.091 5.096 10.98 11.182 10.98.06 0 .12 0 .18-.003a11.124 11.124 0 0 0 7.858-3.392 11.07 11.07 0 0 0 3.15-7.94c-.098-6.089-5.096-10.977-11.182-10.977zm-.005 23.864c-6.932 0-12.625-5.57-12.736-12.507a12.607 12.607 0 0 1 3.589-9.046 12.667 12.667 0 0 1 8.947-3.864c.07-.002.138-.002.206-.002 6.932 0 12.625 5.568 12.735 12.507a12.607 12.607 0 0 1-3.588 9.045 12.673 12.673 0 0 1-8.948 3.864l-.205.003z" fill="#3093BB"/>
    <path d="M57.78 50.94v.5h.5v-.5h-.5zm-.18.002.008.5h.012l-.02-.5zm-7.857 3.393.358.348-.358-.348zm-3.15 7.936-.5.008.5-.008zm11.362 10.977-.007-.5h-.012l.02.5zm7.858-3.392.358.348-.358-.348zm3.15-7.94.5-.007-.5.008zM57.78 50.94v-.5h-.5v.5h.5zM45.039 62.297l-.5.008.5-.008zm3.589-9.046.359.349-.36-.349zm8.947-3.864.008.5h.01l-.018-.5zm12.941 12.505-.5.008.5-.008zm-3.588 9.045-.359-.348.359.348zm-8.948 3.864v.5h.008l-.008-.5zm-.2-24.361c-.058 0-.127 0-.2.003l.04.999c.05-.002.099-.002.16-.002v-1zm-.187.002a11.624 11.624 0 0 0-8.209 3.544l.718.697a10.624 10.624 0 0 1 7.506-3.24l-.015-1zm-8.209 3.544a11.562 11.562 0 0 0-3.29 8.293l.999-.016a10.562 10.562 0 0 1 3.008-7.58l-.717-.697zm-3.29 8.293c.1 6.366 5.324 11.471 11.681 11.471v-1c-5.814 0-10.589-4.67-10.682-10.487l-1 .016zM57.774 73.75c.06 0 .128 0 .2-.002l-.04-1c-.049.002-.098.002-.16.002v1zm.188-.002a11.624 11.624 0 0 0 8.208-3.544l-.717-.697a10.624 10.624 0 0 1-7.506 3.241l.015 1zm8.209-3.544a11.57 11.57 0 0 0 3.29-8.295l-1 .016a10.57 10.57 0 0 1-3.008 7.582l.718.697zm3.29-8.295c-.101-6.365-5.324-11.47-11.681-11.47v1c5.814 0 10.589 4.67 10.682 10.486l1-.016zm-12.181-10.97h1-1zm.494 23.365c-6.66 0-12.13-5.352-12.236-12.015l-1 .016c.116 7.212 6.033 12.999 13.236 12.999v-1zM45.54 62.289a12.107 12.107 0 0 1 3.448-8.69l-.718-.696a13.107 13.107 0 0 0-3.73 9.402l1-.016zm3.448-8.69a12.166 12.166 0 0 1 8.596-3.712l-.015-1a13.166 13.166 0 0 0-9.299 4.016l.718.697zm8.606-3.712c.058-.002.118-.002.188-.002v-1c-.067 0-.144 0-.223.003l.035.999zm.188-.002c6.66 0 12.13 5.35 12.236 12.015l1-.016c-.115-7.214-6.032-13-13.236-13v1zM70.017 61.9a12.107 12.107 0 0 1-3.448 8.689l.717.697a13.107 13.107 0 0 0 3.73-9.402l-1 .016zm-3.448 8.689a12.172 12.172 0 0 1-8.597 3.712l.016 1a13.173 13.173 0 0 0 9.299-4.015l-.718-.697zM57.98 74.3l-.111.002h-.094v1h.111l.094-.002v-1zm-.205 1.003v-1 1z" fill="#3093BB" mask="url(#li1v47j7da)"/>
    <path d="M67.892 91.012H47.668a5.72 5.72 0 0 0-4.667-5.087V37.763a5.725 5.725 0 0 0 4.598-4.586H67.96a5.725 5.725 0 0 0 4.598 4.586v48.162a5.72 5.72 0 0 0-4.667 5.087zm-21.255 2.054H68.92c.291 0 .568-.124.763-.34.194-.217.288-.507.257-.796l-.248.026.249-.025a3.664 3.664 0 0 1 3.643-4.046c.567 0 1.027-.46 1.027-1.027V36.829c0-.569-.46-1.026-1.026-1.026a3.663 3.663 0 0 1-3.665-3.653c0-.567-.46-1.027-1.026-1.027H46.663c-.566 0-1.026.46-1.026 1.027a3.663 3.663 0 0 1-3.665 3.652c-.566 0-1.026.457-1.026 1.026v50.029c0 .567.459 1.027 1.026 1.027a3.663 3.663 0 0 1 3.644 4.045c-.03.288.062.577.257.794.194.22.473.343.764.343z" fill="#3093BB" stroke="#3093BB" stroke-width=".5"/>
    <path d="M77.109 28.195v70.47H38.45v-70.47a1.026 1.026 0 1 0-2.053 0v71.497c0 .567.46 1.027 1.027 1.027h40.58l.001.001h.13a1.026 1.026 0 0 0 1.027-1.026V28.196a1.026 1.026 0 1 0-2.054 0z" fill="#3093BB" stroke="#3093BB" stroke-width=".5"/>
    <path d="M66.428 42.14c0-.907.742-1.648 1.654-1.648.913 0 1.654.74 1.654 1.648 0 .906-.742 1.645-1.654 1.645a1.65 1.65 0 0 1-1.654-1.645zm-2.053 0a3.708 3.708 0 0 0 7.415 0 3.708 3.708 0 0 0-7.415 0zM66.428 82.047c0-.906.741-1.645 1.654-1.645.913 0 1.654.738 1.654 1.645a1.653 1.653 0 0 1-3.308 0zm-2.053 0a3.709 3.709 0 0 0 3.707 3.701 3.71 3.71 0 0 0 3.708-3.701 3.708 3.708 0 0 0-7.416 0zM45.823 42.14a1.653 1.653 0 0 1 3.306 0 1.65 1.65 0 0 1-1.653 1.645 1.65 1.65 0 0 1-1.653-1.645zm-2.054 0c0 2.04 1.663 3.7 3.707 3.7h.001a3.707 3.707 0 0 0 3.707-3.7 3.708 3.708 0 0 0-7.415 0zM45.823 82.047c0-.906.74-1.645 1.653-1.645a1.65 1.65 0 0 1 1.654 1.645 1.653 1.653 0 0 1-3.307 0zm-2.054 0a3.71 3.71 0 0 0 3.707 3.701h.001a3.709 3.709 0 0 0 3.707-3.701 3.708 3.708 0 0 0-7.415 0z" fill="#3093BB" stroke="#3093BB" stroke-width=".5"/>
</svg>
