<svg width="114" height="114" viewBox="0 0 114 114" fill="none" xmlns="http://www.w3.org/2000/svg">
    <path fill="#F8FBFF" d="M0 0h114v114H0z"/>
    <mask id="10tz8h1qha" maskUnits="userSpaceOnUse" x="6" y="11" width="103" height="91" fill="#000">
        <path fill="#fff" d="M6 11h103v91H6z"/>
        <path d="M10.831 100.701a1.21 1.21 0 0 0 1.052.628h91.561c.44 0 .832-.251 1.036-.628l3.707-7.194c.079-.174.125-.362.125-.55V90.02c0-.66-.518-1.178-1.177-1.178h-2.938V37.588c0-3.455-2.811-6.283-6.283-6.283H85.992C81.642 20.027 70.583 12 57.672 12c-12.91 0-23.954 8.027-28.32 19.305H17.398c-3.455 0-6.283 2.827-6.283 6.283v51.254l-2.937-.001c-.644 0-1.178.519-1.178 1.178v2.937c0 .188.047.377.141.55l3.69 7.195zm87.084-67.04a3.939 3.939 0 0 1 3.927 3.926v51.238h-3.927V38.764c0-.645-.519-1.178-1.178-1.178h-9.08a27.245 27.245 0 0 0-.863-3.927l11.12.001zm-9.66 22.65c1.333 0 2.34 1.05 2.34 2.292 0 1.273-1.052 2.31-2.34 2.31h-.613V56.31h.612zM29.711 41.984c0-15.078 12.412-27.63 27.959-27.63 15.252 0 27.959 12.227 27.959 27.63v8.184a7.11 7.11 0 0 0-2.796-1.854v-6.33c0-13.8-11.358-24.88-25.164-24.88-13.846 0-25.164 11.132-25.164 24.88v6.314a7.47 7.47 0 0 0-2.796 1.838l.002-8.152zm55.573 13.147v6.959c-.025 2.689-2.256 4.948-5.09 4.948H78.97c-.298 0-.55-.236-.55-.519l.002-15.817c0-.283.25-.519.55-.519h1.225c2.758 0 5.065 2.214 5.088 4.948zM46.6 53.97a12.872 12.872 0 0 1-1.854-6.675c0-7.136 5.799-12.928 12.911-12.928 7.122 0 12.927 5.78 12.927 12.928 0 7.131-5.796 12.927-12.927 12.927-2.356 0-4.665-.644-6.66-1.854a1.205 1.205 0 0 0-.612-.173c-.095 0-.188.016-.299.032l-4.524 1.178 1.178-4.524a1.15 1.15 0 0 0-.14-.91zm4.162-20.31a15.635 15.635 0 0 0-4.9 3.927H35.305c.267-1.351.66-2.67 1.178-3.927h14.278zm-13.163-2.356a22.872 22.872 0 0 1 20.074-11.843c8.671 0 16.226 4.79 20.074 11.843H37.598zm31.87 6.284a15.527 15.527 0 0 0-4.916-3.927h14.31a20.93 20.93 0 0 1 1.178 3.926H69.468zM35.116 50.185h1.241c.299 0 .534.236.534.519V66.52a.527.527 0 0 1-.534.519h-1.24c-2.796 0-5.058-2.214-5.09-4.948V55.133c.024-2.84 2.426-4.948 5.089-4.948zm0 19.21h1.241a2.88 2.88 0 0 0 2.89-2.874V50.703a2.88 2.88 0 0 0-2.89-2.874h-1.24c-.079 0-.173 0-.251.015v-5.858c0-.691.03-1.367.11-2.043h9.298a15.265 15.265 0 0 0-1.884 7.352c0 2.638.66 5.199 1.947 7.461l-1.57 6c-.11.409.015.833.314 1.132.298.298.722.408 1.13.314l6.001-1.57a15.221 15.221 0 0 0 7.446 1.947c8.419 0 15.283-6.864 15.283-15.284 0-2.67-.69-5.168-1.885-7.352h9.315c.079.675.11 1.351.11 2.042v5.86c-.095-.016-.188-.016-.283-.016h-1.225c-1.602 0-2.906 1.288-2.906 2.874v15.818c0 1.586 1.304 2.874 2.906 2.874h1.225c.173 0 .33 0 .487-.016v1.178a3.78 3.78 0 0 1-3.77 3.77h-12.77c-.707-1.964-3.204-3.377-6.252-3.377-3.644 0-6.487 1.995-6.487 4.554 0 2.545 2.843 4.555 6.487 4.555 3.048 0 5.545-1.413 6.252-3.377h12.77a6.134 6.134 0 0 0 6.126-6.126l-.001-1.725c2.34-.958 4.068-3.048 4.492-5.561h.723c2.592 0 4.697-2.089 4.697-4.665a4.662 4.662 0 0 0-4.697-4.65h-.267v-11.97c0-.69-.016-1.366-.078-2.041h7.649v48.882H19.754V39.944h7.68a21.979 21.979 0 0 0-.078 2.042v11.97h-.298c-2.65 0-4.697 2.129-4.697 4.649 0 2.576 2.105 4.665 4.697 4.665h.722c.597 3.471 3.66 6.126 7.335 6.126zm26.892 6.11c0 1.418-2.506 2.2-4.115 2.2-2.372 0-4.131-1.162-4.131-2.2 0-1.052 1.759-2.198 4.13-2.198 1.63 0 4.117.788 4.117 2.199zm7.698 15.693-1.178 2.953h-21.74l-1.179-2.953h24.097zM27.67 56.31v4.603h-.612c-1.288 0-2.34-1.037-2.34-2.31 0-1.182.98-2.292 2.34-2.292l.612-.001zm-14.2-18.723A3.938 3.938 0 0 1 17.4 33.66H28.55a29.558 29.558 0 0 0-.864 3.927h-9.11c-.645 0-1.178.534-1.178 1.178v50.061h-3.927V37.587zM9.357 91.198h33.725l1.822 4.555a1.17 1.17 0 0 0 1.084.754h23.34a1.19 1.19 0 0 0 1.1-.754l1.822-4.555h33.709v1.477l-3.235 6.298H12.608l-3.251-6.298v-1.477z"/>
    </mask>
    <path d="M10.831 100.701a1.21 1.21 0 0 0 1.052.628h91.561c.44 0 .832-.251 1.036-.628l3.707-7.194c.079-.174.125-.362.125-.55V90.02c0-.66-.518-1.178-1.177-1.178h-2.938V37.588c0-3.455-2.811-6.283-6.283-6.283H85.992C81.642 20.027 70.583 12 57.672 12c-12.91 0-23.954 8.027-28.32 19.305H17.398c-3.455 0-6.283 2.827-6.283 6.283v51.254l-2.937-.001c-.644 0-1.178.519-1.178 1.178v2.937c0 .188.047.377.141.55l3.69 7.195zm87.084-67.04a3.939 3.939 0 0 1 3.927 3.926v51.238h-3.927V38.764c0-.645-.519-1.178-1.178-1.178h-9.08a27.245 27.245 0 0 0-.863-3.927l11.12.001zm-9.66 22.65c1.333 0 2.34 1.05 2.34 2.292 0 1.273-1.052 2.31-2.34 2.31h-.613V56.31h.612zM29.711 41.984c0-15.078 12.412-27.63 27.959-27.63 15.252 0 27.959 12.227 27.959 27.63v8.184a7.11 7.11 0 0 0-2.796-1.854v-6.33c0-13.8-11.358-24.88-25.164-24.88-13.846 0-25.164 11.132-25.164 24.88v6.314a7.47 7.47 0 0 0-2.796 1.838l.002-8.152zm55.573 13.147v6.959c-.025 2.689-2.256 4.948-5.09 4.948H78.97c-.298 0-.55-.236-.55-.519l.002-15.817c0-.283.25-.519.55-.519h1.225c2.758 0 5.065 2.214 5.088 4.948zM46.6 53.97a12.872 12.872 0 0 1-1.854-6.675c0-7.136 5.799-12.928 12.911-12.928 7.122 0 12.927 5.78 12.927 12.928 0 7.131-5.796 12.927-12.927 12.927-2.356 0-4.665-.644-6.66-1.854a1.205 1.205 0 0 0-.612-.173c-.095 0-.188.016-.299.032l-4.524 1.178 1.178-4.524a1.15 1.15 0 0 0-.14-.91zm4.162-20.31a15.635 15.635 0 0 0-4.9 3.927H35.305c.267-1.351.66-2.67 1.178-3.927h14.278zm-13.163-2.356a22.872 22.872 0 0 1 20.074-11.843c8.671 0 16.226 4.79 20.074 11.843H37.598zm31.87 6.284a15.527 15.527 0 0 0-4.916-3.927h14.31a20.93 20.93 0 0 1 1.178 3.926H69.468zM35.116 50.185h1.241c.299 0 .534.236.534.519V66.52a.527.527 0 0 1-.534.519h-1.24c-2.796 0-5.058-2.214-5.09-4.948V55.133c.024-2.84 2.426-4.948 5.089-4.948zm0 19.21h1.241a2.88 2.88 0 0 0 2.89-2.874V50.703a2.88 2.88 0 0 0-2.89-2.874h-1.24c-.079 0-.173 0-.251.015v-5.858c0-.691.03-1.367.11-2.043h9.298a15.265 15.265 0 0 0-1.884 7.352c0 2.638.66 5.199 1.947 7.461l-1.57 6c-.11.409.015.833.314 1.132.298.298.722.408 1.13.314l6.001-1.57a15.221 15.221 0 0 0 7.446 1.947c8.419 0 15.283-6.864 15.283-15.284 0-2.67-.69-5.168-1.885-7.352h9.315c.079.675.11 1.351.11 2.042v5.86c-.095-.016-.188-.016-.283-.016h-1.225c-1.602 0-2.906 1.288-2.906 2.874v15.818c0 1.586 1.304 2.874 2.906 2.874h1.225c.173 0 .33 0 .487-.016v1.178a3.78 3.78 0 0 1-3.77 3.77h-12.77c-.707-1.964-3.204-3.377-6.252-3.377-3.644 0-6.487 1.995-6.487 4.554 0 2.545 2.843 4.555 6.487 4.555 3.048 0 5.545-1.413 6.252-3.377h12.77a6.134 6.134 0 0 0 6.126-6.126l-.001-1.725c2.34-.958 4.068-3.048 4.492-5.561h.723c2.592 0 4.697-2.089 4.697-4.665a4.662 4.662 0 0 0-4.697-4.65h-.267v-11.97c0-.69-.016-1.366-.078-2.041h7.649v48.882H19.754V39.944h7.68a21.979 21.979 0 0 0-.078 2.042v11.97h-.298c-2.65 0-4.697 2.129-4.697 4.649 0 2.576 2.105 4.665 4.697 4.665h.722c.597 3.471 3.66 6.126 7.335 6.126zm26.892 6.11c0 1.418-2.506 2.2-4.115 2.2-2.372 0-4.131-1.162-4.131-2.2 0-1.052 1.759-2.198 4.13-2.198 1.63 0 4.117.788 4.117 2.199zm7.698 15.693-1.178 2.953h-21.74l-1.179-2.953h24.097zM27.67 56.31v4.603h-.612c-1.288 0-2.34-1.037-2.34-2.31 0-1.182.98-2.292 2.34-2.292l.612-.001zm-14.2-18.723A3.938 3.938 0 0 1 17.4 33.66H28.55a29.558 29.558 0 0 0-.864 3.927h-9.11c-.645 0-1.178.534-1.178 1.178v50.061h-3.927V37.587zM9.357 91.198h33.725l1.822 4.555a1.17 1.17 0 0 0 1.084.754h23.34a1.19 1.19 0 0 0 1.1-.754l1.822-4.555h33.709v1.477l-3.235 6.298H12.608l-3.251-6.298v-1.477z" fill="#3093BB"/>
    <path d="M10.831 100.701a1.21 1.21 0 0 0 1.052.628h91.561c.44 0 .832-.251 1.036-.628l3.707-7.194c.079-.174.125-.362.125-.55V90.02c0-.66-.518-1.178-1.177-1.178h-2.938V37.588c0-3.455-2.811-6.283-6.283-6.283H85.992C81.642 20.027 70.583 12 57.672 12c-12.91 0-23.954 8.027-28.32 19.305H17.398c-3.455 0-6.283 2.827-6.283 6.283v51.254l-2.937-.001c-.644 0-1.178.519-1.178 1.178v2.937c0 .188.047.377.141.55l3.69 7.195zm87.084-67.04a3.939 3.939 0 0 1 3.927 3.926v51.238h-3.927V38.764c0-.645-.519-1.178-1.178-1.178h-9.08a27.245 27.245 0 0 0-.863-3.927l11.12.001zm-9.66 22.65c1.333 0 2.34 1.05 2.34 2.292 0 1.273-1.052 2.31-2.34 2.31h-.613V56.31h.612zM29.711 41.984c0-15.078 12.412-27.63 27.959-27.63 15.252 0 27.959 12.227 27.959 27.63v8.184a7.11 7.11 0 0 0-2.796-1.854v-6.33c0-13.8-11.358-24.88-25.164-24.88-13.846 0-25.164 11.132-25.164 24.88v6.314a7.47 7.47 0 0 0-2.796 1.838l.002-8.152zm55.573 13.147v6.959c-.025 2.689-2.256 4.948-5.09 4.948H78.97c-.298 0-.55-.236-.55-.519l.002-15.817c0-.283.25-.519.55-.519h1.225c2.758 0 5.065 2.214 5.088 4.948zM46.6 53.97a12.872 12.872 0 0 1-1.854-6.675c0-7.136 5.799-12.928 12.911-12.928 7.122 0 12.927 5.78 12.927 12.928 0 7.131-5.796 12.927-12.927 12.927-2.356 0-4.665-.644-6.66-1.854a1.205 1.205 0 0 0-.612-.173c-.095 0-.188.016-.299.032l-4.524 1.178 1.178-4.524a1.15 1.15 0 0 0-.14-.91zm4.162-20.31a15.635 15.635 0 0 0-4.9 3.927H35.305c.267-1.351.66-2.67 1.178-3.927h14.278zm-13.163-2.356a22.872 22.872 0 0 1 20.074-11.843c8.671 0 16.226 4.79 20.074 11.843H37.598zm31.87 6.284a15.527 15.527 0 0 0-4.916-3.927h14.31a20.93 20.93 0 0 1 1.178 3.926H69.468zM35.116 50.185h1.241c.299 0 .534.236.534.519V66.52a.527.527 0 0 1-.534.519h-1.24c-2.796 0-5.058-2.214-5.09-4.948V55.133c.024-2.84 2.426-4.948 5.089-4.948zm0 19.21h1.241a2.88 2.88 0 0 0 2.89-2.874V50.703a2.88 2.88 0 0 0-2.89-2.874h-1.24c-.079 0-.173 0-.251.015v-5.858c0-.691.03-1.367.11-2.043h9.298a15.265 15.265 0 0 0-1.884 7.352c0 2.638.66 5.199 1.947 7.461l-1.57 6c-.11.409.015.833.314 1.132.298.298.722.408 1.13.314l6.001-1.57a15.221 15.221 0 0 0 7.446 1.947c8.419 0 15.283-6.864 15.283-15.284 0-2.67-.69-5.168-1.885-7.352h9.315c.079.675.11 1.351.11 2.042v5.86c-.095-.016-.188-.016-.283-.016h-1.225c-1.602 0-2.906 1.288-2.906 2.874v15.818c0 1.586 1.304 2.874 2.906 2.874h1.225c.173 0 .33 0 .487-.016v1.178a3.78 3.78 0 0 1-3.77 3.77h-12.77c-.707-1.964-3.204-3.377-6.252-3.377-3.644 0-6.487 1.995-6.487 4.554 0 2.545 2.843 4.555 6.487 4.555 3.048 0 5.545-1.413 6.252-3.377h12.77a6.134 6.134 0 0 0 6.126-6.126l-.001-1.725c2.34-.958 4.068-3.048 4.492-5.561h.723c2.592 0 4.697-2.089 4.697-4.665a4.662 4.662 0 0 0-4.697-4.65h-.267v-11.97c0-.69-.016-1.366-.078-2.041h7.649v48.882H19.754V39.944h7.68a21.979 21.979 0 0 0-.078 2.042v11.97h-.298c-2.65 0-4.697 2.129-4.697 4.649 0 2.576 2.105 4.665 4.697 4.665h.722c.597 3.471 3.66 6.126 7.335 6.126zm26.892 6.11c0 1.418-2.506 2.2-4.115 2.2-2.372 0-4.131-1.162-4.131-2.2 0-1.052 1.759-2.198 4.13-2.198 1.63 0 4.117.788 4.117 2.199zm7.698 15.693-1.178 2.953h-21.74l-1.179-2.953h24.097zM27.67 56.31v4.603h-.612c-1.288 0-2.34-1.037-2.34-2.31 0-1.182.98-2.292 2.34-2.292l.612-.001zm-14.2-18.723A3.938 3.938 0 0 1 17.4 33.66H28.55a29.558 29.558 0 0 0-.864 3.927h-9.11c-.645 0-1.178.534-1.178 1.178v50.061h-3.927V37.587zM9.357 91.198h33.725l1.822 4.555a1.17 1.17 0 0 0 1.084.754h23.34a1.19 1.19 0 0 0 1.1-.754l1.822-4.555h33.709v1.477l-3.235 6.298H12.608l-3.251-6.298v-1.477z" stroke="#3093BB" stroke-width=".2" mask="url(#10tz8h1qha)"/>
    <path d="M50.18 48.474h14.97c.643 0 1.177-.534 1.177-1.178 0-.644-.534-1.178-1.178-1.178H50.18c-.66 0-1.177.534-1.177 1.178 0 .644.519 1.178 1.178 1.178zM53.18 42.96h8.953c.66 0 1.178-.534 1.178-1.178 0-.66-.518-1.178-1.178-1.178H53.18c-.644 0-1.178.519-1.178 1.178 0 .644.534 1.178 1.178 1.178zM62.133 51.63h-8.954c-.644 0-1.178.534-1.178 1.178 0 .66.534 1.178 1.178 1.178h8.954c.66 0 1.178-.518 1.178-1.178 0-.644-.518-1.178-1.178-1.178z" fill="#3093BB"/>
</svg>
