<svg width="114" height="114" viewBox="0 0 114 114" fill="none" xmlns="http://www.w3.org/2000/svg">
    <path fill="#F8FBFF" d="M0 0h114v114H0z"/>
    <path d="M67.932 45.52h-4.866c-.257-.896-.64-1.792-1.281-2.56h6.147c1.025 0 1.92-.897 1.92-1.92 0-1.026-.896-1.921-1.92-1.921l-15.623-.001H44.88c-1.024 0-1.92.896-1.92 1.92 0 1.025.897 1.92 1.92 1.92h7.428c3.97 0 5.762 1.025 6.66 2.562H44.88c-1.025 0-1.92.897-1.92 1.921 0 1.025.896 1.92 1.92 1.92h14.727c-.128 2.69-1.281 5.123-7.3 5.123l-7.427.002c-.768 0-1.537.511-1.793 1.152-.256.768-.128 1.536.384 2.049L58.84 73.054c.384.384.897.512 1.409.512s1.025-.128 1.409-.512c.768-.768.768-1.92 0-2.69L49.619 58.326h2.69c9.22 0 11.013-5.378 11.14-8.964h4.483c1.025 0 1.92-.897 1.92-1.92 0-1.025-.895-1.922-1.92-1.922z" fill="#3093BB"/>
    <path d="m92.263 81.634 7.3-5.506c2.945-2.177 4.099-6.019 3.074-9.477l-2.69-8.836a5.257 5.257 0 0 1 0-2.818l2.69-8.836c1.025-3.458-.128-7.3-3.074-9.477l-7.3-5.506c-.768-.64-1.28-1.409-1.665-2.305l-3.073-8.707c-1.153-3.458-4.354-5.763-8.068-5.892l-9.091-.128c-1.025 0-1.92-.257-2.69-.897l-7.555-5.25c-2.946-2.05-7.044-2.05-9.99 0l-7.554 5.25c-.769.512-1.666.897-2.69.897l-9.22.128c-3.586.127-6.788 2.433-8.069 5.89l-3.073 8.708c-.257.897-.897 1.666-1.665 2.305l-7.3 5.506c-2.816 2.179-4.097 6.02-2.945 9.478l2.69 8.836c.257.897.257 1.92 0 2.818l-2.69 8.836c-1.024 3.458.128 7.3 3.074 9.477l7.3 5.506c.768.64 1.281 1.409 1.665 2.305l3.074 8.707c1.152 3.458 4.354 5.763 8.068 5.892l9.22.127c1.025 0 1.92.257 2.69.897l7.555 5.251c1.409 1.024 3.202 1.536 4.995 1.536 1.792 0 3.458-.512 4.994-1.536l7.555-5.25c.769-.513 1.665-.898 2.69-.898l9.22-.127c3.586-.128 6.788-2.434 8.069-5.892l3.073-8.707c-.002-.896.638-1.664 1.406-2.305zM89.96 78.56a7.91 7.91 0 0 0-2.945 4.099l-3.074 8.707c-.64 1.92-2.433 3.202-4.483 3.202l-9.22.256c-1.665 0-3.33.512-4.738 1.537l-7.555 5.25a4.815 4.815 0 0 1-5.507 0l-7.555-5.25a8.047 8.047 0 0 0-4.738-1.537l-9.35-.256c-2.048 0-3.841-1.409-4.482-3.202L23.24 82.66a7.911 7.911 0 0 0-2.945-4.099l-7.3-5.506c-1.665-1.28-2.304-3.33-1.665-5.25l2.69-8.837c.512-1.665.512-3.458 0-4.994l-2.69-8.837c-.64-1.92.128-4.098 1.665-5.25l7.3-5.507a7.91 7.91 0 0 0 2.946-4.098l3.073-8.708c.64-1.92 2.434-3.201 4.483-3.201l9.22-.128c1.665 0 3.33-.512 4.738-1.536l7.556-5.251c.768-.512 1.792-.897 2.817-.897 1.024 0 1.92.256 2.817.897l7.556 5.25a8.047 8.047 0 0 0 4.738 1.537l9.22.128c2.05 0 3.842 1.409 4.483 3.201l3.073 8.708a7.911 7.911 0 0 0 2.945 4.098l7.3 5.507c1.665 1.28 2.305 3.329 1.665 5.25l-2.562 8.709c-.512 1.665-.512 3.458 0 4.994l2.69 8.837c.64 1.92-.128 4.098-1.666 5.25L89.96 78.56z" fill="#3093BB"/>
    <path d="M46.802 22.726h.384c1.152-.256 2.304-.512 3.586-.64 1.024-.128 1.792-1.153 1.665-2.177-.128-1.025-1.153-1.793-2.177-1.666-1.281.128-2.69.385-3.97.64-1.025.257-1.665 1.282-1.409 2.306.256 1.025 1.024 1.537 1.92 1.537zM39.502 87.269c-1.024-.512-2.176-1.153-3.073-1.793-.897-.512-2.05-.384-2.69.512-.64.896-.384 2.049.512 2.69 1.152.767 2.305 1.408 3.458 2.049.256.127.64.256.897.256.64 0 1.408-.384 1.665-1.025.512-1.025.128-2.178-.769-2.69zM35.148 27.72c.384 0 .768-.127 1.025-.256 1.024-.64 2.049-1.28 3.073-1.793.897-.512 1.281-1.665.769-2.56-.512-.898-1.665-1.282-2.561-.769-1.153.64-2.305 1.281-3.458 2.05-.897.64-1.153 1.792-.512 2.689.383.384 1.024.64 1.664.64zM50.9 90.726c-1.153-.127-2.434-.384-3.586-.64-1.025-.257-2.05.384-2.305 1.409-.256 1.024.384 2.049 1.409 2.304 1.28.257 2.69.512 3.97.64h.256c.897 0 1.793-.767 1.92-1.664.128-.895-.512-1.92-1.665-2.049zM22.086 66.523c-.256-1.024-1.409-1.536-2.433-1.28-1.025.256-1.537 1.408-1.281 2.433.384 1.28.896 2.56 1.408 3.713.257.768 1.025 1.152 1.793 1.152.257 0 .512 0 .768-.127 1.025-.385 1.41-1.537 1.025-2.561-.512-1.024-.896-2.176-1.28-3.33zM19.653 47.698c.128 0 .384.128.512.128.768 0 1.536-.512 1.793-1.41.384-1.151.768-2.304 1.28-3.457.385-1.025 0-2.05-1.024-2.56-1.025-.385-2.05 0-2.561 1.024-.512 1.28-1.025 2.56-1.409 3.842-.255 1.024.384 2.048 1.409 2.433zM59.224 22.086c1.152.128 2.433.384 3.586.64h.384c.897 0 1.665-.64 1.92-1.536.257-1.025-.384-2.05-1.408-2.305-1.281-.256-2.69-.512-3.97-.64-1.025-.128-2.05.64-2.177 1.665-.129 1.023.64 2.047 1.665 2.176zM27.593 77.28c-.64-.897-1.921-1.025-2.69-.384-.897.64-1.024 1.793-.384 2.69.768 1.024 1.665 2.049 2.561 3.073.384.385.897.64 1.409.64s.897-.127 1.28-.51c.769-.77.769-1.921.129-2.69-.896-.898-1.666-1.923-2.305-2.819zM24.775 36.044c.384.257.768.384 1.152.384.64 0 1.153-.256 1.537-.768.768-.897 1.536-1.92 2.304-2.817.769-.769.64-2.05-.127-2.69-.769-.768-2.05-.64-2.69.128-.897 1.024-1.793 2.049-2.561 3.073-.64.897-.512 2.05.385 2.69zM18.756 60.248c1.025 0 1.92-1.025 1.793-2.05v-3.457c0-1.025-.768-1.921-1.793-2.05-1.024 0-1.92.769-2.049 1.793V58.454l1.92-.128-1.92.129c.128 1.024.897 1.793 2.05 1.793zM88.166 46.161c.256.769 1.024 1.41 1.792 1.41.128 0 .385 0 .512-.129 1.025-.256 1.537-1.408 1.281-2.433-.384-1.281-.897-2.561-1.409-3.713-.384-1.025-1.536-1.409-2.56-1.025-1.025.384-1.41 1.537-1.025 2.561.64 1.025 1.024 2.177 1.409 3.33zM62.938 90.086c-1.153.256-2.305.512-3.586.64-1.025.128-1.793 1.025-1.665 2.177.128 1.025.897 1.665 1.92 1.665h.257c1.28-.127 2.69-.384 3.97-.64 1.024-.257 1.664-1.281 1.408-2.305-.255-1.153-1.28-1.793-2.305-1.537zM93.544 54.23c0-1.025-.897-1.921-2.05-1.793-1.024 0-1.92 1.024-1.792 2.049v3.713c0 1.025.768 1.92 1.793 2.05h.128c1.024 0 1.92-.769 1.92-1.794V54.485l.001-.256zM85.476 76.768c-.897-.64-2.05-.512-2.69.384-.768 1.025-1.536 1.92-2.304 2.817-.769.769-.64 2.05.127 2.69.384.384.897.512 1.281.512.512 0 1.025-.257 1.409-.64.897-1.025 1.793-2.05 2.561-3.074.64-.768.384-2.049-.384-2.69zM90.599 65.243a2.029 2.029 0 0 0-2.434 1.28c-.384 1.153-.768 2.305-1.28 3.458-.385 1.025 0 2.05 1.024 2.561.256.128.512.128.768.128.768 0 1.409-.384 1.793-1.152.512-1.281 1.025-2.561 1.409-3.842.256-1.025-.256-2.177-1.28-2.434zM70.75 25.543a40.043 40.043 0 0 1 3.2 1.793c.385.256.641.256 1.025.256.641 0 1.281-.256 1.666-.896.64-.897.256-2.05-.512-2.69-1.153-.768-2.305-1.409-3.458-2.05-.897-.511-2.05-.127-2.561.898-.77 1.025-.385 2.177.64 2.69zM82.659 35.532c.384.512.897.768 1.536.768.384 0 .768-.127 1.153-.384.896-.64 1.024-1.793.384-2.69-.769-1.024-1.665-2.049-2.561-3.073a1.981 1.981 0 0 0-2.69-.128 1.981 1.981 0 0 0-.128 2.69c.77.897 1.538 1.793 2.306 2.817zM73.95 85.347c-1.024.641-2.049 1.282-3.073 1.793-.897.512-1.281 1.665-.897 2.561.384.64 1.024 1.025 1.665 1.025.256 0 .64-.128.897-.257 1.152-.64 2.304-1.28 3.458-2.049.897-.64 1.152-1.792.511-2.69-.511-.638-1.665-.894-2.56-.383zM105.71 81.25c-1.025-.769-2.305-1.153-3.586-1.153-2.817 0-5.891 1.793-8.068 4.61-3.201 4.354-3.073 9.733.257 12.166 1.024.768 2.304 1.152 3.585 1.152 2.818 0 5.892-1.793 8.068-4.61 3.074-4.483 2.945-9.732-.256-12.166zm-2.945 9.86c-1.409 1.921-3.33 3.074-4.995 3.074-.511 0-.896-.128-1.28-.384-1.281-1.025-1.41-3.97.64-6.787 1.409-1.92 3.329-3.074 4.994-3.074.512 0 .897.128 1.281.384 1.28 1.024 1.409 3.97-.64 6.787z" fill="#3093BB"/>
</svg>
