<svg width="20" height="20" viewBox="0 0 20 20" fill="none" xmlns="http://www.w3.org/2000/svg">
    <path fill-rule="evenodd" clip-rule="evenodd" d="M12.113 3.173a2.5 2.5 0 0 1 3.536 0l1.178 1.179a2.5 2.5 0 0 1 0 3.535l-8.66 8.66a.833.833 0 0 1-.426.229l-4.42.883a.833.833 0 0 1-.98-.98l.884-4.42a.833.833 0 0 1 .228-.425l8.66-8.66zm2.357 1.179L15.65 5.53a.833.833 0 0 1 0 1.179L14.47 7.887 12.113 5.53l1.179-1.178a.833.833 0 0 1 1.178 0zm-3.535 2.357L4.81 12.834l-.59 2.946 2.947-.59 6.125-6.124-2.357-2.357z" fill="#9393AA"/>
</svg>
