<svg width="32" height="32" viewBox="0 0 32 32" fill="none" xmlns="http://www.w3.org/2000/svg">
<path fill-rule="evenodd" clip-rule="evenodd" d="M9.6 0H22.4C27.7019 0 32 4.29807 32 9.6V22.4C32 27.7019 27.7019 32 22.4 32H9.6C4.29807 32 0 27.7019 0 22.4V9.6C0 4.29807 4.29807 0 9.6 0Z" fill="#24B2B2"/>
<path fill-rule="evenodd" clip-rule="evenodd" d="M16.7998 7.19995V10.4C16.7998 12.1673 18.2325 13.6 19.9998 13.6H23.1998V21.6C23.1998 23.3673 21.7671 24.8 19.9998 24.8H11.9998C10.2325 24.8 8.7998 23.3673 8.7998 21.6V10.4C8.7998 8.63264 10.2325 7.19995 11.9998 7.19995H16.7998ZM18.3998 7.66858V10.4C18.3998 11.2836 19.1161 12 19.9998 12H22.7312L18.3998 7.66858ZM14.3998 15.9632C14.3998 15.377 14.7224 14.8662 15.1998 14.5986V13.6H16.7998V14.4H17.1998V16H16.1539L16.6171 16.1853C17.2106 16.4227 17.5998 16.9975 17.5998 17.6367C17.5998 18.2229 17.2772 18.7337 16.7998 19.0013V20H15.1998V19.2H14.7998V17.6H15.8457L15.3825 17.4146C14.789 17.1772 14.3998 16.6024 14.3998 15.9632Z" fill="white"/>
</svg>
