<svg width="22" height="22" viewBox="0 0 22 22" fill="none" xmlns="http://www.w3.org/2000/svg">
<path fill-rule="evenodd" clip-rule="evenodd" d="M5.49984 7.33333C3.98105 7.33333 2.74984 8.56455 2.74984 10.0833V11.9167C2.74984 13.4355 3.98105 14.6667 5.49984 14.6667H9.1665V16.5H5.49984C2.96853 16.5 0.916504 14.448 0.916504 11.9167V10.0833C0.916504 7.55203 2.96853 5.5 5.49984 5.5H9.1665V7.33333H5.49984ZM16.4998 7.33333H12.8332V5.5H16.4998C19.0311 5.5 21.0832 7.55203 21.0832 10.0833V11.9167C21.0832 14.448 19.0311 16.5 16.4998 16.5H12.8332V14.6667H16.4998C18.0186 14.6667 19.2498 13.4355 19.2498 11.9167V10.0833C19.2498 8.56455 18.0186 7.33333 16.4998 7.33333Z" fill="#3093BB"/>
<path fill-rule="evenodd" clip-rule="evenodd" d="M7.33301 10.083H14.6663V11.9163H7.33301V10.083Z" fill="#3093BB"/>
</svg>
