<svg width="28" height="32" viewBox="0 0 28 32" fill="none" xmlns="http://www.w3.org/2000/svg">
    <path fill-rule="evenodd" clip-rule="evenodd" d="M26.513 20.44c-.17 4.148-.109 8.158 1.321 9.731a.604.604 0 0 1-.237.974 13.073 13.073 0 0 1-4.594.822c-1.14 0-2.399-.143-3.758-.508-1.77-.476-3.017-1.143-3.443-1.39a11.004 11.004 0 0 1-3.56 0c-.426.247-1.675.914-3.444 1.39a14.632 14.632 0 0 1-3.777.507c-1.407 0-2.965-.216-4.575-.82a.604.604 0 0 1-.237-.974c1.43-1.574 1.49-5.584 1.321-9.733a3.167 3.167 0 0 1-.217-4.417c-.208-4.231-.318-7.06 1.033-9.675.076-.147.157-.293.24-.435.971-1.66 2.776-2.732 4.76-2.85A8.361 8.361 0 0 1 13.506.01a14.572 14.572 0 0 1 7.761 1.91c2.019 1.155 3.51 2.645 4.43 4.428 1.351 2.613 1.241 5.443 1.033 9.674a3.16 3.16 0 0 1-.217 4.418zm-1.581-4.08v3.01c0 .212-.007.422-.019.63.806-.25 1.392-.999 1.392-1.881 0-.876-.577-1.62-1.373-1.876V16.359zM3.432 6.9a8.28 8.28 0 0 1 .21-.38c.803-1.372 2.34-2.237 4.012-2.256h.009a.612.612 0 0 0 .471-.238 7.15 7.15 0 0 1 5.415-2.805 13.349 13.349 0 0 1 7.11 1.749C22.47 4.007 23.8 5.33 24.611 6.9c1.081 2.092 1.113 4.367.936 8.276a3.196 3.196 0 0 0-.616-.185v-.617a.609.609 0 0 0-.61-.606.609.609 0 0 0-.61.607v1.377c-8.408.09-12.96-3.935-14.174-5.195a.613.613 0 0 0-1.005.19c-.887 2.144-2.436 3.266-4.876 3.53a.608.608 0 0 0-.545.603v.111c-.213.041-.42.103-.616.185-.177-3.908-.145-6.183.936-8.276zM1.74 18.12c0 .882.586 1.631 1.392 1.882a10.914 10.914 0 0 1-.02-.63v-3.128c-.795.257-1.372 1-1.372 1.876zm-.1 12.148c1.09-1.847 1.278-4.916 1.14-9.105.161.05.33.087.501.11.694 3.885 3.477 7.06 7.148 8.337-1.766.756-5.108 1.756-8.788.658zM4.334 19.37c0 5.31 4.346 9.63 9.689 9.63s9.69-4.32 9.69-9.63v-2.404c-3.707.04-7.11-.672-10.123-2.113-2.003-.958-3.425-2.052-4.305-2.849-1.033 1.911-2.662 3.031-4.951 3.405v3.96zm15.272 10.927a14.512 14.512 0 0 1-1.992-.688c3.674-1.276 6.457-4.452 7.151-8.338.172-.023.34-.06.501-.11-.138 4.19.05 7.259 1.14 9.105-2.156.648-4.44.659-6.8.031zm-7.695-6.145a3.003 3.003 0 0 0 4.224 0 .613.613 0 0 1 .863 0 .604.604 0 0 1 0 .858 4.208 4.208 0 0 1-2.975 1.223 4.208 4.208 0 0 1-2.975-1.223.604.604 0 0 1 0-.858.613.613 0 0 1 .863 0zm-5.183-6.58a.604.604 0 0 0 0 .858.613.613 0 0 0 .863 0 1.009 1.009 0 0 1 1.419 0 .61.61 0 0 0 .863 0 .604.604 0 0 0 0-.858 2.236 2.236 0 0 0-3.145 0zm14.59 0a.604.604 0 0 1 0 .858.61.61 0 0 1-.863 0 1.009 1.009 0 0 0-1.419 0 .613.613 0 0 1-.863 0 .604.604 0 0 1 0-.858 2.236 2.236 0 0 1 3.145 0z" fill="#9393AA"/>
</svg>
