<svg width="18" height="18" viewBox="0 0 18 18" fill="none" xmlns="http://www.w3.org/2000/svg">
<path fill-rule="evenodd" clip-rule="evenodd" d="M0.992197 0.948102C1.22134 0.737261 1.55693 0.689938 1.83544 0.829194L16.8354 8.32919C17.0895 8.45624 17.25 8.71594 17.25 9.00001C17.25 9.28409 17.0895 9.54379 16.8354 9.67083L1.83544 17.1708C1.55693 17.3101 1.22134 17.2628 0.992197 17.0519C0.763055 16.8411 0.688026 16.5106 0.803672 16.2215L3.69225 9.00001L0.803672 1.77856C0.688026 1.48944 0.763055 1.15894 0.992197 0.948102ZM2.92901 3.05303L5.19639 8.72147C5.26791 8.90028 5.26791 9.09975 5.19639 9.27856L2.92901 14.947L14.823 9.00001L2.92901 3.05303Z" fill="#3093BB"/>
<path fill-rule="evenodd" clip-rule="evenodd" d="M3.75 8.25H8.25V9.75H3.75V8.25Z" fill="#3093BB"/>
</svg>
