<svg width="24" height="24" viewBox="0 0 24 24" fill="none" xmlns="http://www.w3.org/2000/svg">
    <path fill-rule="evenodd" clip-rule="evenodd" d="M8.5 10.5A2.5 2.5 0 0 1 11 8h3.5v2H11a.5.5 0 0 0 0 1h2a2.5 2.5 0 0 1 0 5H9.5v-2H13a.5.5 0 0 0 0-1h-2a2.5 2.5 0 0 1-2.5-2.5z" fill="#9393AA"/>
    <path fill-rule="evenodd" clip-rule="evenodd" d="M11 17.5V15h2v2.5h-2zM11 9V6.5h2V9h-2z" fill="#9393AA"/>
    <path fill-rule="evenodd" clip-rule="evenodd" d="M12 3a9 9 0 1 0 0 18 9 9 0 0 0 0-18zM1 12C1 5.925 5.925 1 12 1s11 4.925 11 11-4.925 11-11 11S1 18.075 1 12z" fill="#9393AA"/>
</svg>
