<svg width="32" height="32" viewBox="0 0 32 32" fill="none" xmlns="http://www.w3.org/2000/svg">
<path fill-rule="evenodd" clip-rule="evenodd" d="M9.6 0H22.4C27.7019 0 32 4.29807 32 9.6V22.4C32 27.7019 27.7019 32 22.4 32H9.6C4.29807 32 0 27.7019 0 22.4V9.6C0 4.29807 4.29807 0 9.6 0Z" fill="#FC9875"/>
<path fill-rule="evenodd" clip-rule="evenodd" d="M8.79971 7.19995C7.91605 7.19995 7.19971 7.9163 7.19971 8.79995V23.2C7.19971 24.0836 7.91605 24.8 8.79971 24.8H23.1997C24.0834 24.8 24.7997 24.0836 24.7997 23.2V8.79995C24.7997 7.9163 24.0834 7.19995 23.1997 7.19995H8.79971ZM16.2705 13.164C16.1229 12.9369 15.8705 12.8 15.5997 12.8C15.3289 12.8 15.0765 12.9369 14.929 13.164L9.72895 21.164C9.56907 21.4099 9.55665 21.7237 9.69657 21.9815C9.8365 22.2394 10.1063 22.4 10.3997 22.4H20.7997C21.0931 22.4 21.3629 22.2394 21.5028 21.9815C21.6428 21.7237 21.6303 21.4099 21.4705 21.164L16.2705 13.164ZM18.3997 12.4C18.3997 11.2954 19.2951 10.4 20.3997 10.4C21.5043 10.4 22.3997 11.2954 22.3997 12.4C22.3997 13.5045 21.5043 14.4 20.3997 14.4C19.2951 14.4 18.3997 13.5045 18.3997 12.4Z" fill="white"/>
</svg>
