<svg width="24" height="24" viewBox="0 0 24 24" fill="none" xmlns="http://www.w3.org/2000/svg">
    <path fill-rule="evenodd" clip-rule="evenodd" d="M1.524 2.952c0-.526.426-.952.952-.952h8.095c.526 0 .953.426.953.952v7.62a.952.952 0 0 1-.953.952H2.476a.952.952 0 0 1-.952-.953V2.952zm1.905.953v5.714h6.19V3.905h-6.19zM1.524 13.428c0-.526.426-.952.952-.952h8.095c.526 0 .953.426.953.952v7.62a.952.952 0 0 1-.953.952H2.476a.952.952 0 0 1-.952-.953v-7.619zm1.905.953v5.714h6.19v-5.714h-6.19zM12.476 2.952c0-.526.427-.952.953-.952h8.095c.526 0 .952.426.952.952v7.62a.952.952 0 0 1-.952.952h-8.095a.952.952 0 0 1-.953-.953V2.952zm1.905.953v5.714h6.19V3.905h-6.19zM12.476 13.428c0-.526.427-.952.953-.952h8.095c.526 0 .952.426.952.952v7.62a.952.952 0 0 1-.952.952h-8.095a.952.952 0 0 1-.953-.953v-7.619zm1.905.953v5.714h6.19v-5.714h-6.19z" fill="#3093BB"/>
</svg>
