<svg width="36" height="36" viewBox="0 0 36 36" fill="none" xmlns="http://www.w3.org/2000/svg">
    <path fill-rule="evenodd" clip-rule="evenodd" d="M1.5 10.5a3 3 0 0 1 3-3h27a3 3 0 0 1 3 3v15a3 3 0 0 1-3 3h-27a3 3 0 0 1-3-3v-15zm30 0h-27v15h27v-15z" fill="#FC9875"/>
    <path fill-rule="evenodd" clip-rule="evenodd" d="M1.5 10.5a3 3 0 0 1 3-3H9A1.5 1.5 0 0 1 10.5 9v1.5A4.5 4.5 0 0 1 6 15H3a1.5 1.5 0 0 1-1.5-1.5v-3zm6 0A1.5 1.5 0 0 1 6 12H4.5v-1.5h3zM1.5 22.5A1.5 1.5 0 0 1 3 21h3a4.5 4.5 0 0 1 4.5 4.5V27A1.5 1.5 0 0 1 9 28.5H4.5a3 3 0 0 1-3-3v-3zm3 1.5v1.5h3A1.5 1.5 0 0 0 6 24H4.5zM25.5 9A1.5 1.5 0 0 1 27 7.5h4.5a3 3 0 0 1 3 3v3A1.5 1.5 0 0 1 33 15h-3a4.5 4.5 0 0 1-4.5-4.5V9zm3 1.5A1.5 1.5 0 0 0 30 12h1.5v-1.5h-3zM25.5 25.5A4.5 4.5 0 0 1 30 21h3a1.5 1.5 0 0 1 1.5 1.5v3a3 3 0 0 1-3 3H27a1.5 1.5 0 0 1-1.5-1.5v-1.5zM30 24a1.5 1.5 0 0 0-1.5 1.5h3V24H30zM18 15a3 3 0 1 0 0 6 3 3 0 0 0 0-6zm-6 3a6 6 0 1 1 12 0 6 6 0 0 1-12 0z" fill="#FC9875"/>
</svg>
