<svg width="25" height="24" viewBox="0 0 25 24" fill="none" xmlns="http://www.w3.org/2000/svg">
    <path fill-rule="evenodd" clip-rule="evenodd" d="M7.958 5.047a.161.161 0 0 0-.228 0L6.339 6.438a2.863 2.863 0 0 0-.582 3.21 18.316 18.316 0 0 0 9.095 9.095 2.863 2.863 0 0 0 3.21-.582l1.39-1.39a.161.161 0 0 0 0-.229l-1.87-1.871a.161.161 0 0 0-.187-.03l-1.038.519a3.322 3.322 0 0 1-3.835-.623l-2.56-2.559a3.322 3.322 0 0 1-.622-3.835l.52-1.038a.161.161 0 0 0-.03-.186L7.957 5.047zM6.316 3.633a2.161 2.161 0 0 1 3.056 0l1.871 1.871c.658.658.821 1.663.405 2.495l-.519 1.039a1.322 1.322 0 0 0 .248 1.526l2.559 2.56a1.322 1.322 0 0 0 1.526.247l1.039-.52a2.161 2.161 0 0 1 2.495.405l1.871 1.872a2.161 2.161 0 0 1 0 3.056l-1.391 1.392a4.863 4.863 0 0 1-5.451.988A20.317 20.317 0 0 1 3.935 10.476a4.863 4.863 0 0 1 .989-5.452l1.39-1.391z" fill="#9393AA"/>
</svg>
