<svg width="25" height="24" viewBox="0 0 25 24" fill="none" xmlns="http://www.w3.org/2000/svg">
    <path fill-rule="evenodd" clip-rule="evenodd" d="M5.5 4a3 3 0 0 1 3-3h8a3 3 0 0 1 3 3v16a3 3 0 0 1-3 3h-8a3 3 0 0 1-3-3V4zm3-1a1 1 0 0 0-1 1v16a1 1 0 0 0 1 1h8a1 1 0 0 0 1-1V4a1 1 0 0 0-1-1h-8z" fill="#3093BB"/>
    <path fill-rule="evenodd" clip-rule="evenodd" d="M14 20.5h-3v-2h3v2zM8.5 2a1 1 0 0 1 1-1h6a1 1 0 0 1 1 1v.5a3 3 0 0 1-3 3h-2a3 3 0 0 1-3-3V2zm2.134 1a1 1 0 0 0 .866.5h2a1 1 0 0 0 .866-.5h-3.732z" fill="#3093BB"/>
</svg>
