<svg width="25" height="24" viewBox="0 0 25 24" fill="none" xmlns="http://www.w3.org/2000/svg">
    <path fill-rule="evenodd" clip-rule="evenodd" d="M2.5 6a3 3 0 0 1 3-3h14a3 3 0 0 1 3 3v14a1 1 0 0 1-1.555.832L16.697 18H5.5a3 3 0 0 1-3-3V6zm3-1a1 1 0 0 0-1 1v9a1 1 0 0 0 1 1H17a1 1 0 0 1 .555.168L20.5 18.13V6a1 1 0 0 0-1-1h-14z" fill="#9393AA"/>
    <path fill-rule="evenodd" clip-rule="evenodd" d="M5.5 10.5a2 2 0 1 1 4 0 2 2 0 0 1-4 0zM10.5 10.5a2 2 0 1 1 4 0 2 2 0 0 1-4 0zM15.5 10.5a2 2 0 1 1 4 0 2 2 0 0 1-4 0z" fill="#9393AA"/>
</svg>
