<svg width="20" height="20" viewBox="0 0 20 20" fill="none" xmlns="http://www.w3.org/2000/svg">
    <path d="M8.09 6.91a.833.833 0 1 0-1.18 1.18L8.822 10l-1.91 1.91a.833.833 0 1 0 1.178 1.18L10 11.177l1.912 1.911a.833.833 0 0 0 1.178-1.178L11.18 10l1.91-1.91a.833.833 0 1 0-1.178-1.18L10 8.822l-1.91-1.91z" fill="#6F767E"/>
    <path fill-rule="evenodd" clip-rule="evenodd" d="M10 16.666a6.667 6.667 0 1 0 0-13.333 6.667 6.667 0 0 0 0 13.333zm0 1.667a8.333 8.333 0 1 0 0-16.667 8.333 8.333 0 0 0 0 16.667z" fill="#6F767E"/>
</svg>
