<svg width="28" height="32" viewBox="0 0 28 32" fill="none" xmlns="http://www.w3.org/2000/svg">
    <path fill-rule="evenodd" clip-rule="evenodd" d="M27.991 19.138c0-1.636-1.163-3-2.694-3.285V5.776a3.9 3.9 0 0 0-1.711-3.242 3.765 3.765 0 0 0-3.386-.428L16.48.823C13.62-.164 10.61-.265 7.777.53 4.067 1.57 1.94 3.77 1.611 6.899c-.29.39-.521.827-.678 1.3l-.289.867c-.155.467.016.956.425 1.22.41.262.918.21 1.266-.133.119-.117.248-.216.385-.298v5.998c-1.53.285-2.694 1.649-2.694 3.285 0 1.702 1.259 3.11 2.88 3.314a11.632 11.632 0 0 0 3.111 6.077c2.135 2.202 4.973 3.414 7.992 3.414 3.016 0 5.85-1.194 7.982-3.36a11.454 11.454 0 0 0 3.14-6.133c1.611-.213 2.86-1.617 2.86-3.312zm-5.06-15.6a2.657 2.657 0 0 1 1.181 2.238v7.883c-1.839-.29-3.251-1.912-3.251-3.861l-.05-6.623a2.56 2.56 0 0 1 2.12.363zM2.056 8.584l-.115.346a3.168 3.168 0 0 1 3.581-.033 10.28 10.28 0 0 0 7.679 1.541 10.397 10.397 0 0 0 6.472-4.145l-.046-3.113-3.528-1.217c-2.633-.908-5.402-1.002-8.006-.272-2.623.736-4.29 2.05-4.979 3.917a4.443 4.443 0 0 1 3.988-.095 3.302 3.302 0 0 0 3.888-.823l.146-.168a.586.586 0 0 1 .837-.053.61.61 0 0 1 .051.85l-.147.17c-1.311 1.507-3.48 1.966-5.275 1.116a3.274 3.274 0 0 0-2.708-.043 3.357 3.357 0 0 0-1.838 2.022zm-.844 10.554c0-.968.637-1.788 1.508-2.049v3.265c0 .282.01.563.03.841a2.134 2.134 0 0 1-1.538-2.057zm12.798 11.6a9.956 9.956 0 0 0 7.143-3.008 10.288 10.288 0 0 0 2.96-7.262v-5.595c-2.496-.299-4.438-2.46-4.438-5.075V8.163a11.538 11.538 0 0 1-6.253 3.459 11.444 11.444 0 0 1-8.548-1.716c-.3-.2-.633-.31-.969-.335v10.783c0 2.761 1.05 5.364 2.956 7.33 1.91 1.97 4.45 3.054 7.148 3.054zm11.264-9.544c.015-.241.023-.483.023-.726V17.09c.871.261 1.509 1.08 1.509 2.05 0 .976-.649 1.801-1.532 2.055zm-17.4-5.09c-.606 0-1.176.24-1.604.675a.61.61 0 0 0 0 .852.586.586 0 0 0 .838 0 1.068 1.068 0 0 1 1.531 0 .585.585 0 0 0 .839 0 .61.61 0 0 0 0-.852 2.236 2.236 0 0 0-1.604-.675zm1.108 3.615c0 .623-.496 1.128-1.109 1.128-.612 0-1.11-.505-1.11-1.128 0-.622.498-1.127 1.11-1.127.613 0 1.11.505 1.11 1.127zm12.272 0c0 .623-.497 1.128-1.11 1.128-.612 0-1.109-.505-1.109-1.128 0-.622.497-1.127 1.11-1.127.612 0 1.109.505 1.109 1.127zm-2.713-2.088a.61.61 0 0 1 0-.852 2.245 2.245 0 0 1 3.207 0 .61.61 0 0 1 0 .852.586.586 0 0 1-.838 0 1.072 1.072 0 0 0-1.531 0 .586.586 0 0 1-.838 0zm-3.39 6.875c-.306.31-.71.48-1.142.48a1.59 1.59 0 0 1-1.141-.48.586.586 0 0 0-.838 0 .61.61 0 0 0 0 .852 2.758 2.758 0 0 0 1.98.834c.747 0 1.45-.296 1.979-.834a.61.61 0 0 0 0-.852.586.586 0 0 0-.839 0z" fill="#9393AA"/>
</svg>
