<svg width="18" height="18" viewBox="0 0 18 18" fill="none" xmlns="http://www.w3.org/2000/svg">
    <path fill-rule="evenodd" clip-rule="evenodd" d="M.75 3.375a1.5 1.5 0 0 1 1.5-1.5h12a1.5 1.5 0 0 1 1.5 1.5V6h-1.5V3.375h-12v7.275h4.5v1.5h-4.5a1.5 1.5 0 0 1-1.5-1.5V3.375z" fill="#24B2B2"/>
    <path fill-rule="evenodd" clip-rule="evenodd" d="M1.837 2.213a.75.75 0 0 0-.423 1.369l6.412 4.387a.75.75 0 0 0 .847 0l6.413-4.387a.75.75 0 0 0-.424-1.37H1.838zM8.25 11.625a4.5 4.5 0 1 1 9 0 4.5 4.5 0 0 1-9 0zm4.735 1.56 1.875-2.624-1.22-.872-1.43 2-.885-.664-.9 1.2 1.5 1.125a.75.75 0 0 0 1.06-.164z" fill="#24B2B2"/>
</svg>
