<svg width="78" height="78" viewBox="0 0 78 78" fill="none" xmlns="http://www.w3.org/2000/svg">
<path fill-rule="evenodd" clip-rule="evenodd" d="M19.5 6.5C14.1152 6.5 9.75 10.8652 9.75 16.25V61.75C9.75 67.1348 14.1152 71.5 19.5 71.5H58.5C63.8848 71.5 68.25 67.1348 68.25 61.75V25.1636C68.25 22.5777 67.2228 20.0978 65.3943 18.2693L56.4807 9.35571C54.6522 7.52723 52.1723 6.5 49.5864 6.5H19.5ZM48.75 13.6731V19.5C48.75 23.0898 51.6601 26 55.25 26H61.0769C62.5246 26 63.2496 24.2496 62.226 23.2259L51.524 12.524C50.5004 11.5003 48.75 12.2254 48.75 13.6731ZM22.75 35.75C22.75 33.9551 24.2051 32.5 26 32.5H52C53.7949 32.5 55.25 33.9551 55.25 35.75C55.25 37.5449 53.7949 39 52 39H26C24.2051 39 22.75 37.5449 22.75 35.75ZM26 45.5C24.2051 45.5 22.75 46.9551 22.75 48.75C22.75 50.5449 24.2051 52 26 52H39C40.7949 52 42.25 50.5449 42.25 48.75C42.25 46.9551 40.7949 45.5 39 45.5H26Z" fill="#D3D3D3"/>
</svg>
