<svg width="40" height="40" viewBox="0 0 40 40" fill="none" xmlns="http://www.w3.org/2000/svg">
<rect width="40" height="40" rx="8" fill="#24B2B2"/>
<path fill-rule="evenodd" clip-rule="evenodd" d="M16.8721 11.633C16.0281 10.789 14.6597 10.789 13.8157 11.633L12.4246 13.0241C10.9911 14.4576 10.5972 16.6299 11.4361 18.4755C13.4687 22.9473 17.0527 26.5313 21.5245 28.564C23.3701 29.4029 25.5424 29.0089 26.9759 27.5755L28.367 26.1843C29.211 25.3403 29.211 23.9719 28.367 23.128L26.4956 21.2565C25.8379 20.5988 24.833 20.4357 24.0009 20.8517L22.9624 21.371C22.4533 21.6255 21.8384 21.5258 21.436 21.1233L18.8767 18.5641C18.4743 18.1616 18.3745 17.5467 18.629 17.0377L19.1483 15.9991C19.5643 15.1671 19.4013 14.1622 18.7435 13.5044L16.8721 11.633Z" fill="white"/>
</svg>
