<svg width="255" height="115" viewBox="0 0 255 115" fill="none" xmlns="http://www.w3.org/2000/svg">
    <path d="M123.04 0c.268.101.534.207.804.303.906.32 1.855.548 2.715.97 3.587 1.765 5.931 4.691 7.06 8.658.218.898.359 1.814.421 2.738.043.417.169.57.567.557.699-.023 1.399.004 2.099-.006.316-.005.457.121.444.46-.015.358-.003.717-.003 1.075l-.001 37.793c-.008.162-.007.325.002.488.046.428-.121.56-.531.558a849.817 849.817 0 0 0-9.004-.001c-.394.002-.531-.151-.526-.529.003-.195-.008-.39-.008-.586l-.001-14.276c0-.937.049-.827-.765-.828-3.515-.002-7.03.008-10.544-.012-.452-.002-.571.131-.569.602.016 4.97.01 9.94.009 14.911 0 .708-.002.709-.689.71-2.923 0-5.847-.01-8.771.009-.457.003-.615-.117-.615-.627.012-13.005.014-26.01.007-39.014 0-.719.001-.723.702-.73a47.63 47.63 0 0 1 1.773.002c.343.01.475-.098.506-.494.372-4.74 2.509-8.355 6.372-10.847a12.836 12.836 0 0 1 3.969-1.628c.138-.063.266-.15.378-.256h4.199zm-7.832 20.549h.001v6.599c0 .714 0 .714.684.714l10.589-.002c.637 0 .636.003.636-.683-.001-4.334-.001-8.668.001-13.002.002-1.042-.139-.947.889-.951 1.353-.006 2.705-.018 4.058.004.422.007.541-.157.519-.574a10.967 10.967 0 0 0-.885-3.77c-1.483-3.46-3.94-5.8-7.421-6.876a11.006 11.006 0 0 0-5.034-.322c-1.68.284-3.279.954-4.682 1.963a11.866 11.866 0 0 0-3.432 3.872 12.487 12.487 0 0 0-1.524 5.038c-.052.658-.024.661.59.662l4.338.002c.67 0 .672.002.673.727v6.599zm-7.045-4.73a.966.966 0 0 0 .216.671.88.88 0 0 0 .602.32c.12.008.241-.009.354-.05a.902.902 0 0 0 .309-.19.96.96 0 0 0 .302-.662.994.994 0 0 0-.247-.637.913.913 0 0 0-.587-.308.866.866 0 0 0-.643.224.953.953 0 0 0-.306.633zm25.89.088a.917.917 0 0 0-.232-.67.851.851 0 0 0-.286-.206.815.815 0 0 0-.341-.07.854.854 0 0 0-.622.28.954.954 0 0 0-.181 1.011.917.917 0 0 0 .483.495.85.85 0 0 0 .339.067.825.825 0 0 0 .607-.263.883.883 0 0 0 .233-.644z" fill="#3093BB"/>
    <path d="M160.207 26.158c-.934.083-1.791.1-2.629.244-3.589.62-6.21 3.502-6.749 7.267-.666 4.663 2.036 8.83 6.264 9.905a7.976 7.976 0 0 0 6.134-.853c1.863-1.102 3.249-2.914 3.87-5.06.273-.965.419-1.966.435-2.973.038-4.4-.012-8.8.002-13.2.006-1.888-.008-3.784.163-5.659.217-2.376 1.029-4.582 2.219-6.622 1.943-3.332 4.595-5.817 8.059-7.304A15.72 15.72 0 0 1 183.636.63c.344-.013.427.112.426.442-.008 2.656-.008 5.313.001 7.97.001.315-.108.417-.399.45-3.429.381-5.835 2.249-7.124 5.586a8.575 8.575 0 0 0-.562 2.942c-.053 5.492-.037 10.984-.02 16.477.011 3.588-.776 6.939-2.643 9.968-2.428 3.938-5.797 6.583-10.153 7.686-4.395 1.113-8.616.506-12.544-1.894a17.172 17.172 0 0 1-5.348-5.17 18.12 18.12 0 0 1-2.768-7.052 18.477 18.477 0 0 1 .329-7.618 17.96 17.96 0 0 1 3.365-6.76c1.678-2.123 3.801-3.653 6.143-4.876 2.188-1.144 4.508-1.502 6.921-1.37l.047.002c.86.04.857.04.862.937.011 2.412.024 4.824.038 7.236v.572z" fill="#196F92"/>
    <path d="M89.608 38.03v14.813c0 .734 0 .74-.718.74-2.8.003-5.599.004-8.398.003-.65 0-.654 0-.654-.672V23.628c.001-1.157.006-1.157-1.115-1.157-2.581 0-5.163-.01-7.744.01-.439.003-.587-.112-.583-.595.022-2.705.022-5.41.001-8.116-.002-.428.113-.556.524-.555 9.16.01 18.32.009 27.48-.004.488 0 .599.186.596.659-.017 2.672-.016 5.345.002 8.018.003.492-.171.594-.6.591-2.706-.017-5.412-.009-8.117-.008-.672 0-.674.001-.674.695V38.03z" fill="#3093BB"/>
    <path d="M169.489 58.257c.001.49-.091.977-.269 1.43a3.758 3.758 0 0 1-.772 1.215 3.568 3.568 0 0 1-1.156.812 3.429 3.429 0 0 1-2.731.003 3.567 3.567 0 0 1-1.158-.81 3.771 3.771 0 0 1-.774-1.212 3.9 3.9 0 0 1-.271-1.43 3.83 3.83 0 0 1 1.048-2.631 3.486 3.486 0 0 1 2.514-1.09 3.484 3.484 0 0 1 2.515 1.084 3.827 3.827 0 0 1 1.054 2.629zM155.172 58.272c.098 1.94-1.514 3.715-3.531 3.72a3.415 3.415 0 0 1-1.359-.286 3.565 3.565 0 0 1-1.151-.81 3.751 3.751 0 0 1-.767-1.21 3.893 3.893 0 0 1 .007-2.85c.18-.452.442-.862.773-1.206a3.545 3.545 0 0 1 1.155-.805 3.409 3.409 0 0 1 1.36-.28c.467-.006.93.087 1.361.273.432.185.824.46 1.152.808.327.348.585.761.757 1.216.172.455.255.94.243 1.43z" fill="#196F92"/>
    <path d="M108.163 15.82a.953.953 0 0 1 .306-.633.866.866 0 0 1 .643-.224.913.913 0 0 1 .587.308c.154.174.242.4.247.637a.985.985 0 0 1-.302.662.873.873 0 0 1-.663.24.882.882 0 0 1-.602-.32.966.966 0 0 1-.216-.67zM134.053 15.907a.883.883 0 0 1-.233.643.827.827 0 0 1-.607.264.88.88 0 0 1-.628-.264.95.95 0 0 1-.265-.652.954.954 0 0 1 .252-.658.876.876 0 0 1 .622-.278.813.813 0 0 1 .341.069.85.85 0 0 1 .286.207.909.909 0 0 1 .232.67z" fill="#3093BB"/>
    <path d="M53.386 109.71a1.89 1.89 0 0 1 .311-.119c.14-.043.285-.064.43-.063.213-.008.425.035.623.125a.504.504 0 0 1 .192.146.605.605 0 0 1 .114.23c.08.334.156.643.228.927a109.875 109.875 0 0 1 .4 1.61c.063.257.124.526.183.807h.05c.066-.47.125-.924.178-1.36l.153-1.285a182.4 182.4 0 0 0 .282-2.542c.212-.144.455-.219.702-.216a.96.96 0 0 1 .563.165c.08.058.144.14.186.238.042.097.06.205.051.313-.004.234-.019.468-.044.7-.03.307-.07.652-.123 1.035a45.086 45.086 0 0 1-.401 2.412c-.076.39-.153.746-.232 1.069-.061.261-.137.518-.228.767-.13.112-.277.192-.435.234-.2.064-.405.097-.613.096-.24.007-.48-.037-.707-.13a.548.548 0 0 1-.217-.138.645.645 0 0 1-.143-.232c-.093-.318-.2-.718-.322-1.2-.122-.481-.249-.999-.38-1.553a36.01 36.01 0 0 1-.168.819 65.744 65.744 0 0 1-.352 1.519c-.056.224-.107.423-.153.597-.121.1-.257.175-.4.222-.19.067-.389.099-.588.096a1.813 1.813 0 0 1-.717-.136.734.734 0 0 1-.42-.364 4.914 4.914 0 0 1-.193-.626c-.07-.273-.142-.586-.218-.938a43.18 43.18 0 0 1-.227-1.138 76.349 76.349 0 0 1-.218-1.217 35.49 35.49 0 0 1-.311-2.246c.106-.098.222-.18.346-.245a.99.99 0 0 1 .485-.119.83.83 0 0 1 .548.176c.076.07.14.157.186.256a.944.944 0 0 1 .086.318c.105.713.193 1.32.262 1.82l.178 1.286c.05.356.092.656.128.898.037.243.071.459.104.649h.05c.066-.311.128-.599.188-.865l.182-.813c.063-.276.129-.572.198-.887.07-.315.144-.681.223-1.098zM61.598 114.966a3.27 3.27 0 0 1-.442.028 1.01 1.01 0 0 1-.69-.18.847.847 0 0 1-.163-.304.891.891 0 0 1-.031-.349v-6.098c.077-.015.187-.033.331-.056a2.77 2.77 0 0 1 .427-.034 1.09 1.09 0 0 1 .684.17c.08.086.141.19.178.306a.842.842 0 0 1 .032.358v1.984h2.264v-2.728c.077-.015.188-.033.332-.056a2.78 2.78 0 0 1 .437-.034c.237-.021.474.043.674.181.08.089.14.195.176.312a.89.89 0 0 1 .034.364v6.075a3.269 3.269 0 0 1-.769.089 1.01 1.01 0 0 1-.69-.18.848.848 0 0 1-.162-.304.893.893 0 0 1-.032-.349v-1.973h-2.264v2.717a2.42 2.42 0 0 1-.326.061zM67.196 114.739a.973.973 0 0 1-.18-.323 1.051 1.051 0 0 1-.051-.377v-5.108a.996.996 0 0 1 .048-.378.91.91 0 0 1 .183-.321.796.796 0 0 1 .286-.207.72.72 0 0 1 .336-.054h3.4c.047.092.085.189.114.289.036.127.053.26.051.393a.898.898 0 0 1-.149.567.534.534 0 0 1-.19.144.479.479 0 0 1-.226.041h-2.281v1.294h2.384c.046.092.084.188.113.289.035.127.053.26.051.393a.895.895 0 0 1-.144.561.532.532 0 0 1-.188.14.478.478 0 0 1-.223.039h-1.993v1.444h2.723c.048.095.085.196.113.301.035.131.052.268.051.405a.85.85 0 0 1-.149.555.535.535 0 0 1-.186.134.488.488 0 0 1-.22.039h-3.051a.771.771 0 0 1-.335-.058.844.844 0 0 1-.287-.202zM77.891 110.326a2.06 2.06 0 0 1-.336 1.157 2.4 2.4 0 0 1-.911.812c.302.4.59.776.867 1.129.219.272.423.556.612.851a.924.924 0 0 1-.37.539c-.173.121-.38.185-.59.184a.972.972 0 0 1-.64-.184 2.018 2.018 0 0 1-.42-.506l-1.06-1.657h-.762v2.236a3.593 3.593 0 0 1-.806.088 1.114 1.114 0 0 1-.722-.177.832.832 0 0 1-.205-.645v-5.396a.486.486 0 0 1 .116-.345.75.75 0 0 1 .337-.188 3.54 3.54 0 0 1 .85-.19 9.47 9.47 0 0 1 1.038-.055c.8-.06 1.596.162 2.252.629a2.131 2.131 0 0 1 .75 1.718zm-2.947.979c.305.014.606-.07.86-.239a.838.838 0 0 0 .332-.729c0-.638-.423-.957-1.27-.957-.106 0-.213.005-.32.017a7.032 7.032 0 0 0-.287.039v1.869h.685zM79.473 114.739a.973.973 0 0 1-.18-.323 1.053 1.053 0 0 1-.052-.377v-5.108a.998.998 0 0 1 .048-.378.912.912 0 0 1 .184-.321.796.796 0 0 1 .285-.207.72.72 0 0 1 .336-.054h3.401c.047.092.085.189.113.289.036.127.053.26.052.393a.898.898 0 0 1-.15.567.534.534 0 0 1-.19.144.478.478 0 0 1-.225.041h-2.281v1.294h2.383c.047.092.085.188.113.289.036.127.053.26.052.393a.895.895 0 0 1-.144.561.532.532 0 0 1-.188.14.477.477 0 0 1-.223.039h-1.993v1.444h2.722a1.518 1.518 0 0 1 .165.706.85.85 0 0 1-.15.555.535.535 0 0 1-.186.134.488.488 0 0 1-.219.039h-3.052a.771.771 0 0 1-.334-.058.844.844 0 0 1-.287-.202zM88.117 114.966a2.1 2.1 0 0 1-.354.028.691.691 0 0 1-.551-.18.932.932 0 0 1-.13-.304 1.104 1.104 0 0 1-.026-.349v-6.098c.061-.015.15-.033.265-.056.113-.022.227-.034.341-.034a.74.74 0 0 1 .548.17.86.86 0 0 1 .142.306c.03.115.038.238.026.358v1.984h1.81v-2.728c.063-.015.151-.033.266-.056.116-.023.233-.034.35-.034.19-.021.379.043.539.181a.915.915 0 0 1 .141.312c.03.117.038.242.027.364v6.075a2.102 2.102 0 0 1-.615.089.691.691 0 0 1-.551-.18.932.932 0 0 1-.13-.304 1.107 1.107 0 0 1-.026-.349v-1.973h-1.81v2.717a1.595 1.595 0 0 1-.262.061zM93.981 114.739a.973.973 0 0 1-.18-.323 1.051 1.051 0 0 1-.051-.377v-5.108a.996.996 0 0 1 .048-.378.912.912 0 0 1 .183-.321.798.798 0 0 1 .286-.207.72.72 0 0 1 .336-.054h3.401c.047.092.084.189.113.289.036.127.053.26.051.393a.898.898 0 0 1-.149.567.534.534 0 0 1-.19.144.479.479 0 0 1-.226.041h-2.28v1.294h2.383c.047.092.084.188.113.289.036.127.053.26.051.393a.896.896 0 0 1-.143.561.532.532 0 0 1-.189.14.478.478 0 0 1-.223.039h-1.993v1.444h2.723c.048.095.086.196.113.301.035.131.053.268.051.405a.85.85 0 0 1-.149.555.535.535 0 0 1-.186.134.488.488 0 0 1-.22.039h-3.051a.771.771 0 0 1-.335-.058.844.844 0 0 1-.287-.202zM103.032 113.388h-1.895a50.397 50.397 0 0 0-.358 1.495 2.937 2.937 0 0 1-.261.078 1.347 1.347 0 0 1-.329.034 1.003 1.003 0 0 1-.643-.174.553.553 0 0 1-.165-.217.65.65 0 0 1-.052-.283c0-.103.012-.206.038-.304.026-.097.055-.209.087-.337.045-.202.11-.454.194-.754a151.66 151.66 0 0 1 .59-2.045c.109-.367.216-.718.319-1.051l.28-.917c.084-.277.155-.498.213-.663a1.63 1.63 0 0 1 .45-.191 2.14 2.14 0 0 1 1.373.051.638.638 0 0 1 .263.174.783.783 0 0 1 .167.292c.122.398.255.859.397 1.383.141.525.285 1.064.43 1.619.145.554.285 1.101.42 1.641.136.54.255 1.023.358 1.45a.728.728 0 0 1-.314.236c-.16.064-.329.095-.498.09a.81.81 0 0 1-.585-.168 1.056 1.056 0 0 1-.247-.529l-.232-.91zm-.938-3.845c-.09.337-.201.721-.333 1.152-.133.431-.257.871-.373 1.321h1.383c-.11-.472-.221-.924-.333-1.354a85.222 85.222 0 0 1-.286-1.119h-.058zM106.268 114.743a.967.967 0 0 1-.242-.688v-5.991c.078-.015.192-.034.339-.056.144-.023.29-.035.436-.035.245-.021.49.039.701.171a.824.824 0 0 1 .215.671v4.74h2.586c.051.094.092.193.124.295.04.129.061.263.059.398a.86.86 0 0 1-.156.563.515.515 0 0 1-.425.188h-2.985a.845.845 0 0 1-.652-.256zM114.121 109.414v5.489a3.536 3.536 0 0 1-.798.092 1.103 1.103 0 0 1-.722-.183.856.856 0 0 1-.208-.665v-4.733h-1.715a1.568 1.568 0 0 1-.126-.298 1.238 1.238 0 0 1-.06-.401.813.813 0 0 1 .164-.567.587.587 0 0 1 .448-.178h4.777c.057.092.101.192.131.298.037.13.055.265.054.401a.823.823 0 0 1-.164.562.562.562 0 0 1-.448.183h-1.333zM118.516 114.966a3.259 3.259 0 0 1-.442.028 1.009 1.009 0 0 1-.689-.18.877.877 0 0 1-.195-.653v-6.098c.077-.015.188-.033.331-.056.142-.022.284-.034.427-.034.239-.021.478.038.684.17a.835.835 0 0 1 .211.664v1.984h2.263v-2.728c.077-.015.188-.033.332-.056.145-.023.291-.034.437-.034.237-.021.474.043.674.181a.879.879 0 0 1 .21.676v6.075a3.27 3.27 0 0 1-.768.089 1.01 1.01 0 0 1-.69-.18.851.851 0 0 1-.163-.304.915.915 0 0 1-.032-.349v-1.973h-2.263v2.717a2.443 2.443 0 0 1-.327.061zM130.2 113.19a.847.847 0 0 1-.303.182 1.186 1.186 0 0 1-.42.068 1.307 1.307 0 0 1-.523-.091.43.43 0 0 1-.171-.121.51.51 0 0 1-.107-.197c-.209-.705-.386-1.291-.533-1.757a21.704 21.704 0 0 1-.347-1.21h-.039c-.019.469-.036.899-.048 1.29-.014.39-.025.771-.035 1.142a151.757 151.757 0 0 1-.083 2.377c-.094.037-.19.065-.288.085-.124.027-.25.041-.377.04a1.003 1.003 0 0 1-.596-.154.556.556 0 0 1-.17-.229.66.66 0 0 1-.045-.299c0-.144.005-.343.015-.597a97.638 97.638 0 0 1 .098-1.939l.068-1.154c.023-.39.044-.777.064-1.16.02-.382.039-.737.058-1.063.089-.117.197-.211.318-.278a1.23 1.23 0 0 1 .67-.154c.249-.014.497.045.722.171.185.126.327.323.401.557.072.205.147.434.225.688a128.052 128.052 0 0 1 .464 1.569l.21.722h.049c.183-.667.365-1.313.547-1.939.182-.625.342-1.15.479-1.575a1.49 1.49 0 0 1 .347-.136c.152-.039.308-.059.464-.057.241-.011.482.039.704.148a.533.533 0 0 1 .202.171.648.648 0 0 1 .111.261c.026.152.055.383.088.694.032.311.065.667.097 1.069a162.61 162.61 0 0 1 .186 2.552c.026.413.049.79.068 1.132.02.341.033.606.039.795a1.12 1.12 0 0 1-.312.154 1.463 1.463 0 0 1-.421.051c-.19.006-.38-.041-.552-.136a.557.557 0 0 1-.189-.227.656.656 0 0 1-.06-.308 79.946 79.946 0 0 1-.093-2.416 100.32 100.32 0 0 0-.053-1.802h-.049c-.079.318-.191.72-.337 1.205-.147.485-.328 1.111-.543 1.876zM134.159 114.739a.974.974 0 0 1-.18-.323 1.043 1.043 0 0 1-.051-.377v-5.108a.984.984 0 0 1 .047-.378.926.926 0 0 1 .184-.322.786.786 0 0 1 .285-.206.72.72 0 0 1 .336-.054h3.401a1.404 1.404 0 0 1 .165.682.903.903 0 0 1-.149.567.53.53 0 0 1-.19.144.478.478 0 0 1-.226.041H135.5v1.294h2.383a1.404 1.404 0 0 1 .165.682.897.897 0 0 1-.144.561.533.533 0 0 1-.188.14.477.477 0 0 1-.223.039H135.5v1.444h2.722a1.556 1.556 0 0 1 .165.706.85.85 0 0 1-.149.555.52.52 0 0 1-.406.173h-3.052a.766.766 0 0 1-.334-.058.838.838 0 0 1-.287-.202zM139.797 114.739a.936.936 0 0 1-.224-.323.859.859 0 0 1-.065-.377v-5.108a.818.818 0 0 1 .06-.378.902.902 0 0 1 .229-.322c.101-.091.223-.161.357-.206.134-.045.277-.063.42-.054h4.251c.059.092.106.189.142.289.045.127.066.26.064.393a.767.767 0 0 1-.186.567.683.683 0 0 1-.237.144.734.734 0 0 1-.283.041h-2.852v1.294h2.98c.058.092.106.188.142.289.044.127.066.26.064.393a.767.767 0 0 1-.18.561.68.68 0 0 1-.235.14.732.732 0 0 1-.279.039h-2.492v1.444h3.404c.06.095.107.196.142.301.044.131.065.268.064.405a.727.727 0 0 1-.187.555.667.667 0 0 1-.233.134.746.746 0 0 1-.274.039h-3.815a1.179 1.179 0 0 1-.418-.058 1.084 1.084 0 0 1-.359-.202zM148.718 109.414v5.489a3.525 3.525 0 0 1-.798.092 1.102 1.102 0 0 1-.721-.183.844.844 0 0 1-.174-.309.892.892 0 0 1-.034-.356v-4.733h-1.716a1.596 1.596 0 0 1-.126-.298 1.295 1.295 0 0 1-.06-.401.819.819 0 0 1 .164-.567.573.573 0 0 1 .448-.178h4.777c.058.092.102.192.131.298.038.13.056.265.055.401a.828.828 0 0 1-.164.562.586.586 0 0 1-.449.183h-1.333zM153.772 113.597c.252.026.505-.045.718-.203a.599.599 0 0 0 .157-.215.685.685 0 0 0 .017-.506.527.527 0 0 0-.126-.189 1.425 1.425 0 0 0-.5-.279l-.485-.175a5.629 5.629 0 0 1-.724-.313 2.135 2.135 0 0 1-.551-.405 1.667 1.667 0 0 1-.357-.559 2.1 2.1 0 0 1-.129-.784c-.009-.281.041-.56.147-.814.105-.254.262-.475.458-.643a2.436 2.436 0 0 1 1.679-.538c.253-.001.506.021.757.066.205.035.405.103.594.203.15.078.283.192.391.334a.762.762 0 0 1 .142.461.874.874 0 0 1-.109.443 1.323 1.323 0 0 1-.252.324 1.869 1.869 0 0 0-.581-.296 2.505 2.505 0 0 0-.79-.121 1.128 1.128 0 0 0-.675.165.451.451 0 0 0-.158.174.53.53 0 0 0-.028.431.378.378 0 0 0 .109.145c.14.101.29.181.448.236l.514.197c.269.104.532.23.785.379.207.12.398.275.566.46.15.167.266.369.343.592.079.243.118.501.114.761.003.29-.05.576-.157.839-.108.257-.268.48-.466.652a2.2 2.2 0 0 1-.762.427c-.339.108-.69.16-1.042.154a3.804 3.804 0 0 1-.809-.082 2.333 2.333 0 0 1-.642-.236 1.263 1.263 0 0 1-.428-.378.863.863 0 0 1-.157-.51.798.798 0 0 1 .147-.493c.093-.127.204-.234.328-.318.196.177.412.321.643.428.276.128.572.191.871.186zM164.032 109.091a.903.903 0 0 1-.106.445.97.97 0 0 1-.249.301 3.065 3.065 0 0 0-.501-.329 1.375 1.375 0 0 0-.643-.143 1.17 1.17 0 0 0-.605.125 1.438 1.438 0 0 0-.505.429 2.665 2.665 0 0 0-.399 1.573c-.018.285.011.572.083.844.072.272.187.523.338.74.154.182.335.323.535.415.199.091.411.131.623.116.222.007.443-.036.653-.125a2.78 2.78 0 0 0 .501-.302c.091.091.165.205.218.334.057.141.085.297.084.455a.922.922 0 0 1-.094.411.762.762 0 0 1-.323.323 2.064 2.064 0 0 1-.479.203 2.554 2.554 0 0 1-.746.093 2.918 2.918 0 0 1-1.109-.208 2.375 2.375 0 0 1-.896-.636 3.018 3.018 0 0 1-.6-1.09 5.086 5.086 0 0 1-.217-1.573 4.856 4.856 0 0 1 .217-1.513c.133-.414.334-.789.591-1.101.249-.296.545-.526.869-.674a2.503 2.503 0 0 1 1.065-.231c.432-.028.863.081 1.251.318.127.07.235.182.314.323.078.141.123.306.13.477zM171.87 111.479c.01.516-.076 1.03-.253 1.514-.149.41-.384.782-.69 1.089a2.916 2.916 0 0 1-1.077.688 3.97 3.97 0 0 1-2.665 0 2.962 2.962 0 0 1-1.059-.675 3.092 3.092 0 0 1-.698-1.102 4.196 4.196 0 0 1-.252-1.514 4.078 4.078 0 0 1 .257-1.508c.158-.413.4-.787.71-1.097a3.005 3.005 0 0 1 1.058-.674 3.68 3.68 0 0 1 1.316-.231c.451-.004.899.074 1.322.231.397.146.76.376 1.064.674.31.31.552.684.709 1.097.18.481.268.993.258 1.508zm-1.741 0a2.457 2.457 0 0 0-.435-1.585 1.57 1.57 0 0 0-1.174-.532 1.565 1.565 0 0 0-1.174.532 2.439 2.439 0 0 0-.44 1.585 2.48 2.48 0 0 0 .434 1.596 1.586 1.586 0 0 0 1.177.532 1.572 1.572 0 0 0 1.177-.532 2.475 2.475 0 0 0 .435-1.596zM177.074 113.19a.847.847 0 0 1-.303.182 1.186 1.186 0 0 1-.42.068 1.31 1.31 0 0 1-.523-.091.43.43 0 0 1-.171-.121.523.523 0 0 1-.107-.197c-.209-.705-.386-1.291-.533-1.757a21.704 21.704 0 0 1-.347-1.21h-.039c-.019.469-.036.899-.048 1.29-.014.39-.025.771-.035 1.142a151.757 151.757 0 0 1-.083 2.377c-.094.037-.19.065-.288.085-.124.027-.25.041-.376.04a1.002 1.002 0 0 1-.596-.154.55.55 0 0 1-.171-.229.66.66 0 0 1-.045-.299c0-.144.006-.343.015-.597a97.638 97.638 0 0 1 .098-1.939 270.721 270.721 0 0 0 .132-2.314c.019-.382.039-.737.058-1.063.089-.117.197-.211.318-.278a1.23 1.23 0 0 1 .67-.154c.249-.014.497.045.722.171.186.126.327.323.401.557.072.205.147.434.225.688a82.891 82.891 0 0 1 .464 1.569l.21.722h.049c.183-.667.365-1.313.547-1.939.182-.625.342-1.15.479-1.575a1.49 1.49 0 0 1 .347-.136c.153-.039.308-.059.464-.057.241-.011.481.039.704.148a.533.533 0 0 1 .202.171.648.648 0 0 1 .111.261c.026.152.055.383.088.694.032.311.065.667.097 1.069a162.61 162.61 0 0 1 .186 2.552c.026.413.048.79.068 1.132.02.341.033.606.039.795a1.12 1.12 0 0 1-.312.154 1.463 1.463 0 0 1-.421.051c-.19.006-.38-.041-.552-.136a.557.557 0 0 1-.189-.227.656.656 0 0 1-.06-.308 79.946 79.946 0 0 1-.093-2.416 100.32 100.32 0 0 0-.053-1.802h-.049c-.079.318-.191.72-.337 1.205-.147.485-.328 1.111-.543 1.876zM186.17 107.971c.06.095.108.195.142.299.045.129.066.264.065.4a.757.757 0 0 1-.187.562.734.734 0 0 1-.522.183h-2.864v1.501h2.928c.057.096.107.195.148.298.05.129.074.265.071.401.019.2-.05.4-.193.555a.753.753 0 0 1-.516.178h-2.412v2.555a3.33 3.33 0 0 1-.4.063c-.179.019-.36.029-.541.028a1.44 1.44 0 0 1-.845-.183.82.82 0 0 1-.199-.309.755.755 0 0 1-.039-.355v-5.225a.789.789 0 0 1 .059-.374.886.886 0 0 1 .23-.319c.102-.09.224-.16.359-.204a1.11 1.11 0 0 1 .422-.054h4.294zM193.075 111.479c.01.516-.076 1.03-.253 1.514-.149.41-.384.782-.69 1.089a2.916 2.916 0 0 1-1.077.688 3.97 3.97 0 0 1-2.665 0 2.962 2.962 0 0 1-1.059-.675 3.092 3.092 0 0 1-.698-1.102 4.219 4.219 0 0 1-.253-1.514 4.099 4.099 0 0 1 .258-1.508c.158-.413.399-.787.71-1.097a3.005 3.005 0 0 1 1.058-.674 3.68 3.68 0 0 1 1.316-.231c.451-.004.899.074 1.322.231.397.146.76.376 1.064.674.31.31.552.684.709 1.097.18.481.268.993.258 1.508zm-1.741 0a2.457 2.457 0 0 0-.435-1.585 1.57 1.57 0 0 0-1.174-.532 1.565 1.565 0 0 0-1.174.532 2.445 2.445 0 0 0-.441 1.585 2.487 2.487 0 0 0 .435 1.596 1.576 1.576 0 0 0 1.821.393c.203-.091.384-.225.533-.393a2.475 2.475 0 0 0 .435-1.596zM199.54 110.326c.006.411-.111.814-.336 1.157-.23.345-.543.625-.911.812.301.4.59.776.866 1.129.219.272.424.556.613.851a.923.923 0 0 1-.37.539 1.02 1.02 0 0 1-.59.184.974.974 0 0 1-.641-.184 2.042 2.042 0 0 1-.419-.506l-1.06-1.657h-.762v2.236a2.633 2.633 0 0 1-.342.061 3.788 3.788 0 0 1-.464.027 1.114 1.114 0 0 1-.723-.177.833.833 0 0 1-.204-.646v-5.395a.48.48 0 0 1 .116-.344.74.74 0 0 1 .337-.189c.274-.098.56-.162.85-.189a9.213 9.213 0 0 1 1.037-.056 3.44 3.44 0 0 1 2.253.629 2.113 2.113 0 0 1 .75 1.718zm-2.947.979c.305.014.606-.07.861-.239a.844.844 0 0 0 .331-.729c0-.638-.423-.957-1.27-.957-.107 0-.214.005-.32.017a7.304 7.304 0 0 0-.287.039v1.869h.685zM202.678 109.414v5.489a2.273 2.273 0 0 1-.639.092.753.753 0 0 1-.577-.183.924.924 0 0 1-.138-.309 1.09 1.09 0 0 1-.028-.356v-4.733h-1.373a1.83 1.83 0 0 1-.1-.298 1.578 1.578 0 0 1-.048-.401.97.97 0 0 1 .131-.567.482.482 0 0 1 .165-.139.373.373 0 0 1 .193-.039h3.822c.046.092.081.192.105.298.03.13.044.265.043.401a.971.971 0 0 1-.131.562.48.48 0 0 1-.164.142.37.37 0 0 1-.194.041h-1.067z" fill="#F8446C"/>
    <path d="M6.546 85.121v10.718a4.174 4.174 0 0 1-.61.123 5.88 5.88 0 0 1-.828.056 1.86 1.86 0 0 1-1.3-.358 1.69 1.69 0 0 1-.313-.602 1.841 1.841 0 0 1-.062-.696v-9.241H.34a3.326 3.326 0 0 1-.226-.582 2.694 2.694 0 0 1-.109-.783 1.699 1.699 0 0 1 .296-1.108c.106-.118.233-.21.372-.27a.956.956 0 0 1 .436-.076h8.61c.103.179.183.375.236.581.067.254.1.518.098.783.028.395-.077.787-.295 1.097-.105.121-.231.216-.37.278a.94.94 0 0 1-.438.08H6.546zM24.137 89.154a8.216 8.216 0 0 1-.493 2.955 5.85 5.85 0 0 1-1.348 2.127 5.703 5.703 0 0 1-2.104 1.343c-1.685.6-3.518.6-5.203 0a5.763 5.763 0 0 1-2.067-1.317 6.043 6.043 0 0 1-1.364-2.153 8.214 8.214 0 0 1-.493-2.955 7.98 7.98 0 0 1 .504-2.945 6.107 6.107 0 0 1 1.384-2.142 5.888 5.888 0 0 1 2.067-1.317 7.19 7.19 0 0 1 2.57-.45 7.274 7.274 0 0 1 2.581.45 5.87 5.87 0 0 1 2.078 1.317 6.107 6.107 0 0 1 1.384 2.142c.352.94.523 1.94.504 2.945zm-3.4 0c0-1.37-.282-2.402-.849-3.095a3.097 3.097 0 0 0-1.038-.767 3.038 3.038 0 0 0-2.508 0c-.395.178-.749.44-1.038.767-.574.693-.861 1.725-.86 3.095 0 1.385.282 2.424.849 3.116.29.327.645.588 1.041.767a3.049 3.049 0 0 0 2.513 0c.396-.179.75-.44 1.041-.767.567-.692.85-1.73.85-3.116zM32.345 85.121v10.718a4.996 4.996 0 0 1-.672.123 7.105 7.105 0 0 1-.91.056 2.198 2.198 0 0 1-1.43-.358 1.644 1.644 0 0 1-.344-.602 1.68 1.68 0 0 1-.068-.696v-9.241h-3.402a3.154 3.154 0 0 1-.25-.582 2.468 2.468 0 0 1-.119-.783 1.585 1.585 0 0 1 .325-1.108 1.145 1.145 0 0 1 .889-.347h9.47c.115.18.202.376.26.582.075.254.111.518.109.783a1.59 1.59 0 0 1-.326 1.097 1.126 1.126 0 0 1-.888.358h-2.644zM44.887 92.88h-4.441a49.42 49.42 0 0 0-.465 1.559c-.144.512-.268.966-.374 1.36-.196.059-.4.11-.611.154-.254.048-.512.07-.77.066a2.734 2.734 0 0 1-1.508-.34 1.126 1.126 0 0 1-.387-.424 1.085 1.085 0 0 1-.122-.553c-.001-.2.03-.4.09-.593.06-.19.128-.41.204-.658.106-.395.257-.885.453-1.47.196-.586.412-1.218.646-1.9a176.616 176.616 0 0 1 1.484-4.148c.242-.65.46-1.247.657-1.788.197-.542.363-.974.499-1.295.332-.17.686-.296 1.053-.374a5.934 5.934 0 0 1 1.416-.175 5.43 5.43 0 0 1 1.802.274c.23.065.44.181.615.34.175.158.31.353.393.57.287.777.596 1.677.93 2.7.331 1.025.667 2.079 1.007 3.161a283.387 283.387 0 0 1 1.824 6.036c-.2.213-.454.372-.736.461-.375.125-.77.185-1.167.176a2.183 2.183 0 0 1-1.37-.329 1.916 1.916 0 0 1-.578-1.032l-.544-1.778zm-2.198-7.506a59.094 59.094 0 0 1-.782 2.25c-.31.841-.6 1.7-.872 2.579h3.24a85.706 85.706 0 0 0-.782-2.645c-.264-.842-.487-1.57-.668-2.184h-.136zM50.782 95.527a1.817 1.817 0 0 1-.492-1.343V82.485c.16-.029.39-.066.689-.11.293-.044.588-.067.885-.067a2.37 2.37 0 0 1 1.42.333 1.57 1.57 0 0 1 .437 1.31v9.256h5.243c.103.183.187.377.252.577.082.25.122.513.12.777.029.393-.084.784-.317 1.1a1.092 1.092 0 0 1-.863.365h-6.052a1.759 1.759 0 0 1-1.322-.5zM69.02 95.962a6.71 6.71 0 0 1-.876.056c-.48.05-.963-.075-1.367-.353a1.654 1.654 0 0 1-.323-.594 1.715 1.715 0 0 1-.063-.682V82.484c.153-.03.372-.066.657-.11.28-.044.563-.066.846-.066.473-.04.947.074 1.356.33.16.168.28.373.352.598.073.225.095.465.066.7v3.873h4.487v-5.325c.153-.03.373-.066.658-.11.287-.044.576-.066.866-.066.47-.04.94.083 1.336.352.158.174.278.382.35.61.072.229.095.471.068.71v11.861a4.74 4.74 0 0 1-.648.121c-.29.038-.583.056-.876.056-.48.05-.963-.075-1.367-.353a1.653 1.653 0 0 1-.323-.594 1.713 1.713 0 0 1-.063-.682v-3.85h-4.488v5.302c-.213.056-.43.096-.647.121zM80.934 95.518a1.873 1.873 0 0 1-.364-.63 1.985 1.985 0 0 1-.104-.735v-9.975c-.017-.251.016-.503.097-.739.08-.235.207-.449.371-.627.164-.177.362-.315.58-.402a1.5 1.5 0 0 1 .68-.105h6.897c.095.178.172.367.229.564.073.248.108.507.104.767.03.396-.078.79-.302 1.106a1.08 1.08 0 0 1-.385.28c-.146.063-.302.09-.459.08h-4.625v2.528h4.834c.094.18.171.368.229.565.072.248.107.507.104.767.03.391-.074.781-.292 1.095-.107.12-.237.214-.38.274a.99.99 0 0 1-.453.075h-4.042v2.822h5.521c.097.185.174.382.23.586.07.256.106.523.104.79.032.39-.077.778-.303 1.084a1.084 1.084 0 0 1-.378.263 1.016 1.016 0 0 1-.445.075h-6.187a1.583 1.583 0 0 1-.679-.113 1.688 1.688 0 0 1-.582-.395zM99.536 92.88h-4.1a52.358 52.358 0 0 0-.428 1.559c-.133.512-.248.966-.345 1.36-.181.059-.37.11-.565.154a3.3 3.3 0 0 1-.711.066 2.366 2.366 0 0 1-1.39-.34 1.099 1.099 0 0 1-.358-.424 1.161 1.161 0 0 1-.113-.553c-.001-.2.027-.4.083-.593.056-.19.119-.41.189-.658.097-.395.236-.885.418-1.47.18-.586.38-1.218.596-1.9a185.568 185.568 0 0 1 1.37-4.148c.223-.65.425-1.247.606-1.788.181-.542.335-.974.46-1.295.307-.17.634-.296.973-.374a5.08 5.08 0 0 1 1.307-.175 4.66 4.66 0 0 1 1.663.274 1.4 1.4 0 0 1 .568.34c.162.158.286.353.363.57.265.777.55 1.677.857 2.7.307 1.025.617 2.079.931 3.161a306.713 306.713 0 0 1 1.684 6.036 1.588 1.588 0 0 1-.68.461 2.958 2.958 0 0 1-1.077.176 1.896 1.896 0 0 1-1.266-.329 1.968 1.968 0 0 1-.533-1.032l-.502-1.778zm-2.029-7.506a62.52 62.52 0 0 1-.721 2.25 54.838 54.838 0 0 0-.805 2.579h2.99a91.422 91.422 0 0 0-.721-2.645c-.244-.842-.45-1.57-.617-2.184h-.126zM106.099 95.527a1.831 1.831 0 0 1-.492-1.343V82.485c.161-.029.39-.066.689-.11.293-.044.588-.067.885-.067a2.37 2.37 0 0 1 1.42.333 1.598 1.598 0 0 1 .437 1.31v9.256h5.243c.103.183.187.377.252.577.082.25.122.513.12.777.029.393-.084.784-.317 1.1a1.094 1.094 0 0 1-.863.365h-6.052a1.764 1.764 0 0 1-1.322-.5zM121.203 85.121v10.718c-.2.056-.405.097-.61.123a5.887 5.887 0 0 1-.828.056 1.86 1.86 0 0 1-1.3-.358 1.684 1.684 0 0 1-.312-.602 1.831 1.831 0 0 1-.062-.696v-9.241h-3.093a3.337 3.337 0 0 1-.227-.582 2.68 2.68 0 0 1-.108-.783 1.691 1.691 0 0 1 .295-1.108c.106-.118.233-.21.372-.27a.954.954 0 0 1 .436-.076h8.609c.105.179.184.375.237.581.067.254.101.518.098.783.028.395-.077.787-.295 1.097a1.06 1.06 0 0 1-.37.278.941.941 0 0 1-.438.08h-2.404zM129.366 95.962c-.29.038-.583.056-.876.056a2.037 2.037 0 0 1-1.367-.353 1.707 1.707 0 0 1-.387-1.276V82.484c.154-.03.373-.066.658-.11.28-.044.563-.066.845-.066a2.2 2.2 0 0 1 1.357.33c.159.168.28.373.352.598.073.225.095.465.066.7v3.873h4.487v-5.325c.153-.03.373-.066.658-.11.287-.044.576-.066.866-.066.47-.04.939.083 1.336.352.158.174.277.382.35.61.072.229.095.471.067.71v11.861a4.74 4.74 0 0 1-.647.121 6.704 6.704 0 0 1-.876.056 2.037 2.037 0 0 1-1.367-.353 1.653 1.653 0 0 1-.324-.594 1.725 1.725 0 0 1-.063-.682v-3.85h-4.487v5.302c-.213.056-.43.096-.648.121zM149.312 93.286a2.575 2.575 0 0 0 1.619-.396 1.2 1.2 0 0 0 .483-.953 1.024 1.024 0 0 0-.376-.824 3.367 3.367 0 0 0-1.125-.546l-1.094-.343c-.556-.169-1.1-.373-1.629-.61a4.87 4.87 0 0 1-1.244-.793 3.285 3.285 0 0 1-.804-1.092 3.673 3.673 0 0 1-.29-1.531 3.404 3.404 0 0 1 1.362-2.848c.908-.7 2.169-1.05 3.784-1.05.571-.003 1.141.04 1.705.129.463.068.914.201 1.34.396.336.152.636.375.879.653.212.251.327.57.322.9.006.307-.08.609-.247.867-.155.239-.346.452-.568.631a4.51 4.51 0 0 0-1.308-.578 6.4 6.4 0 0 0-1.779-.235 2.842 2.842 0 0 0-1.523.321.94.94 0 0 0-.493.814.751.751 0 0 0 .321.653c.315.197.654.352 1.008.46l1.158.386c.608.201 1.199.448 1.769.739a5.36 5.36 0 0 1 1.276.899c.336.327.599.72.771 1.157.179.475.267.98.258 1.488a3.753 3.753 0 0 1-.354 1.638 3.507 3.507 0 0 1-1.05 1.275 5.205 5.205 0 0 1-1.716.835 8.333 8.333 0 0 1-2.348.3 9.69 9.69 0 0 1-1.822-.16 5.736 5.736 0 0 1-1.447-.461 2.788 2.788 0 0 1-.965-.74 1.54 1.54 0 0 1-.354-.995 1.424 1.424 0 0 1 .332-.964c.21-.247.46-.457.74-.62.44.345.928.626 1.448.835a5.03 5.03 0 0 0 1.961.363zM169.973 89.154a8.214 8.214 0 0 1-.493 2.955 5.862 5.862 0 0 1-1.348 2.127 5.71 5.71 0 0 1-2.104 1.343c-1.685.6-3.519.6-5.204 0a5.764 5.764 0 0 1-2.066-1.317 6.033 6.033 0 0 1-1.364-2.153 8.214 8.214 0 0 1-.493-2.955 7.987 7.987 0 0 1 .503-2.945 6.119 6.119 0 0 1 1.385-2.142 5.893 5.893 0 0 1 2.067-1.317 7.186 7.186 0 0 1 2.57-.45 7.271 7.271 0 0 1 2.581.45 5.863 5.863 0 0 1 2.077 1.317 6.09 6.09 0 0 1 1.385 2.142c.352.94.523 1.94.504 2.945zm-3.399 0c0-1.37-.284-2.402-.85-3.095a3.096 3.096 0 0 0-1.038-.767 3.038 3.038 0 0 0-2.509 0c-.394.178-.748.44-1.038.767-.574.693-.86 1.725-.86 3.095 0 1.385.283 2.424.85 3.116.29.327.645.588 1.041.767a3.05 3.05 0 0 0 3.554-.767c.566-.692.85-1.73.85-3.116zM172.479 95.527a1.832 1.832 0 0 1-.491-1.343V82.485c.16-.029.389-.066.688-.11.293-.044.589-.067.885-.067a2.37 2.37 0 0 1 1.42.333 1.57 1.57 0 0 1 .437 1.31v9.256h5.243a3.1 3.1 0 0 1 .252.577c.082.25.123.513.12.777a1.64 1.64 0 0 1-.317 1.1 1.084 1.084 0 0 1-.863.365h-6.052a1.764 1.764 0 0 1-1.322-.5zM188.564 96.028a6.77 6.77 0 0 1-2.316-.369 4.923 4.923 0 0 1-1.73-1.04 4.46 4.46 0 0 1-1.09-1.615 5.64 5.64 0 0 1-.378-2.113v-8.41c.154-.028.374-.064.661-.108.288-.043.578-.065.87-.065.472-.041.946.072 1.352.325.157.168.275.37.346.592.071.22.092.456.063.687v6.914a2.489 2.489 0 0 0 .618 1.81c.211.214.463.38.738.49.276.11.571.161.866.149.299.013.597-.037.877-.146.279-.11.534-.278.749-.493a2.514 2.514 0 0 0 .618-1.81V82.48c.154-.028.374-.064.66-.108.288-.043.579-.065.871-.065.472-.041.946.072 1.352.325.157.168.275.37.346.592.071.22.092.456.063.687v6.979a5.64 5.64 0 0 1-.378 2.113 4.462 4.462 0 0 1-1.09 1.615 4.912 4.912 0 0 1-1.74 1.04 6.87 6.87 0 0 1-2.328.368zM203.325 85.121v10.718a4.98 4.98 0 0 1-.672.123 7.103 7.103 0 0 1-.91.056 2.197 2.197 0 0 1-1.43-.358 1.67 1.67 0 0 1-.412-1.297V85.12h-3.403a3.126 3.126 0 0 1-.249-.582 2.446 2.446 0 0 1-.119-.783 1.585 1.585 0 0 1 .325-1.108c.117-.118.256-.21.409-.27.153-.06.316-.085.479-.076h9.471c.115.179.203.375.26.581.075.254.111.518.109.783.03.395-.086.787-.325 1.097a1.132 1.132 0 0 1-.889.358h-2.644zM210.811 96.018c-.439.05-.88-.075-1.25-.353a1.705 1.705 0 0 1-.295-.594 1.862 1.862 0 0 1-.058-.682V82.484c.14-.029.34-.066.601-.11a4.76 4.76 0 0 1 .792-.066c.431-.042.862.074 1.232.33.142.17.25.376.314.6.065.225.084.464.058.699V95.84a4.01 4.01 0 0 1-.592.121 5.596 5.596 0 0 1-.802.056zM227.301 89.154a8.192 8.192 0 0 1-.493 2.955 5.836 5.836 0 0 1-1.348 2.127 5.698 5.698 0 0 1-2.103 1.343c-1.685.6-3.519.6-5.204 0a5.768 5.768 0 0 1-2.067-1.317 6.061 6.061 0 0 1-1.364-2.153 8.214 8.214 0 0 1-.493-2.955 7.967 7.967 0 0 1 .504-2.945 6.09 6.09 0 0 1 1.385-2.142 5.88 5.88 0 0 1 2.066-1.317 7.195 7.195 0 0 1 2.571-.45 7.275 7.275 0 0 1 2.581.45 5.863 5.863 0 0 1 2.077 1.317 6.119 6.119 0 0 1 1.385 2.142c.351.94.522 1.94.503 2.945zm-3.399 0c0-1.37-.283-2.402-.849-3.095a3.1 3.1 0 0 0-1.039-.767 3.038 3.038 0 0 0-2.508 0c-.395.178-.749.44-1.038.767-.574.693-.861 1.725-.86 3.095 0 1.385.283 2.424.849 3.116.291.327.646.588 1.041.767a3.052 3.052 0 0 0 2.513 0c.396-.179.751-.44 1.042-.767.566-.692.849-1.73.849-3.116zM240.591 95.863a3.724 3.724 0 0 1-1.174.165 3.594 3.594 0 0 1-1.319-.242 2.042 2.042 0 0 1-1.03-1.1l-2.391-4.924c-.233-.469-.45-.938-.649-1.407-.199-.469-.395-.96-.587-1.473l-.145.045c.069.879.11 1.718.124 2.517.014.798.021 1.571.021 2.319v4.089a9.37 9.37 0 0 1-.608.098 6.158 6.158 0 0 1-.835.056 1.92 1.92 0 0 1-1.298-.341 1.574 1.574 0 0 1-.309-.568 1.654 1.654 0 0 1-.062-.652V83.123c.202-.277.479-.48.794-.582a3.22 3.22 0 0 1 1.164-.209c.453-.005.903.077 1.329.242.454.21.818.595 1.02 1.077l2.411 4.946c.234.47.45.938.649 1.407.199.47.395.96.587 1.473l.083-.022a45.022 45.022 0 0 1-.114-2.792c-.006-.88-.01-1.722-.01-2.528v-3.65c.137-.028.34-.065.608-.11.283-.044.569-.066.855-.065a1.92 1.92 0 0 1 1.299.34c.139.164.245.357.309.568.063.21.085.433.061.653v11.563a2.14 2.14 0 0 1-.783.429zM248.883 93.286a2.575 2.575 0 0 0 1.619-.396 1.2 1.2 0 0 0 .482-.953 1.01 1.01 0 0 0-.375-.824 3.366 3.366 0 0 0-1.126-.546l-1.093-.343c-.556-.169-1.1-.373-1.63-.61a4.881 4.881 0 0 1-1.243-.793 3.281 3.281 0 0 1-.804-1.092 3.656 3.656 0 0 1-.289-1.531 3.403 3.403 0 0 1 1.361-2.848c.907-.7 2.169-1.05 3.784-1.05.571-.003 1.141.04 1.705.129.463.068.914.201 1.34.396.336.152.636.375.879.653.212.251.327.57.322.9.006.307-.08.609-.247.867-.155.239-.346.452-.568.631a4.505 4.505 0 0 0-1.308-.578 6.403 6.403 0 0 0-1.78-.235 2.839 2.839 0 0 0-1.522.321.94.94 0 0 0-.493.814.743.743 0 0 0 .322.653c.314.197.652.352 1.007.46l1.158.386c.607.201 1.199.448 1.769.739.467.236.897.538 1.276.899.336.327.6.72.772 1.157.178.475.266.98.257 1.488a3.739 3.739 0 0 1-.354 1.638c-.243.503-.604.94-1.05 1.275a5.201 5.201 0 0 1-1.716.835 8.334 8.334 0 0 1-2.347.3 9.685 9.685 0 0 1-1.823-.16 5.751 5.751 0 0 1-1.448-.461 2.787 2.787 0 0 1-.964-.74 1.54 1.54 0 0 1-.354-.995 1.423 1.423 0 0 1 .332-.964c.21-.247.46-.457.74-.62.44.345.928.626 1.447.834.623.251 1.29.375 1.962.364z" fill="#3093BB"/>
</svg>
