<svg width="237" height="35" viewBox="0 0 237 35" fill="none" xmlns="http://www.w3.org/2000/svg">
    <path d="M29.27 0c.15.056.298.115.448.168.504.179 1.03.305 1.51.54 1.994.981 3.297 2.608 3.925 4.814.12.499.2 1.008.234 1.522.024.232.094.317.315.31.389-.013.778.002 1.167-.004.176-.002.254.068.247.256-.008.2-.001.399-.001.598l-.001 21.013a2.59 2.59 0 0 0 .001.272c.026.237-.068.311-.295.31a472 472 0 0 0-5.007 0c-.219 0-.295-.085-.292-.295.002-.108-.004-.217-.005-.326v-7.937c0-.521.027-.46-.426-.46-1.954-.002-3.908.004-5.862-.007-.251-.001-.317.073-.317.334.01 2.764.006 5.527.006 8.291 0 .393-.001.394-.383.394-1.626 0-3.252-.004-4.877.006-.255.001-.342-.065-.342-.349.006-7.23.008-14.461.003-21.692 0-.4.001-.402.391-.406.329-.004.657-.007.986.001.19.005.264-.054.281-.274.207-2.636 1.395-4.646 3.543-6.032a7.142 7.142 0 0 1 2.207-.905.753.753 0 0 0 .21-.142h2.335zm-4.354 11.425v3.67c0 .397 0 .397.381.397l5.887-.002c.355 0 .354.002.354-.38V7.882c.002-.58-.076-.526.495-.528.752-.003 1.504-.01 2.256.002.235.004.301-.087.289-.32a6.105 6.105 0 0 0-.492-2.096c-.825-1.923-2.19-3.225-4.127-3.823a6.119 6.119 0 0 0-2.798-.179 6.239 6.239 0 0 0-2.604 1.092 6.596 6.596 0 0 0-1.908 2.153 6.936 6.936 0 0 0-.847 2.801c-.029.366-.013.368.328.368l2.412.001c.372 0 .374.001.374.404v3.67zm-3.917-2.629a.537.537 0 0 0 .12.373.49.49 0 0 0 .335.178.484.484 0 0 0 .368-.134.529.529 0 0 0 .169-.368.556.556 0 0 0-.138-.354.509.509 0 0 0-.327-.171.48.48 0 0 0-.357.124.528.528 0 0 0-.17.352zm14.395.049a.516.516 0 0 0-.129-.373.472.472 0 0 0-.349-.153.472.472 0 0 0-.346.155.517.517 0 0 0-.14.365.535.535 0 0 0 .148.363.49.49 0 0 0 .349.147.442.442 0 0 0 .337-.147.485.485 0 0 0 .13-.357z" fill="#3093BB"/>
    <path d="M49.936 14.544c-.52.046-.996.055-1.462.136-1.995.345-3.453 1.947-3.752 4.04-.37 2.593 1.132 4.91 3.483 5.508a4.434 4.434 0 0 0 3.41-.475 4.804 4.804 0 0 0 2.152-2.813 6.445 6.445 0 0 0 .242-1.653c.021-2.447-.007-4.893 0-7.34.004-1.049-.003-2.103.092-3.146.12-1.321.571-2.548 1.233-3.682 1.08-1.852 2.555-3.234 4.481-4.06 1-.431 2.067-.67 3.148-.709.191-.007.237.063.237.246a719.253 719.253 0 0 0 0 4.431c0 .176-.06.233-.221.25-1.907.213-3.245 1.251-3.962 3.106a4.774 4.774 0 0 0-.312 1.636c-.03 3.054-.02 6.108-.011 9.161.006 1.996-.432 3.859-1.47 5.543-1.35 2.19-3.223 3.66-5.645 4.274-2.444.618-4.79.281-6.974-1.054a9.548 9.548 0 0 1-2.974-2.874 10.078 10.078 0 0 1-1.54-3.921 10.272 10.272 0 0 1 .184-4.236 9.985 9.985 0 0 1 1.87-3.759c.934-1.18 2.114-2.03 3.416-2.71 1.217-.636 2.507-.836 3.849-.762h.026c.478.023.476.023.479.522l.02 4.023v.318z" fill="#196F92"/>
    <path d="M10.682 21.145v8.236c0 .408 0 .412-.4.412-1.556.002-3.112.002-4.668.001-.362 0-.364 0-.364-.373V13.138c0-.644.003-.644-.62-.644-1.435 0-2.87-.005-4.306.005-.244.002-.326-.061-.324-.33.012-1.504.012-3.008 0-4.513 0-.238.064-.309.292-.308 5.093.005 10.186.005 15.279-.002.272 0 .333.103.332.366-.01 1.486-.01 2.972 0 4.458.003.273-.094.33-.333.329-1.504-.01-3.009-.005-4.513-.005-.374 0-.375 0-.375.387v8.264z" fill="#3093BB"/>
    <path d="M55.097 32.391c0 .273-.05.544-.15.796-.1.252-.245.482-.429.675a1.979 1.979 0 0 1-.643.452 1.904 1.904 0 0 1-1.518.001 1.98 1.98 0 0 1-.644-.45 2.086 2.086 0 0 1-.43-.674 2.129 2.129 0 0 1 .432-2.258 1.938 1.938 0 0 1 1.397-.606c.524 0 1.027.216 1.399.603.372.387.582.912.586 1.461zM47.137 32.4c.054 1.079-.843 2.066-1.964 2.069-.259-.001-.516-.055-.755-.16a1.972 1.972 0 0 1-.64-.45 2.082 2.082 0 0 1-.427-.673 2.158 2.158 0 0 1 .004-1.585c.1-.25.246-.479.43-.67.184-.192.402-.344.642-.448.24-.103.497-.156.756-.155.26-.003.517.048.757.151s.458.256.64.45c.183.193.326.423.422.676.095.253.141.523.135.795z" fill="#196F92"/>
    <path d="M20.999 8.796a.528.528 0 0 1 .17-.352.48.48 0 0 1 .357-.124.509.509 0 0 1 .327.17.556.556 0 0 1 .137.355.55.55 0 0 1-.168.368.5.5 0 0 1-.368.134.49.49 0 0 1-.335-.178.537.537 0 0 1-.12-.373zM35.394 8.845a.505.505 0 0 1-.13.357.46.46 0 0 1-.525.11.49.49 0 0 1-.27-.276.537.537 0 0 1 .102-.562.491.491 0 0 1 .345-.155.453.453 0 0 1 .349.153.498.498 0 0 1 .13.373zM75.29 24.21c.065-.032.132-.057.2-.077a.939.939 0 0 1 .278-.04.885.885 0 0 1 .4.08c.047.02.09.052.124.094s.06.093.073.148c.052.215.1.414.147.596a82.225 82.225 0 0 1 .258 1.036c.04.166.079.34.117.52h.032c.042-.303.08-.595.115-.875a276.034 276.034 0 0 0 .19-1.636l.09-.827a.785.785 0 0 1 .451-.139.619.619 0 0 1 .363.106c.051.037.093.09.12.153a.432.432 0 0 1 .033.202c-.003.15-.013.3-.029.45-.02.198-.046.42-.08.666a29.018 29.018 0 0 1-.257 1.552 14.5 14.5 0 0 1-.15.688c-.039.168-.088.333-.146.494a.71.71 0 0 1-.28.15 1.268 1.268 0 0 1-.394.062 1.108 1.108 0 0 1-.455-.084.348.348 0 0 1-.14-.088.418.418 0 0 1-.093-.15c-.06-.204-.128-.462-.206-.772-.079-.31-.16-.643-.245-.999a24.268 24.268 0 0 1-.223 1.04 24.123 24.123 0 0 1-.21.849.796.796 0 0 1-.258.142 1.09 1.09 0 0 1-.378.062 1.175 1.175 0 0 1-.461-.087.473.473 0 0 1-.27-.235 3.161 3.161 0 0 1-.125-.402 17.733 17.733 0 0 1-.14-.604 27.827 27.827 0 0 1-.146-.732c-.049-.261-.096-.522-.14-.783a23.074 23.074 0 0 1-.2-1.446c.068-.063.142-.116.222-.157a.634.634 0 0 1 .312-.077.534.534 0 0 1 .353.113c.049.046.09.102.12.165.03.063.049.133.055.205.068.459.124.85.169 1.171l.114.827c.032.23.06.422.083.578.023.157.045.296.066.418h.032a48.61 48.61 0 0 1 .239-1.08c.04-.178.083-.368.127-.571.045-.202.093-.438.143-.706zM80.575 27.592c-.094.013-.19.018-.284.018a.655.655 0 0 1-.444-.116.55.55 0 0 1-.125-.42V23.15c.05-.01.12-.022.213-.036.09-.015.182-.022.274-.022a.705.705 0 0 1 .44.109c.052.055.092.123.115.197.024.074.03.153.021.23v1.277h1.457V23.15c.05-.01.12-.022.213-.036.093-.015.187-.022.281-.022a.66.66 0 0 1 .434.116c.051.057.09.126.114.201a.57.57 0 0 1 .021.234v3.91a2.149 2.149 0 0 1-.495.058.654.654 0 0 1-.443-.117.55.55 0 0 1-.125-.42v-1.27h-1.457v1.748c-.069.019-.14.032-.21.04zM84.177 27.446a.623.623 0 0 1-.115-.208.678.678 0 0 1-.033-.242v-3.288a.645.645 0 0 1 .03-.243.59.59 0 0 1 .118-.207.51.51 0 0 1 .184-.133.46.46 0 0 1 .216-.034h2.19c.03.059.053.121.072.186a.885.885 0 0 1 .033.253c.01.13-.025.26-.096.364a.343.343 0 0 1-.122.093.31.31 0 0 1-.146.026H85.04v.833h1.534a.89.89 0 0 1 .106.439.575.575 0 0 1-.093.36.338.338 0 0 1-.12.091.305.305 0 0 1-.144.025H85.04v.93h1.752a.981.981 0 0 1 .106.454.546.546 0 0 1-.096.357.344.344 0 0 1-.12.086.312.312 0 0 1-.14.025h-1.965a.486.486 0 0 1-.215-.037.535.535 0 0 1-.184-.13zM91.06 24.606c.004.264-.072.524-.217.745-.147.222-.35.402-.586.522.194.258.38.5.558.726.14.176.272.359.394.548a.595.595 0 0 1-.238.347.662.662 0 0 1-.38.118.628.628 0 0 1-.412-.118 1.31 1.31 0 0 1-.27-.325l-.682-1.067h-.49v1.439a2.4 2.4 0 0 1-.519.057.72.72 0 0 1-.465-.114.53.53 0 0 1-.131-.416v-3.471a.311.311 0 0 1 .074-.222c.06-.059.136-.1.217-.122.177-.063.36-.104.547-.122a6.01 6.01 0 0 1 .668-.035 2.215 2.215 0 0 1 1.449.404 1.36 1.36 0 0 1 .483 1.106zm-1.897.63a.925.925 0 0 0 .554-.154.537.537 0 0 0 .213-.469c0-.41-.272-.615-.817-.615-.068 0-.137.003-.206.01a4.698 4.698 0 0 0-.184.025v1.203h.44zM92.077 27.446a.625.625 0 0 1-.115-.208.676.676 0 0 1-.033-.242v-3.288a.645.645 0 0 1 .03-.243.591.591 0 0 1 .118-.207.51.51 0 0 1 .184-.133.462.462 0 0 1 .217-.034h2.188c.03.059.054.121.073.186a.888.888 0 0 1 .033.253c.01.13-.025.26-.096.364a.345.345 0 0 1-.122.093.31.31 0 0 1-.146.026H92.94v.833h1.534c.03.059.055.121.073.186a.887.887 0 0 1 .033.253.576.576 0 0 1-.093.36.338.338 0 0 1-.12.091.306.306 0 0 1-.144.025H92.94v.93h1.752a.988.988 0 0 1 .106.454.546.546 0 0 1-.096.357.344.344 0 0 1-.12.086.312.312 0 0 1-.14.025h-1.964a.486.486 0 0 1-.216-.037.536.536 0 0 1-.185-.13zM97.64 27.592a1.382 1.382 0 0 1-.228.018.448.448 0 0 1-.355-.116.605.605 0 0 1-.084-.195.717.717 0 0 1-.016-.225V23.15c.04-.01.097-.022.17-.036.074-.015.147-.022.22-.022a.479.479 0 0 1 .353.109.558.558 0 0 1 .091.197.674.674 0 0 1 .017.23v1.277h1.165V23.15c.04-.01.097-.022.171-.036.075-.015.15-.022.225-.022a.453.453 0 0 1 .347.116.591.591 0 0 1 .09.201.708.708 0 0 1 .018.234v3.91a1.382 1.382 0 0 1-.396.058.448.448 0 0 1-.354-.117.605.605 0 0 1-.084-.195.714.714 0 0 1-.017-.225v-1.27h-1.165v1.748a1.022 1.022 0 0 1-.168.04zM101.414 27.446a.626.626 0 0 1-.116-.208.683.683 0 0 1-.033-.242v-3.288a.645.645 0 0 1 .031-.243.58.58 0 0 1 .118-.207.51.51 0 0 1 .184-.133.458.458 0 0 1 .216-.034h2.188a.896.896 0 0 1 .106.439.579.579 0 0 1-.096.364.343.343 0 0 1-.122.093.31.31 0 0 1-.146.026h-1.467v.833h1.534a1 1 0 0 1 .072.186.863.863 0 0 1 .033.253.573.573 0 0 1-.092.36.335.335 0 0 1-.121.091.308.308 0 0 1-.144.025h-1.282v.93h1.752a.995.995 0 0 1 .106.454.55.55 0 0 1-.096.357.35.35 0 0 1-.12.086.312.312 0 0 1-.141.025h-1.964a.483.483 0 0 1-.215-.037.534.534 0 0 1-.185-.13zM107.238 26.576h-1.219a33.397 33.397 0 0 0-.231.962c-.054.02-.11.036-.168.05a.88.88 0 0 1-.211.023.648.648 0 0 1-.414-.113.35.35 0 0 1-.106-.139.404.404 0 0 1-.034-.182c0-.067.008-.132.025-.196l.056-.216c.029-.13.07-.293.124-.486a77.285 77.285 0 0 1 .585-1.992l.181-.59c.053-.178.099-.32.137-.427.091-.056.188-.097.289-.122a1.372 1.372 0 0 1 .884.032c.063.021.121.06.169.112a.506.506 0 0 1 .108.188c.078.256.163.553.255.89a112.855 112.855 0 0 1 .777 3.031.472.472 0 0 1-.202.152.805.805 0 0 1-.32.058.524.524 0 0 1-.377-.109.67.67 0 0 1-.158-.34l-.15-.586zm-.603-2.474c-.059.217-.13.464-.215.742-.085.277-.165.56-.24.85h.89c-.07-.304-.142-.595-.214-.872a48.334 48.334 0 0 1-.184-.72h-.037zM109.32 27.448a.607.607 0 0 1-.156-.442V23.15a6.98 6.98 0 0 1 .219-.037 1.85 1.85 0 0 1 .281-.022.726.726 0 0 1 .45.11.54.54 0 0 1 .139.431v3.051h1.664c.033.06.059.124.08.19.026.083.039.17.038.256a.559.559 0 0 1-.101.362.34.34 0 0 1-.273.121h-1.921a.54.54 0 0 1-.42-.165zM114.374 24.02v3.532a2.304 2.304 0 0 1-.514.059.705.705 0 0 1-.464-.118.55.55 0 0 1-.134-.428v-3.046h-1.104a1.087 1.087 0 0 1-.081-.192.806.806 0 0 1-.039-.258.527.527 0 0 1 .106-.365.38.38 0 0 1 .288-.114h3.074a.898.898 0 0 1 .12.45.53.53 0 0 1-.106.361.371.371 0 0 1-.288.118h-.858zM117.202 27.592a2.138 2.138 0 0 1-.284.018.655.655 0 0 1-.444-.116.564.564 0 0 1-.125-.42V23.15c.049-.01.12-.022.213-.036.091-.015.183-.022.275-.022a.705.705 0 0 1 .44.109.53.53 0 0 1 .135.428v1.276h1.457V23.15c.05-.01.121-.022.214-.036.093-.015.186-.022.281-.022a.659.659 0 0 1 .433.116c.052.057.09.126.114.201a.578.578 0 0 1 .022.234v3.91a2.164 2.164 0 0 1-.495.058.656.656 0 0 1-.444-.117.564.564 0 0 1-.125-.42v-1.27h-1.457v1.748a1.54 1.54 0 0 1-.21.04zM124.721 26.45a.549.549 0 0 1-.195.116.783.783 0 0 1-.271.044.84.84 0 0 1-.336-.058.279.279 0 0 1-.11-.078.337.337 0 0 1-.069-.127 72.16 72.16 0 0 0-.343-1.13c-.094-.3-.169-.56-.223-.78h-.025c-.013.302-.023.58-.031.83-.009.252-.016.497-.023.736a69.046 69.046 0 0 1-.053 1.53 1.178 1.178 0 0 1-.428.08.645.645 0 0 1-.383-.1.357.357 0 0 1-.11-.147.432.432 0 0 1-.029-.192 37.337 37.337 0 0 1 .035-.947c.01-.213.023-.441.038-.685l.044-.743c.014-.251.028-.5.04-.746l.038-.684a.657.657 0 0 1 .205-.18.791.791 0 0 1 .431-.098c.16-.01.32.028.465.11a.68.68 0 0 1 .258.358c.046.132.094.28.144.443.051.163.101.33.151.501l.148.508c.048.169.093.324.135.465h.031c.118-.43.235-.845.353-1.247.117-.403.22-.74.308-1.014a.923.923 0 0 1 .223-.087c.098-.026.198-.038.299-.037a.927.927 0 0 1 .453.095c.05.024.095.061.13.11a.425.425 0 0 1 .071.168c.017.098.035.246.056.446.021.2.042.43.063.688a108.98 108.98 0 0 1 .12 1.643l.044.728c.012.22.021.39.025.512a.726.726 0 0 1-.472.132.683.683 0 0 1-.355-.088.364.364 0 0 1-.122-.146.43.43 0 0 1-.038-.198 49.37 49.37 0 0 1-.06-1.555c-.011-.47-.022-.857-.035-1.16h-.031c-.051.205-.123.464-.217.776-.095.312-.211.714-.349 1.207zM127.268 27.446a.66.66 0 0 1-.148-.45v-3.288a.645.645 0 0 1 .03-.243.595.595 0 0 1 .118-.207.51.51 0 0 1 .184-.133.46.46 0 0 1 .216-.034h2.189a.896.896 0 0 1 .106.439.579.579 0 0 1-.096.364.343.343 0 0 1-.122.093.31.31 0 0 1-.146.026h-1.468v.833h1.534a.898.898 0 0 1 .106.44.58.58 0 0 1-.093.36.335.335 0 0 1-.121.09.299.299 0 0 1-.143.025h-1.283v.93h1.752a.936.936 0 0 1 .073.193.95.95 0 0 1 .033.26.543.543 0 0 1-.096.358.341.341 0 0 1-.12.086.312.312 0 0 1-.141.025h-1.964a.487.487 0 0 1-.215-.037.535.535 0 0 1-.185-.13zM130.897 27.446a.597.597 0 0 1-.145-.208.546.546 0 0 1-.041-.242v-3.288a.522.522 0 0 1 .038-.243.563.563 0 0 1 .148-.207.652.652 0 0 1 .229-.133.71.71 0 0 1 .271-.034h2.735a.753.753 0 0 1 .133.439.495.495 0 0 1-.12.364.435.435 0 0 1-.153.093.472.472 0 0 1-.182.026h-1.835v.833h1.918a.947.947 0 0 1 .091.186.73.73 0 0 1 .041.253.488.488 0 0 1-.116.36.461.461 0 0 1-.33.115h-1.604v.93h2.19a.853.853 0 0 1 .133.455.464.464 0 0 1-.12.357.475.475 0 0 1-.326.111h-2.455a.75.75 0 0 1-.27-.037.684.684 0 0 1-.23-.13zM136.637 24.02v3.532a2.282 2.282 0 0 1-.513.059.704.704 0 0 1-.464-.118.556.556 0 0 1-.134-.428v-3.046h-1.105a1.016 1.016 0 0 1-.08-.192.806.806 0 0 1-.039-.258.532.532 0 0 1 .105-.365.38.38 0 0 1 .289-.114h3.074c.037.06.065.124.084.192.024.083.036.17.035.258a.53.53 0 0 1-.105.361.365.365 0 0 1-.289.118h-.858zM139.889 26.71a.661.661 0 0 0 .463-.13.392.392 0 0 0 .101-.138.437.437 0 0 0 .01-.326.324.324 0 0 0-.081-.121.908.908 0 0 0-.321-.18l-.313-.113a3.572 3.572 0 0 1-.465-.2 1.382 1.382 0 0 1-.355-.261 1.08 1.08 0 0 1-.23-.36 1.363 1.363 0 0 1-.083-.504c-.005-.181.027-.361.095-.524.067-.164.169-.306.294-.415.317-.25.698-.371 1.081-.345a2.62 2.62 0 0 1 .487.042c.132.023.261.067.383.13a.75.75 0 0 1 .251.216.492.492 0 0 1 .092.296.56.56 0 0 1-.071.285.856.856 0 0 1-.162.209 1.203 1.203 0 0 0-.373-.19 1.61 1.61 0 0 0-.509-.078.725.725 0 0 0-.435.106.284.284 0 0 0-.101.112.333.333 0 0 0-.039.156.277.277 0 0 0 .021.12c.016.038.04.07.07.095.09.065.187.116.288.151l.331.127c.173.067.342.148.505.243.134.078.256.178.365.297.096.107.171.237.22.38.051.157.076.323.074.49.002.187-.033.371-.101.54-.07.166-.173.31-.301.42a1.41 1.41 0 0 1-.49.275c-.218.07-.444.102-.67.098a2.412 2.412 0 0 1-.521-.052 1.48 1.48 0 0 1-.413-.152.832.832 0 0 1-.276-.243.558.558 0 0 1-.101-.328.522.522 0 0 1 .095-.318.865.865 0 0 1 .212-.204c.125.114.264.207.413.275.178.083.368.123.56.12zM146.492 23.812a.617.617 0 0 1-.228.48 2.025 2.025 0 0 0-.323-.212.874.874 0 0 0-.414-.092.752.752 0 0 0-.389.08.938.938 0 0 0-.325.276 1.721 1.721 0 0 0-.257 1.013c-.011.183.007.368.054.543.046.174.12.336.217.476a1 1 0 0 0 .344.266.824.824 0 0 0 .401.076.99.99 0 0 0 .42-.081c.113-.052.221-.117.323-.195a.663.663 0 0 1 .14.216c.037.09.055.19.054.292a.605.605 0 0 1-.06.265.487.487 0 0 1-.208.208 1.35 1.35 0 0 1-.309.13 1.64 1.64 0 0 1-.479.06 1.883 1.883 0 0 1-.714-.134 1.537 1.537 0 0 1-.577-.409 1.943 1.943 0 0 1-.385-.702 3.24 3.24 0 0 1-.14-1.011 3.087 3.087 0 0 1 .14-.974 2.14 2.14 0 0 1 .379-.709 1.607 1.607 0 0 1 1.245-.582c.278-.018.556.052.806.205a.522.522 0 0 1 .201.207.68.68 0 0 1 .084.308zM151.536 25.348c.006.332-.049.663-.163.974a1.921 1.921 0 0 1-.444.701 1.873 1.873 0 0 1-.693.443 2.555 2.555 0 0 1-1.715 0 1.895 1.895 0 0 1-1.131-1.144 2.713 2.713 0 0 1-.162-.974 2.63 2.63 0 0 1 .166-.97 1.937 1.937 0 0 1 1.137-1.14c.272-.101.558-.151.847-.149a2.4 2.4 0 0 1 .851.149c.255.094.489.242.685.434.199.2.355.44.456.706.116.31.172.639.166.97zm-1.12 0a1.584 1.584 0 0 0-.28-1.02 1.005 1.005 0 0 0-1.511 0c-.21.296-.31.657-.284 1.02-.027.365.072.729.28 1.027a1.01 1.01 0 0 0 1.515 0c.207-.298.306-.662.28-1.027zM154.885 26.45a.549.549 0 0 1-.195.116.783.783 0 0 1-.271.044.84.84 0 0 1-.336-.058.272.272 0 0 1-.11-.078.324.324 0 0 1-.069-.127c-.135-.454-.249-.83-.343-1.13-.094-.3-.169-.56-.223-.78h-.025c-.013.302-.023.58-.032.83-.008.252-.016.497-.022.736-.006.239-.014.48-.022.724-.008.244-.019.513-.031.805a1.159 1.159 0 0 1-.428.08.65.65 0 0 1-.384-.098.354.354 0 0 1-.109-.148.406.406 0 0 1-.029-.192 37.395 37.395 0 0 1 .035-.947c.01-.213.023-.441.037-.685a130.103 130.103 0 0 0 .085-1.49c.013-.245.025-.473.038-.683a.665.665 0 0 1 .204-.18.795.795 0 0 1 .431-.098.849.849 0 0 1 .465.11.67.67 0 0 1 .258.358c.046.132.095.28.145.443.05.163.101.33.151.501l.148.508c.048.169.093.324.135.465h.031c.118-.43.235-.845.352-1.247.118-.403.22-.74.309-1.014a.923.923 0 0 1 .223-.087c.098-.026.198-.038.299-.037a.923.923 0 0 1 .452.095.338.338 0 0 1 .13.11c.036.049.06.106.072.168.016.098.035.246.056.446.021.2.042.43.063.688a108.98 108.98 0 0 1 .12 1.643l.043.728c.013.22.021.39.026.512a.732.732 0 0 1-.472.132.678.678 0 0 1-.355-.088.348.348 0 0 1-.122-.146.43.43 0 0 1-.039-.198 52.377 52.377 0 0 1-.059-1.555c-.011-.47-.022-.857-.035-1.16h-.031c-.051.205-.123.464-.217.776-.095.312-.211.714-.349 1.207zM160.738 23.09a.837.837 0 0 1 .133.45.48.48 0 0 1-.121.362.436.436 0 0 1-.153.092.477.477 0 0 1-.182.026h-1.843v.965h1.884c.037.062.069.126.095.192.032.083.048.17.046.259a.46.46 0 0 1-.125.357.488.488 0 0 1-.331.114h-1.552v1.645a3.156 3.156 0 0 1-.606.059.931.931 0 0 1-.544-.118.532.532 0 0 1-.128-.2.48.48 0 0 1-.025-.228v-3.362a.513.513 0 0 1 .038-.241.571.571 0 0 1 .148-.205.66.66 0 0 1 .231-.132.714.714 0 0 1 .271-.034h2.764zM165.181 25.348c.006.332-.049.663-.162.974a1.935 1.935 0 0 1-.444.701 1.884 1.884 0 0 1-.694.443 2.555 2.555 0 0 1-1.715 0 1.895 1.895 0 0 1-.681-.434 1.986 1.986 0 0 1-.449-.71 2.692 2.692 0 0 1-.163-.974 2.63 2.63 0 0 1 .166-.97c.101-.266.257-.507.457-.706a1.92 1.92 0 0 1 .681-.434c.271-.101.558-.151.847-.149.29-.002.578.048.85.149a1.93 1.93 0 0 1 1.141 1.14c.116.31.173.639.166.97zm-1.12 0a1.584 1.584 0 0 0-.28-1.02 1.015 1.015 0 0 0-.755-.342 1.001 1.001 0 0 0-.756.342c-.209.296-.31.657-.284 1.02-.026.365.073.729.28 1.027a1.023 1.023 0 0 0 .758.342 1.01 1.01 0 0 0 .757-.342c.208-.298.307-.662.28-1.027zM169.342 24.606c.003.265-.072.524-.217.745a1.54 1.54 0 0 1-.586.522c.194.258.38.5.558.726.14.176.272.359.394.548a.596.596 0 0 1-.238.347.661.661 0 0 1-.38.118.627.627 0 0 1-.412-.118 1.314 1.314 0 0 1-.27-.325l-.682-1.067h-.49v1.439a2.39 2.39 0 0 1-.519.057.718.718 0 0 1-.465-.114.537.537 0 0 1-.132-.415v-3.472a.31.31 0 0 1 .075-.222.488.488 0 0 1 .216-.122c.177-.063.361-.104.548-.122.221-.024.444-.036.667-.035a2.216 2.216 0 0 1 1.45.404 1.369 1.369 0 0 1 .483 1.106zm-1.897.63a.925.925 0 0 0 .554-.154.532.532 0 0 0 .213-.469c0-.41-.272-.615-.817-.615-.069 0-.138.003-.206.01a4.955 4.955 0 0 0-.185.025v1.203h.441zM171.361 24.02v3.532a1.457 1.457 0 0 1-.411.059.48.48 0 0 1-.371-.118.59.59 0 0 1-.09-.199.704.704 0 0 1-.017-.23V24.02h-.884a1.057 1.057 0 0 1-.096-.45.632.632 0 0 1 .085-.365.305.305 0 0 1 .106-.089.242.242 0 0 1 .125-.025h2.459a1.057 1.057 0 0 1 .095.45.63.63 0 0 1-.084.361.31.31 0 0 1-.106.092.239.239 0 0 1-.125.026h-.686zM77.467 7.56v6.898a3.767 3.767 0 0 1-.926.115 1.198 1.198 0 0 1-.836-.23 1.09 1.09 0 0 1-.201-.388 1.184 1.184 0 0 1-.04-.447V7.56h-1.99a2.141 2.141 0 0 1-.146-.375 1.738 1.738 0 0 1-.07-.504c-.02-.256.048-.511.19-.712a.686.686 0 0 1 .24-.174.616.616 0 0 1 .28-.05h5.54c.067.116.119.242.152.375.044.163.065.333.064.504.018.254-.05.506-.19.705a.678.678 0 0 1-.238.18.605.605 0 0 1-.282.05h-1.547zM88.787 10.156a5.29 5.29 0 0 1-.318 1.902 3.765 3.765 0 0 1-.867 1.368c-.384.386-.846.681-1.354.865a4.992 4.992 0 0 1-3.348 0 3.71 3.71 0 0 1-1.33-.848 3.89 3.89 0 0 1-.878-1.385 5.287 5.287 0 0 1-.317-1.902 5.135 5.135 0 0 1 .324-1.895 3.93 3.93 0 0 1 .891-1.378c.38-.374.834-.663 1.33-.848a4.626 4.626 0 0 1 1.654-.29 4.681 4.681 0 0 1 1.66.29c.5.184.955.473 1.338.848.39.39.693.86.89 1.378.227.605.337 1.248.325 1.895zm-2.188 0c0-.882-.182-1.546-.546-1.992a1.99 1.99 0 0 0-.668-.493 1.955 1.955 0 0 0-2.283.493c-.369.446-.553 1.11-.553 1.992 0 .891.182 1.56.546 2.005.188.21.416.379.67.494a1.963 1.963 0 0 0 2.288-.494c.364-.445.546-1.114.546-2.005zM94.069 7.56v6.898a3.205 3.205 0 0 1-.433.079c-.194.025-.39.037-.585.036a1.415 1.415 0 0 1-.92-.23 1.058 1.058 0 0 1-.266-.835V7.56h-2.19a2.033 2.033 0 0 1-.16-.375 1.588 1.588 0 0 1-.076-.504 1.02 1.02 0 0 1 .209-.712.758.758 0 0 1 .572-.223h6.094c.074.115.13.241.167.374.048.163.072.333.07.504.02.254-.055.506-.21.705a.744.744 0 0 1-.57.23h-1.702zM102.139 12.554h-2.857c-.107.339-.207.673-.3 1.003-.092.33-.172.622-.24.876a5.05 5.05 0 0 1-.393.099 2.49 2.49 0 0 1-.496.042 1.76 1.76 0 0 1-.97-.219.725.725 0 0 1-.25-.273.699.699 0 0 1-.078-.356c0-.129.02-.257.058-.381.04-.122.083-.264.132-.424.067-.254.165-.57.291-.946.126-.377.265-.784.416-1.222a112.786 112.786 0 0 1 .955-2.67c.155-.418.296-.802.423-1.15.126-.349.233-.627.32-.834.214-.11.442-.19.678-.24a3.81 3.81 0 0 1 .912-.113c.394-.007.786.053 1.159.177a.997.997 0 0 1 .396.218.958.958 0 0 1 .253.368c.184.499.384 1.078.598 1.737a232.57 232.57 0 0 1 1.283 4.096c.204.678.384 1.285.539 1.822a1.115 1.115 0 0 1-.474.297c-.241.08-.495.118-.751.113a1.406 1.406 0 0 1-.882-.212 1.234 1.234 0 0 1-.372-.664l-.35-1.144zm-1.414-4.83c-.136.423-.304.906-.503 1.447a33.794 33.794 0 0 0-.561 1.66h2.085a56.446 56.446 0 0 0-.503-1.702c-.17-.541-.314-1.01-.43-1.406h-.088zM105.933 14.257a1.177 1.177 0 0 1-.316-.864V5.865c.103-.02.25-.043.443-.072.188-.028.378-.042.569-.042.319-.027.638.048.914.214a1.016 1.016 0 0 1 .281.843v5.956h3.374c.067.118.121.243.162.372.053.16.079.33.077.5.019.253-.053.504-.203.707a.707.707 0 0 1-.556.235h-3.894a1.132 1.132 0 0 1-.851-.321zM117.67 14.537a4.33 4.33 0 0 1-.564.036c-.31.032-.62-.048-.88-.227a1.102 1.102 0 0 1-.249-.821V5.864c.099-.019.24-.043.423-.07.181-.029.362-.043.544-.043.305-.027.61.048.873.212a1.042 1.042 0 0 1 .269.836V9.29h2.888V5.864c.098-.019.239-.043.423-.07a3.66 3.66 0 0 1 .557-.043c.303-.027.605.053.86.226a1.086 1.086 0 0 1 .269.85v7.633a3.047 3.047 0 0 1-.417.077 4.319 4.319 0 0 1-.564.036 1.31 1.31 0 0 1-.879-.227 1.102 1.102 0 0 1-.249-.821v-2.478h-2.888v3.413a3.046 3.046 0 0 1-.416.077zM125.336 14.252a1.22 1.22 0 0 1-.234-.406 1.262 1.262 0 0 1-.067-.473v-6.42c-.011-.16.01-.323.062-.474.052-.152.134-.29.239-.404.106-.114.233-.203.373-.259a.964.964 0 0 1 .438-.067h4.438c.061.114.11.236.147.363.047.16.07.326.067.493.019.255-.05.509-.194.712a.689.689 0 0 1-.248.18.647.647 0 0 1-.295.052h-2.976v1.627h3.11c.061.115.11.236.148.363.046.16.069.326.067.494.019.252-.048.502-.188.704a.688.688 0 0 1-.245.177.638.638 0 0 1-.291.048h-2.601v1.816h3.553c.062.119.112.245.147.377.046.165.069.336.067.508.021.251-.049.501-.194.698a.706.706 0 0 1-.244.169.652.652 0 0 1-.286.048h-3.982a1.016 1.016 0 0 1-.436-.072 1.087 1.087 0 0 1-.375-.254zM137.307 12.554h-2.638c-.099.339-.191.673-.276 1.003-.086.33-.16.622-.222.876-.117.037-.238.07-.364.099-.15.03-.304.044-.457.042a1.521 1.521 0 0 1-.895-.219.74.74 0 0 1-.303-.629c-.001-.129.018-.257.054-.381l.121-.424c.062-.254.152-.57.269-.946.116-.377.244-.784.384-1.222a110.947 110.947 0 0 1 .881-2.67c.144-.418.274-.802.39-1.15.117-.349.216-.627.296-.834.198-.11.408-.19.626-.24a3.27 3.27 0 0 1 .842-.113c.363-.007.725.053 1.07.177a.903.903 0 0 1 .365.218.97.97 0 0 1 .234.368c.17.499.354 1.078.551 1.737a224.509 224.509 0 0 1 1.683 5.918c-.119.137-.27.239-.438.297-.223.08-.457.118-.693.113a1.218 1.218 0 0 1-.814-.212 1.264 1.264 0 0 1-.343-.664l-.323-1.144zm-1.306-4.83c-.126.423-.281.906-.464 1.447a34.888 34.888 0 0 0-.518 1.66h1.924a55.993 55.993 0 0 0-.464-1.702 93.612 93.612 0 0 1-.397-1.406h-.081zM141.53 14.257a1.177 1.177 0 0 1-.316-.864V5.865c.103-.02.25-.043.442-.072a3.88 3.88 0 0 1 .57-.042c.319-.027.638.048.914.214a1.016 1.016 0 0 1 .281.843v5.956h3.374c.066.118.121.243.162.372.053.16.079.33.077.5.019.253-.053.504-.204.707a.695.695 0 0 1-.555.235h-3.895a1.13 1.13 0 0 1-.85-.321zM151.25 7.56v6.898c-.13.036-.261.063-.393.079a3.778 3.778 0 0 1-.533.036 1.199 1.199 0 0 1-.837-.23 1.11 1.11 0 0 1-.201-.388 1.183 1.183 0 0 1-.039-.447V7.56h-1.991a2.111 2.111 0 0 1-.146-.375 1.744 1.744 0 0 1-.069-.504c-.02-.256.048-.511.19-.712a.678.678 0 0 1 .239-.174.615.615 0 0 1 .281-.05h5.54c.067.116.118.242.152.375.043.163.065.333.063.504.018.254-.05.506-.19.705a.672.672 0 0 1-.238.18.603.603 0 0 1-.282.05h-1.546zM156.503 14.537a4.34 4.34 0 0 1-.564.036c-.31.032-.62-.048-.88-.227a1.103 1.103 0 0 1-.249-.821V5.864c.099-.019.24-.043.423-.07.181-.029.362-.043.544-.043.305-.027.61.048.873.212a1.042 1.042 0 0 1 .269.836V9.29h2.888V5.864c.098-.019.239-.043.423-.07.185-.03.371-.043.557-.043.303-.027.605.053.86.226a1.086 1.086 0 0 1 .269.85v7.633a3.047 3.047 0 0 1-.417.077 4.319 4.319 0 0 1-.564.036 1.31 1.31 0 0 1-.879-.227 1.058 1.058 0 0 1-.209-.382 1.12 1.12 0 0 1-.04-.439v-2.478h-2.888v3.413a3.031 3.031 0 0 1-.416.077zM169.338 12.815c.366.033.732-.056 1.042-.255a.778.778 0 0 0 .31-.613.66.66 0 0 0-.242-.53 2.166 2.166 0 0 0-.724-.352l-.704-.22a8.788 8.788 0 0 1-1.048-.393 3.13 3.13 0 0 1-.8-.51 2.113 2.113 0 0 1-.518-.703 2.362 2.362 0 0 1-.186-.985 2.183 2.183 0 0 1 .876-1.833c.584-.45 1.396-.675 2.435-.675.367-.003.734.025 1.097.082.298.044.588.13.862.255.217.098.41.241.566.42a.877.877 0 0 1 .208.58c.003.197-.052.391-.159.558-.1.153-.223.29-.366.406a2.909 2.909 0 0 0-.841-.372A4.13 4.13 0 0 0 170 7.523a1.83 1.83 0 0 0-.98.207.614.614 0 0 0-.317.524.485.485 0 0 0 .207.42c.202.127.42.226.649.296l.745.248c.391.13.771.29 1.138.476.3.152.577.347.821.579.217.21.386.463.496.744.116.306.172.63.166.958.005.364-.073.724-.227 1.054a2.265 2.265 0 0 1-.676.82 3.35 3.35 0 0 1-1.104.537c-.492.136-1.001.201-1.511.193a6.24 6.24 0 0 1-1.173-.103 3.695 3.695 0 0 1-.931-.296 1.787 1.787 0 0 1-.621-.476.992.992 0 0 1-.228-.64.912.912 0 0 1 .214-.62 1.85 1.85 0 0 1 .476-.4c.283.222.597.403.931.537.401.162.831.241 1.263.234zM182.633 10.156a5.285 5.285 0 0 1-.317 1.902 3.77 3.77 0 0 1-.868 1.368c-.384.386-.846.681-1.353.865a4.992 4.992 0 0 1-3.349 0 3.71 3.71 0 0 1-1.33-.848 3.883 3.883 0 0 1-.878-1.385 5.285 5.285 0 0 1-.317-1.902 5.141 5.141 0 0 1 .324-1.895c.198-.519.502-.989.891-1.378a3.794 3.794 0 0 1 1.33-.848 4.624 4.624 0 0 1 1.654-.29 4.68 4.68 0 0 1 1.661.29 3.78 3.78 0 0 1 1.337.848c.389.39.693.86.891 1.378.226.605.336 1.248.324 1.895zm-2.187 0c0-.882-.183-1.546-.547-1.992a1.997 1.997 0 0 0-.668-.493 1.954 1.954 0 0 0-1.614 0 2 2 0 0 0-.669.493c-.369.446-.553 1.11-.553 1.992 0 .891.182 1.56.547 2.005.187.21.415.379.67.494a1.96 1.96 0 0 0 1.617 0c.254-.115.483-.283.67-.494.364-.445.547-1.114.547-2.005zM184.246 14.257a1.177 1.177 0 0 1-.316-.864V5.865c.103-.02.25-.043.442-.072a3.88 3.88 0 0 1 .57-.042c.319-.027.638.048.914.214a1.016 1.016 0 0 1 .281.843v5.956h3.374c.066.118.121.243.162.372.053.16.079.33.077.5.019.253-.053.504-.203.707a.707.707 0 0 1-.556.235h-3.894a1.133 1.133 0 0 1-.851-.321zM194.597 14.58a4.355 4.355 0 0 1-1.491-.238 3.17 3.17 0 0 1-1.113-.67 2.87 2.87 0 0 1-.702-1.038 3.625 3.625 0 0 1-.243-1.36V5.862c.099-.018.241-.041.425-.07.186-.027.373-.041.56-.041a1.41 1.41 0 0 1 .87.209 1.01 1.01 0 0 1 .264.823v4.449a1.61 1.61 0 0 0 .397 1.165 1.362 1.362 0 0 0 1.033.411c.192.009.384-.024.564-.094.179-.07.343-.179.482-.317a1.612 1.612 0 0 0 .397-1.165v-5.37c.099-.018.241-.041.425-.07.186-.027.373-.041.56-.041.305-.027.609.046.871.21a1.02 1.02 0 0 1 .263.823v4.49c.007.465-.076.927-.243 1.36a2.873 2.873 0 0 1-.702 1.039c-.325.3-.706.528-1.12.67a4.416 4.416 0 0 1-1.497.236zM204.095 7.56v6.898a3.187 3.187 0 0 1-.432.079 4.55 4.55 0 0 1-.586.036 1.414 1.414 0 0 1-.92-.23 1.076 1.076 0 0 1-.265-.835V7.56h-2.19a2.018 2.018 0 0 1-.16-.375 1.594 1.594 0 0 1-.077-.504 1.021 1.021 0 0 1 .209-.712.763.763 0 0 1 .572-.223h6.095c.074.115.13.241.167.374.048.163.071.333.07.504.02.254-.055.506-.209.705a.725.725 0 0 1-.572.23h-1.702zM208.913 14.573a1.124 1.124 0 0 1-.805-.227 1.098 1.098 0 0 1-.19-.382 1.222 1.222 0 0 1-.037-.439v-7.66c.09-.02.219-.043.387-.072.169-.028.339-.042.51-.042a1.18 1.18 0 0 1 .792.212c.092.11.161.242.203.387.041.144.054.298.036.449v7.66a2.561 2.561 0 0 1-.38.078 3.628 3.628 0 0 1-.516.036zM219.524 10.156a5.285 5.285 0 0 1-.317 1.902 3.77 3.77 0 0 1-.868 1.368 3.66 3.66 0 0 1-1.353.865 4.992 4.992 0 0 1-3.349 0 3.718 3.718 0 0 1-1.33-.848 3.88 3.88 0 0 1-.877-1.385 5.286 5.286 0 0 1-.318-1.902 5.141 5.141 0 0 1 .324-1.895c.198-.519.502-.989.891-1.378a3.794 3.794 0 0 1 1.33-.848 4.63 4.63 0 0 1 1.655-.29 4.675 4.675 0 0 1 1.66.29 3.77 3.77 0 0 1 1.337.848c.39.39.693.86.891 1.378.226.605.336 1.248.324 1.895zm-2.187 0c0-.882-.182-1.546-.547-1.992a1.987 1.987 0 0 0-.668-.493 1.954 1.954 0 0 0-2.282.493c-.369.446-.554 1.11-.554 1.992 0 .891.182 1.56.547 2.005a1.964 1.964 0 0 0 2.957 0c.365-.445.547-1.114.547-2.005zM228.076 14.473c-.245.076-.5.112-.755.106-.29.002-.577-.05-.849-.155a1.311 1.311 0 0 1-.663-.708l-1.538-3.168c-.151-.302-.29-.604-.418-.906a24.361 24.361 0 0 1-.378-.948l-.093.029c.044.566.071 1.105.08 1.62.008.513.013 1.01.013 1.492v2.631c-.089.019-.219.04-.391.064a3.976 3.976 0 0 1-.537.035 1.236 1.236 0 0 1-.836-.22 1.028 1.028 0 0 1-.238-.784V6.275a1.02 1.02 0 0 1 .51-.374c.241-.091.494-.137.749-.135.292-.003.582.05.856.156.292.135.526.383.656.693l1.552 3.183c.15.302.289.604.417.905.128.302.254.618.378.948l.053-.014a29.675 29.675 0 0 1-.073-1.797 230.44 230.44 0 0 1-.006-1.627V5.865c.088-.019.218-.042.391-.07a3.4 3.4 0 0 1 .55-.043c.294-.03.589.047.836.22a1.028 1.028 0 0 1 .238.784v7.441c-.148.128-.32.221-.504.276zM233.412 12.815c.366.033.733-.056 1.042-.255a.758.758 0 0 0 .227-.27.759.759 0 0 0 .083-.343.645.645 0 0 0-.241-.53 2.166 2.166 0 0 0-.725-.352l-.703-.22a8.738 8.738 0 0 1-1.049-.393 3.13 3.13 0 0 1-.8-.51 2.094 2.094 0 0 1-.517-.703 2.362 2.362 0 0 1-.187-.985 2.195 2.195 0 0 1 .877-1.833c.583-.45 1.395-.675 2.435-.675a6.77 6.77 0 0 1 1.097.082c.298.044.588.13.862.255.216.098.409.242.566.42.136.162.21.368.207.58a.994.994 0 0 1-.159.558c-.1.153-.223.29-.365.406a2.912 2.912 0 0 0-.842-.372 4.123 4.123 0 0 0-1.145-.152 1.828 1.828 0 0 0-.98.207.61.61 0 0 0-.318.524.486.486 0 0 0 .208.42c.202.127.42.226.648.296l.745.248c.391.13.771.29 1.138.476.301.152.577.347.821.579.217.21.386.463.497.744.115.306.171.63.166.958.004.364-.073.724-.228 1.054a2.263 2.263 0 0 1-.676.82 3.349 3.349 0 0 1-1.104.537c-.492.136-1.001.201-1.511.193a6.24 6.24 0 0 1-1.173-.103 3.703 3.703 0 0 1-.931-.296 1.807 1.807 0 0 1-.621-.476.998.998 0 0 1-.228-.64.922.922 0 0 1 .214-.62c.135-.16.296-.295.476-.4.284.222.597.403.932.537.401.162.83.241 1.262.234z" fill="#3093BB"/>
</svg>
