<svg width="96" height="96" viewBox="0 0 96 96" fill="none" xmlns="http://www.w3.org/2000/svg">
    <circle cx="48" cy="48" r="48" fill="#F8FBFF"/>
    <mask id="4t4zguqata" style="mask-type:alpha" maskUnits="userSpaceOnUse" x="0" y="0" width="96" height="96">
        <circle cx="48" cy="48" r="48" fill="#F8FBFF"/>
    </mask>
    <g clip-path="url(#4r375ezgob)" fill-rule="evenodd" clip-rule="evenodd" fill="#3093BB">
        <path d="M40.442 35.77c1.47-5.486 6.923-8.79 12.18-7.382 5.256 1.408 8.326 6.997 6.856 12.482l-2.46 9.18c-.267.998-1.258 1.599-2.214 1.343L39.23 47.218c-.956-.256-1.514-1.272-1.247-2.27l2.46-9.18zM51.654 32c-3.346-.897-6.816 1.206-7.751 4.697l-1.976 7.374 12.114 3.246 1.976-7.374c.936-3.49-1.018-7.047-4.363-7.943z"/>
        <path d="M35.522 54.13c-1.47 5.485 1.6 11.073 6.857 12.482 5.257 1.409 10.71-1.896 12.18-7.382l2.46-9.18c.267-.997-.291-2.013-1.247-2.27l-15.576-4.173c-.955-.256-1.947.345-2.214 1.343l-2.46 9.18zM43.347 63c-3.345-.896-5.299-4.453-4.364-7.943l1.976-7.374 12.115 3.246-1.976 7.374c-.936 3.49-4.406 5.594-7.751 4.697zM51.781 38.445c.226-.842-.26-1.844-1.287-2.119l.968-3.612c2.797.75 4.58 3.678 3.78 6.659l-3.46-.928z"/>
    </g>
    <defs>
        <clipPath id="4r375ezgob">
            <path fill="#fff" transform="rotate(15 -64.245 133.246)" d="M0 0h43v43H0z"/>
        </clipPath>
    </defs>
</svg>
