<svg width="20" height="20" viewBox="0 0 20 21" fill="none" xmlns="http://www.w3.org/2000/svg">
<path fill-rule="evenodd" clip-rule="evenodd" d="M1.6665 6.83366C1.6665 4.53247 3.53198 2.66699 5.83317 2.66699H14.1665C16.4677 2.66699 18.3332 4.53247 18.3332 6.83366V15.167C18.3332 17.4682 16.4677 19.3337 14.1665 19.3337H5.83317C3.53198 19.3337 1.6665 17.4682 1.6665 15.167V6.83366ZM5.83317 4.33366C4.45246 4.33366 3.33317 5.45295 3.33317 6.83366V15.167C3.33317 16.5477 4.45246 17.667 5.83317 17.667H14.1665C15.5472 17.667 16.6665 16.5477 16.6665 15.167V6.83366C16.6665 5.45295 15.5472 4.33366 14.1665 4.33366H5.83317Z" fill="#c4c4c4"/>
</svg>
