<svg width="24" height="24" viewBox="0 0 24 24" fill="none" xmlns="http://www.w3.org/2000/svg">
    <g clip-path="url(#9k2czdmd6a)">
        <g clip-path="url(#ofv9xpxhdb)">
            <path d="M12 0C5.426 0 0 5.426 0 12c0 2.504.73 4.8 2.087 6.783L.73 22.853c-.104.208 0 .417.105.52.208.105.417.21.626.105l4.174-1.356C7.513 23.374 9.809 24 12 24c6.574 0 12-5.426 12-12S18.574 0 12 0zm7.2 16.904c-.313.94-1.565 1.774-2.609 1.983-.208 0-.417.104-.73.104-.835 0-1.878-.313-3.548-.939-2.087-.835-4.174-2.713-5.843-5.113l-.105-.104C5.74 12 4.8 10.539 4.8 8.974c0-1.774.94-2.713 1.252-3.13.418-.418.94-.627 1.565-.627h.418c.522 0 .835.21 1.148.835l.208.418c.313.73.73 1.878.835 2.087.209.417.209.73 0 1.043-.104.209-.209.417-.417.626-.105.104-.209.209-.209.313l-.313.313v.104c.313.522.94 1.461 1.774 2.192 1.148 1.043 1.982 1.356 2.4 1.565h.104c.105 0 .209.104.209 0 .209-.209.417-.626.73-.94l.105-.103c.313-.418.73-.522.939-.522.104 0 .313 0 .417.104.105 0 .313.104 2.296 1.148l.209.104c.313.105.521.209.626.522.417.209.313 1.148.104 1.878z" fill="#24B2B2"/>
        </g>
    </g>
    <defs>
        <clipPath id="9k2czdmd6a">
            <path fill="#fff" d="M0 0h24v24H0z"/>
        </clipPath>
        <clipPath id="ofv9xpxhdb">
            <path fill="#fff" d="M0 0h24v24H0z"/>
        </clipPath>
    </defs>
</svg>
