<svg width="18" height="18" viewBox="0 0 18 18" fill="none" xmlns="http://www.w3.org/2000/svg">
    <path fill-rule="evenodd" clip-rule="evenodd" d="M3.455 4.47a2.25 2.25 0 0 0-.227 2.915l2.352 3.228a8.25 8.25 0 0 0 1.808 1.808l3.227 2.352a2.25 2.25 0 0 0 2.916-.228l2.022-2.021a1.5 1.5 0 0 0-.15-2.254l-1.78-1.358a1.5 1.5 0 0 0-1.971.132l-.07.071a.75.75 0 0 1-.954.089l-.04-.027a6.75 6.75 0 0 1-1.765-1.766l-.027-.038a.75.75 0 0 1 .09-.954l.07-.07a1.5 1.5 0 0 0 .132-1.971L7.73 2.598a1.5 1.5 0 0 0-2.253-.15L3.455 4.468zM12.75 6.375v-3.75h1.5v3.75h-1.5z" fill="#24B2B2"/>
    <path fill-rule="evenodd" clip-rule="evenodd" d="M15.375 5.25h-3.75v-1.5h3.75v1.5z" fill="#24B2B2"/>
</svg>
