<svg width="255" height="115" viewBox="0 0 255 115" fill="none" xmlns="http://www.w3.org/2000/svg">
<g clip-path="url(#clip0_434_14120)">
<path d="M123.04 0C123.308 0.101 123.574 0.207 123.844 0.303C124.75 0.623 125.699 0.851 126.559 1.273C130.146 3.038 132.49 5.964 133.619 9.931C133.837 10.829 133.978 11.745 134.04 12.669C134.083 13.086 134.209 13.239 134.607 13.226C135.306 13.203 136.006 13.23 136.706 13.22C137.022 13.215 137.163 13.341 137.15 13.68C137.135 14.038 137.147 14.397 137.147 14.755L137.146 52.548C137.138 52.71 137.139 52.873 137.148 53.036C137.194 53.464 137.027 53.596 136.617 53.594C133.615 53.5778 130.614 53.5774 127.613 53.593C127.219 53.595 127.082 53.442 127.087 53.064C127.09 52.869 127.079 52.674 127.079 52.478L127.078 38.202C127.078 37.265 127.127 37.375 126.313 37.374C122.798 37.372 119.283 37.382 115.769 37.362C115.317 37.36 115.198 37.493 115.2 37.964C115.216 42.934 115.21 47.904 115.209 52.875C115.209 53.583 115.207 53.584 114.52 53.585C111.597 53.585 108.673 53.575 105.749 53.594C105.292 53.597 105.134 53.477 105.134 52.967C105.146 39.962 105.148 26.957 105.141 13.953C105.141 13.234 105.142 13.23 105.843 13.223C106.434 13.2127 107.025 13.2133 107.616 13.225C107.959 13.235 108.091 13.127 108.122 12.731C108.494 7.991 110.631 4.376 114.494 1.884C115.716 1.12253 117.058 0.57218 118.463 0.256C118.601 0.193 118.729 0.106 118.841 0L123.04 0ZM115.208 20.549L115.209 27.148C115.209 27.862 115.209 27.862 115.893 27.862L126.482 27.86C127.119 27.86 127.118 27.863 127.118 27.177C127.117 22.843 127.117 18.509 127.119 14.175C127.121 13.133 126.98 13.228 128.008 13.224C129.361 13.218 130.713 13.206 132.066 13.228C132.488 13.235 132.607 13.071 132.585 12.654C132.516 11.3548 132.216 10.0782 131.7 8.884C130.217 5.424 127.76 3.084 124.279 2.008C122.648 1.5124 120.925 1.40217 119.245 1.686C117.565 1.97 115.966 2.64 114.563 3.649C113.148 4.6715 111.976 5.99359 111.131 7.521C110.271 9.07298 109.751 10.7905 109.607 12.559C109.555 13.217 109.583 13.22 110.197 13.221L114.535 13.223C115.205 13.223 115.207 13.225 115.208 13.95V20.549ZM108.163 15.819C108.148 16.0619 108.225 16.3015 108.379 16.49C108.453 16.5807 108.544 16.6557 108.648 16.7107C108.751 16.7656 108.864 16.7994 108.981 16.81C109.101 16.818 109.222 16.801 109.335 16.76C109.45 16.7182 109.555 16.6536 109.644 16.57C109.827 16.3975 109.936 16.1597 109.946 15.908C109.941 15.6732 109.854 15.4475 109.699 15.271C109.549 15.0984 109.339 14.9885 109.112 14.963C108.995 14.955 108.878 14.9707 108.767 15.0092C108.657 15.0477 108.555 15.1082 108.469 15.187C108.29 15.3513 108.18 15.5767 108.163 15.819ZM134.053 15.907C134.061 15.7855 134.044 15.6637 134.004 15.5487C133.964 15.4336 133.902 15.3277 133.821 15.237C133.741 15.1491 133.643 15.079 133.535 15.031C133.427 14.9834 133.311 14.9595 133.194 14.961C133.076 14.9624 132.961 14.988 132.854 15.0362C132.747 15.0844 132.651 15.1541 132.572 15.241C132.448 15.3747 132.366 15.5409 132.334 15.7201C132.302 15.8992 132.321 16.0838 132.391 16.252C132.481 16.4737 132.654 16.6514 132.874 16.747C132.981 16.7923 133.096 16.8151 133.213 16.814C133.327 16.8144 133.439 16.7913 133.544 16.746C133.648 16.7007 133.742 16.6343 133.82 16.551C133.9 16.4646 133.961 16.3631 134.001 16.2525C134.041 16.1419 134.059 16.0245 134.053 15.907Z" fill="#3093BB"/>
<path d="M160.207 26.1579C159.273 26.2409 158.416 26.2579 157.578 26.4019C153.989 27.0219 151.368 29.9039 150.829 33.6689C150.163 38.3319 152.865 42.4989 157.093 43.5739C158.121 43.8479 159.193 43.9136 160.246 43.7671C161.3 43.6206 162.313 43.2649 163.227 42.7209C165.09 41.6189 166.476 39.8069 167.097 37.6609C167.37 36.6959 167.516 35.6949 167.532 34.6879C167.57 30.2879 167.52 25.8879 167.534 21.4879C167.54 19.5999 167.526 17.7039 167.697 15.8289C167.914 13.4529 168.726 11.2469 169.916 9.20694C171.859 5.87494 174.511 3.38994 177.975 1.90294C179.767 1.13101 181.686 0.699328 183.636 0.62994C183.98 0.61694 184.063 0.74194 184.062 1.07194C184.054 3.72794 184.054 6.38494 184.063 9.04194C184.064 9.35694 183.955 9.45894 183.664 9.49194C180.235 9.87294 177.829 11.7409 176.54 15.0779C176.181 16.018 175.991 17.0139 175.978 18.0199C175.925 23.5119 175.941 29.0039 175.958 34.4969C175.969 38.0849 175.182 41.4359 173.315 44.4649C170.887 48.4029 167.518 51.0479 163.162 52.1509C158.767 53.2639 154.546 52.6569 150.618 50.2569C148.479 48.945 146.653 47.1803 145.27 45.0869C143.861 42.9576 142.917 40.5544 142.502 38.0349C142.081 35.5004 142.193 32.9058 142.831 30.4169C143.461 27.9506 144.608 25.6463 146.196 23.6569C147.874 21.5339 149.997 20.0039 152.339 18.7809C154.527 17.6369 156.847 17.2789 159.26 17.4109L159.307 17.4129C160.167 17.4529 160.164 17.4529 160.169 18.3499C160.18 20.7619 160.193 23.1739 160.207 25.5859V26.1579Z" fill="#196F92"/>
<path d="M89.6076 38.0301V52.8431C89.6076 53.5771 89.6076 53.5831 88.8896 53.5831C86.0896 53.5861 83.2906 53.5871 80.4916 53.5861C79.8416 53.5861 79.8376 53.5861 79.8376 52.9141V23.6281C79.8386 22.4711 79.8436 22.4711 78.7226 22.4711C76.1416 22.4711 73.5596 22.4611 70.9786 22.4811C70.5396 22.4841 70.3916 22.3691 70.3956 21.8861C70.4176 19.1811 70.4176 16.4761 70.3966 13.7701C70.3946 13.3421 70.5096 13.2141 70.9206 13.2151C80.0806 13.2251 89.2406 13.2241 98.4006 13.2111C98.8886 13.2111 98.9996 13.3971 98.9966 13.8701C98.9796 16.5421 98.9806 19.2151 98.9986 21.8881C99.0016 22.3801 98.8276 22.4821 98.3986 22.4791C95.6926 22.4621 92.9866 22.4701 90.2816 22.4711C89.6096 22.4711 89.6076 22.4721 89.6076 23.1661V38.0301Z" fill="#3093BB"/>
<path d="M169.489 58.2569C169.49 58.7469 169.398 59.2339 169.22 59.6869C169.044 60.1379 168.782 60.5505 168.448 60.9019C168.121 61.247 167.728 61.523 167.292 61.7139C166.862 61.9015 166.397 61.9985 165.927 61.9991C165.457 61.9996 164.992 61.9036 164.561 61.7169C164.125 61.5269 163.731 61.2515 163.403 60.9069C163.07 60.5563 162.807 60.1449 162.629 59.6949C162.45 59.2395 162.358 58.7544 162.358 58.2649C162.359 57.2863 162.734 56.3448 163.406 55.6339C163.73 55.2919 164.12 55.0189 164.552 54.8316C164.984 54.6442 165.449 54.5464 165.92 54.5439C166.391 54.5454 166.857 54.6422 167.289 54.8285C167.721 55.0148 168.111 55.2867 168.435 55.6279C169.11 56.3372 169.487 57.2781 169.489 58.2569ZM155.172 58.2719C155.27 60.2119 153.658 61.9869 151.641 61.9919C151.174 61.9907 150.711 61.8934 150.282 61.7059C149.849 61.5151 149.457 61.2398 149.131 60.8959C148.8 60.5456 148.54 60.1348 148.364 59.6859C148.006 58.7692 148.009 57.7509 148.371 56.8359C148.551 56.3839 148.813 55.9739 149.144 55.6299C149.472 55.2871 149.864 55.0134 150.299 54.8249C150.729 54.6393 151.192 54.544 151.659 54.5449C152.126 54.5389 152.589 54.6319 153.02 54.8179C153.452 55.0029 153.844 55.2779 154.172 55.6259C154.499 55.9739 154.757 56.3869 154.929 56.8419C155.101 57.2969 155.184 57.7819 155.172 58.2719Z" fill="#196F92"/>
<path d="M108.163 15.82C108.181 15.5777 108.29 15.3513 108.469 15.187C108.555 15.1081 108.657 15.0476 108.767 15.0091C108.878 14.9706 108.995 14.9549 109.112 14.963C109.339 14.9885 109.549 15.0984 109.699 15.271C109.853 15.445 109.941 15.671 109.946 15.908C109.933 16.1591 109.825 16.396 109.644 16.57C109.556 16.6539 109.452 16.7186 109.338 16.7599C109.224 16.8012 109.102 16.8183 108.981 16.81C108.864 16.7993 108.751 16.7654 108.648 16.7105C108.544 16.6556 108.453 16.5806 108.379 16.49C108.225 16.3018 108.148 16.0625 108.163 15.82ZM134.053 15.907C134.059 16.0243 134.041 16.1416 134.001 16.252C133.961 16.3624 133.9 16.4637 133.82 16.55C133.742 16.6334 133.648 16.6999 133.544 16.7454C133.44 16.7908 133.327 16.8142 133.213 16.814C133.096 16.8139 132.98 16.7905 132.872 16.7452C132.765 16.6999 132.667 16.6335 132.585 16.55C132.416 16.3746 132.322 16.1412 132.32 15.898C132.317 15.6545 132.407 15.4191 132.572 15.24C132.652 15.1545 132.748 15.0858 132.855 15.038C132.962 14.9903 133.077 14.9644 133.194 14.962C133.311 14.9601 133.428 14.9837 133.535 15.031C133.644 15.0792 133.741 15.1497 133.821 15.238C133.903 15.3284 133.965 15.4343 134.005 15.5494C134.045 15.6645 134.061 15.7865 134.053 15.908V15.907Z" fill="#3093BB"/>
<path d="M52.5981 115C52.1654 115 51.9491 114.784 51.9491 114.351V107.949C51.9491 107.516 52.1654 107.3 52.5981 107.3H54.4241C55.1941 107.3 55.8578 107.443 56.4151 107.729C56.9798 108.015 57.4124 108.444 57.7131 109.016C58.0211 109.588 58.1751 110.299 58.1751 111.15C58.1751 111.993 58.0211 112.701 57.7131 113.273C57.4124 113.845 56.9798 114.278 56.4151 114.571C55.8578 114.857 55.1941 115 54.4241 115H52.5981ZM53.2141 113.823H54.3251C55.1171 113.823 55.7331 113.596 56.1731 113.141C56.6204 112.679 56.8441 112.015 56.8441 111.15C56.8441 110.277 56.6204 109.614 56.1731 109.159C55.7331 108.704 55.1171 108.477 54.3251 108.477H53.2141V113.823ZM62.4686 115.176C61.772 115.176 61.1486 115.011 60.5986 114.681C60.056 114.351 59.6306 113.885 59.3226 113.284C59.0146 112.675 58.8606 111.964 58.8606 111.15C58.8606 110.329 59.0146 109.617 59.3226 109.016C59.6306 108.407 60.056 107.938 60.5986 107.608C61.1486 107.271 61.772 107.102 62.4686 107.102C63.1653 107.102 63.7813 107.271 64.3166 107.608C64.8593 107.938 65.2846 108.407 65.5926 109.016C65.908 109.617 66.0656 110.329 66.0656 111.15C66.0656 111.964 65.908 112.675 65.5926 113.284C65.2846 113.885 64.8593 114.351 64.3166 114.681C63.7813 115.011 63.1653 115.176 62.4686 115.176ZM62.4686 113.944C62.9306 113.944 63.3303 113.83 63.6676 113.603C64.005 113.368 64.2653 113.042 64.4486 112.624C64.6393 112.199 64.7346 111.707 64.7346 111.15C64.7346 110.585 64.6393 110.094 64.4486 109.676C64.2653 109.251 64.005 108.924 63.6676 108.697C63.3303 108.462 62.9306 108.345 62.4686 108.345C62.014 108.345 61.6143 108.462 61.2696 108.697C60.925 108.924 60.6573 109.251 60.4666 109.676C60.2833 110.094 60.1916 110.585 60.1916 111.15C60.1916 111.707 60.2833 112.199 60.4666 112.624C60.6573 113.042 60.925 113.368 61.2696 113.603C61.6143 113.83 62.014 113.944 62.4686 113.944ZM70.356 115.176C69.6593 115.176 69.036 115.011 68.486 114.681C67.9433 114.351 67.518 113.885 67.21 113.284C66.902 112.675 66.748 111.964 66.748 111.15C66.748 110.329 66.902 109.617 67.21 109.016C67.518 108.407 67.9433 107.938 68.486 107.608C69.036 107.271 69.6593 107.102 70.356 107.102C70.8766 107.102 71.3533 107.197 71.786 107.388C72.226 107.579 72.6073 107.846 72.93 108.191C73.0766 108.352 73.1243 108.517 73.073 108.686C73.0216 108.847 72.9226 108.972 72.776 109.06L72.721 109.093C72.6256 109.152 72.49 109.174 72.314 109.159C72.138 109.144 71.9766 109.067 71.83 108.928C71.6393 108.737 71.4193 108.594 71.17 108.499C70.928 108.396 70.6566 108.345 70.356 108.345C69.9013 108.345 69.5016 108.462 69.157 108.697C68.8123 108.924 68.5446 109.251 68.354 109.676C68.1706 110.094 68.079 110.585 68.079 111.15C68.079 111.707 68.1706 112.199 68.354 112.624C68.5446 113.042 68.8123 113.368 69.157 113.603C69.5016 113.83 69.9013 113.944 70.356 113.944C70.9353 113.944 71.4266 113.75 71.83 113.361C71.9766 113.222 72.127 113.141 72.281 113.119C72.435 113.097 72.5816 113.119 72.721 113.185L72.743 113.207C72.897 113.28 73.0033 113.405 73.062 113.581C73.128 113.75 73.0913 113.915 72.952 114.076C72.6293 114.428 72.248 114.699 71.808 114.89C71.368 115.081 70.884 115.176 70.356 115.176ZM77.1306 115C76.6979 115 76.4816 114.784 76.4816 114.351V108.477H74.8096C74.3769 108.477 74.1606 108.283 74.1606 107.894C74.1606 107.498 74.3769 107.3 74.8096 107.3H79.4186C79.8586 107.3 80.0786 107.498 80.0786 107.894C80.0786 108.283 79.8586 108.477 79.4186 108.477H77.7686V114.351C77.7686 114.784 77.5559 115 77.1306 115ZM84.3797 115.176C83.683 115.176 83.0597 115.011 82.5097 114.681C81.967 114.351 81.5417 113.885 81.2337 113.284C80.9257 112.675 80.7717 111.964 80.7717 111.15C80.7717 110.329 80.9257 109.617 81.2337 109.016C81.5417 108.407 81.967 107.938 82.5097 107.608C83.0597 107.271 83.683 107.102 84.3797 107.102C85.0764 107.102 85.6924 107.271 86.2277 107.608C86.7704 107.938 87.1957 108.407 87.5037 109.016C87.819 109.617 87.9767 110.329 87.9767 111.15C87.9767 111.964 87.819 112.675 87.5037 113.284C87.1957 113.885 86.7704 114.351 86.2277 114.681C85.6924 115.011 85.0764 115.176 84.3797 115.176ZM84.3797 113.944C84.8417 113.944 85.2414 113.83 85.5787 113.603C85.916 113.368 86.1764 113.042 86.3597 112.624C86.5504 112.199 86.6457 111.707 86.6457 111.15C86.6457 110.585 86.5504 110.094 86.3597 109.676C86.1764 109.251 85.916 108.924 85.5787 108.697C85.2414 108.462 84.8417 108.345 84.3797 108.345C83.925 108.345 83.5254 108.462 83.1807 108.697C82.836 108.924 82.5684 109.251 82.3777 109.676C82.1944 110.094 82.1027 110.585 82.1027 111.15C82.1027 111.707 82.1944 112.199 82.3777 112.624C82.5684 113.042 82.836 113.368 83.1807 113.603C83.5254 113.83 83.925 113.944 84.3797 113.944ZM89.8859 115C89.4679 115 89.2589 114.784 89.2589 114.351V107.949C89.2589 107.516 89.4752 107.3 89.9079 107.3H92.7789C93.4975 107.3 94.0659 107.469 94.4839 107.806C94.9092 108.143 95.1219 108.712 95.1219 109.511C95.1219 110.186 94.9679 110.699 94.6599 111.051C94.3519 111.396 93.9265 111.608 93.3839 111.689L94.6489 114.23C94.7589 114.457 94.7809 114.644 94.7149 114.791C94.6489 114.93 94.5095 115 94.2969 115H94.0879C93.7212 115 93.4682 114.835 93.3289 114.505L92.0639 111.744H90.5239V114.351C90.5239 114.784 90.3112 115 89.8859 115ZM90.5239 110.556H92.6029C92.9769 110.556 93.2665 110.475 93.4719 110.314C93.6772 110.153 93.7799 109.885 93.7799 109.511C93.7799 109.144 93.6772 108.88 93.4719 108.719C93.2665 108.558 92.9769 108.477 92.6029 108.477H90.5239V110.556ZM99.1987 115.154C98.6561 115.154 98.1501 115.062 97.6807 114.879C97.2114 114.688 96.8081 114.373 96.4707 113.933C96.3461 113.757 96.3021 113.596 96.3387 113.449C96.3827 113.295 96.4927 113.17 96.6687 113.075C96.8374 112.972 96.9914 112.943 97.1307 112.987C97.2701 113.024 97.4094 113.119 97.5487 113.273C97.7467 113.486 97.9814 113.651 98.2527 113.768C98.5314 113.885 98.8614 113.944 99.2427 113.944C99.7561 113.944 100.115 113.852 100.321 113.669C100.533 113.478 100.64 113.222 100.64 112.899C100.64 112.694 100.592 112.518 100.497 112.371C100.409 112.224 100.218 112.089 99.9247 111.964C99.6387 111.832 99.1951 111.7 98.5937 111.568C97.8824 111.399 97.3544 111.132 97.0097 110.765C96.6724 110.398 96.5037 109.933 96.5037 109.368C96.5037 108.921 96.6101 108.528 96.8227 108.191C97.0427 107.846 97.3471 107.579 97.7357 107.388C98.1317 107.197 98.5937 107.102 99.1217 107.102C99.6717 107.102 100.152 107.197 100.563 107.388C100.973 107.579 101.318 107.824 101.597 108.125C101.736 108.279 101.791 108.433 101.762 108.587C101.732 108.741 101.637 108.88 101.476 109.005C101.314 109.137 101.16 109.188 101.014 109.159C100.867 109.13 100.72 109.045 100.574 108.906C100.39 108.737 100.181 108.598 99.9467 108.488C99.7121 108.378 99.4334 108.323 99.1107 108.323C98.7294 108.323 98.4177 108.407 98.1757 108.576C97.9411 108.737 97.8237 108.983 97.8237 109.313C97.8237 109.46 97.8567 109.603 97.9227 109.742C97.9961 109.874 98.1501 110.002 98.3847 110.127C98.6267 110.252 98.9971 110.373 99.4957 110.49C100.376 110.688 101.01 110.985 101.399 111.381C101.787 111.777 101.982 112.276 101.982 112.877C101.982 113.61 101.725 114.175 101.212 114.571C100.706 114.96 100.035 115.154 99.1987 115.154ZM107.21 115C106.792 115 106.583 114.784 106.583 114.351V107.949C106.583 107.516 106.792 107.3 107.21 107.3C107.635 107.3 107.848 107.516 107.848 107.949V110.644L110.323 107.795C110.484 107.597 110.631 107.465 110.763 107.399C110.895 107.333 111.064 107.3 111.269 107.3C111.452 107.3 111.588 107.344 111.676 107.432C111.764 107.52 111.804 107.626 111.797 107.751C111.797 107.876 111.753 107.993 111.665 108.103L109.201 110.886L111.819 114.219C111.907 114.336 111.955 114.461 111.962 114.593C111.969 114.725 111.925 114.835 111.83 114.923C111.742 115.011 111.592 115.055 111.379 115.055C111.159 115.055 110.979 115.015 110.84 114.934C110.708 114.846 110.591 114.732 110.488 114.593L107.848 111.062V114.351C107.848 114.784 107.635 115 107.21 115ZM113.451 115C113.238 115 113.092 114.938 113.011 114.813C112.93 114.688 112.93 114.52 113.011 114.307L115.497 107.784C115.607 107.461 115.838 107.3 116.19 107.3H116.278C116.63 107.3 116.861 107.461 116.971 107.784L119.468 114.307C119.549 114.52 119.545 114.688 119.457 114.813C119.376 114.938 119.23 115 119.017 115H118.808C118.463 115 118.236 114.835 118.126 114.505L117.697 113.306H114.738L114.309 114.505C114.199 114.835 113.972 115 113.627 115H113.451ZM115.156 112.129H117.29L116.234 109.126L115.156 112.129ZM123.973 115C123.76 115 123.613 114.938 123.533 114.813C123.452 114.688 123.452 114.52 123.533 114.307L126.019 107.784C126.129 107.461 126.36 107.3 126.712 107.3H126.8C127.152 107.3 127.383 107.461 127.493 107.784L129.99 114.307C130.07 114.52 130.067 114.688 129.979 114.813C129.898 114.938 129.751 115 129.539 115H129.33C128.985 115 128.758 114.835 128.648 114.505L128.219 113.306H125.26L124.831 114.505C124.721 114.835 124.493 115 124.149 115H123.973ZM125.678 112.129H127.812L126.756 109.126L125.678 112.129ZM131.884 115C131.466 115 131.257 114.784 131.257 114.351V107.949C131.257 107.516 131.474 107.3 131.906 107.3H134.777C135.496 107.3 136.064 107.469 136.482 107.806C136.908 108.143 137.12 108.712 137.12 109.511C137.12 110.31 136.908 110.882 136.482 111.227C136.064 111.572 135.496 111.744 134.777 111.744H132.522V114.351C132.522 114.784 132.31 115 131.884 115ZM132.522 110.556H134.601C134.975 110.556 135.265 110.475 135.47 110.314C135.676 110.153 135.778 109.885 135.778 109.511C135.778 109.144 135.676 108.88 135.47 108.719C135.265 108.558 134.975 108.477 134.601 108.477H132.522V110.556ZM138.934 115C138.516 115 138.307 114.784 138.307 114.351V107.949C138.307 107.516 138.516 107.3 138.934 107.3H139.077C139.407 107.3 139.667 107.443 139.858 107.729L143.202 112.767V107.949C143.202 107.736 143.257 107.575 143.367 107.465C143.484 107.355 143.646 107.3 143.851 107.3C144.276 107.3 144.489 107.516 144.489 107.949V114.351C144.489 114.784 144.287 115 143.884 115H143.774C143.437 115 143.176 114.857 142.993 114.571L139.572 109.379V114.351C139.572 114.784 139.359 115 138.934 115ZM146.195 115C145.983 115 145.836 114.938 145.755 114.813C145.675 114.688 145.675 114.52 145.755 114.307L148.241 107.784C148.351 107.461 148.582 107.3 148.934 107.3H149.022C149.374 107.3 149.605 107.461 149.715 107.784L152.212 114.307C152.293 114.52 152.289 114.688 152.201 114.813C152.121 114.938 151.974 115 151.761 115H151.552C151.208 115 150.98 114.835 150.87 114.505L150.441 113.306H147.482L147.053 114.505C146.943 114.835 146.716 115 146.371 115H146.195ZM147.9 112.129H150.034L148.978 109.126L147.9 112.129ZM157.322 115C156.889 115 156.673 114.784 156.673 114.351V107.949C156.673 107.516 156.889 107.3 157.322 107.3H161.172C161.605 107.3 161.821 107.498 161.821 107.894C161.821 108.283 161.605 108.477 161.172 108.477H157.938V110.479H160.831C161.264 110.479 161.48 110.677 161.48 111.073C161.48 111.469 161.264 111.667 160.831 111.667H157.938V113.823H161.293C161.726 113.823 161.942 114.017 161.942 114.406C161.942 114.802 161.726 115 161.293 115H157.322ZM163.745 112.866C163.584 112.866 163.445 112.811 163.327 112.701C163.217 112.584 163.162 112.444 163.162 112.283C163.162 112.122 163.217 111.986 163.327 111.876C163.445 111.759 163.584 111.7 163.745 111.7H166.429C166.591 111.7 166.726 111.759 166.836 111.876C166.954 111.986 167.012 112.122 167.012 112.283C167.012 112.444 166.954 112.584 166.836 112.701C166.726 112.811 166.591 112.866 166.429 112.866H163.745ZM171.846 115.176C171.15 115.176 170.526 115.011 169.976 114.681C169.434 114.351 169.008 113.885 168.7 113.284C168.392 112.675 168.238 111.964 168.238 111.15C168.238 110.329 168.392 109.617 168.7 109.016C169.008 108.407 169.434 107.938 169.976 107.608C170.526 107.271 171.15 107.102 171.846 107.102C172.367 107.102 172.844 107.197 173.276 107.388C173.716 107.579 174.098 107.846 174.42 108.191C174.567 108.352 174.615 108.517 174.563 108.686C174.512 108.847 174.413 108.972 174.266 109.06L174.211 109.093C174.116 109.152 173.98 109.174 173.804 109.159C173.628 109.144 173.467 109.067 173.32 108.928C173.13 108.737 172.91 108.594 172.66 108.499C172.418 108.396 172.147 108.345 171.846 108.345C171.392 108.345 170.992 108.462 170.647 108.697C170.303 108.924 170.035 109.251 169.844 109.676C169.661 110.094 169.569 110.585 169.569 111.15C169.569 111.707 169.661 112.199 169.844 112.624C170.035 113.042 170.303 113.368 170.647 113.603C170.992 113.83 171.392 113.944 171.846 113.944C172.426 113.944 172.917 113.75 173.32 113.361C173.467 113.222 173.617 113.141 173.771 113.119C173.925 113.097 174.072 113.119 174.211 113.185L174.233 113.207C174.387 113.28 174.494 113.405 174.552 113.581C174.618 113.75 174.582 113.915 174.442 114.076C174.12 114.428 173.738 114.699 173.298 114.89C172.858 115.081 172.374 115.176 171.846 115.176ZM176.773 115C176.34 115 176.124 114.784 176.124 114.351V107.949C176.124 107.516 176.333 107.3 176.751 107.3C177.176 107.3 177.389 107.516 177.389 107.949V113.823H180.755C181.188 113.823 181.404 114.017 181.404 114.406C181.404 114.802 181.188 115 180.755 115H176.773ZM183.135 115C182.717 115 182.508 114.784 182.508 114.351V107.949C182.508 107.516 182.717 107.3 183.135 107.3C183.56 107.3 183.773 107.516 183.773 107.949V114.351C183.773 114.784 183.56 115 183.135 115ZM186.07 115C185.652 115 185.443 114.784 185.443 114.351V107.949C185.443 107.516 185.652 107.3 186.07 107.3H186.213C186.543 107.3 186.803 107.443 186.994 107.729L190.338 112.767V107.949C190.338 107.736 190.393 107.575 190.503 107.465C190.62 107.355 190.781 107.3 190.987 107.3C191.412 107.3 191.625 107.516 191.625 107.949V114.351C191.625 114.784 191.423 115 191.02 115H190.91C190.572 115 190.312 114.857 190.129 114.571L186.708 109.379V114.351C186.708 114.784 186.495 115 186.07 115ZM193.914 115C193.496 115 193.287 114.784 193.287 114.351V107.949C193.287 107.516 193.496 107.3 193.914 107.3C194.339 107.3 194.552 107.516 194.552 107.949V114.351C194.552 114.784 194.339 115 193.914 115ZM199.445 115.176C198.749 115.176 198.125 115.011 197.575 114.681C197.033 114.351 196.607 113.885 196.299 113.284C195.991 112.675 195.837 111.964 195.837 111.15C195.837 110.329 195.991 109.617 196.299 109.016C196.607 108.407 197.033 107.938 197.575 107.608C198.125 107.271 198.749 107.102 199.445 107.102C199.966 107.102 200.443 107.197 200.875 107.388C201.315 107.579 201.697 107.846 202.019 108.191C202.166 108.352 202.214 108.517 202.162 108.686C202.111 108.847 202.012 108.972 201.865 109.06L201.81 109.093C201.715 109.152 201.579 109.174 201.403 109.159C201.227 109.144 201.066 109.067 200.919 108.928C200.729 108.737 200.509 108.594 200.259 108.499C200.017 108.396 199.746 108.345 199.445 108.345C198.991 108.345 198.591 108.462 198.246 108.697C197.902 108.924 197.634 109.251 197.443 109.676C197.26 110.094 197.168 110.585 197.168 111.15C197.168 111.707 197.26 112.199 197.443 112.624C197.634 113.042 197.902 113.368 198.246 113.603C198.591 113.83 198.991 113.944 199.445 113.944C200.025 113.944 200.516 113.75 200.919 113.361C201.066 113.222 201.216 113.141 201.37 113.119C201.524 113.097 201.671 113.119 201.81 113.185L201.832 113.207C201.986 113.28 202.093 113.405 202.151 113.581C202.217 113.75 202.181 113.915 202.041 114.076C201.719 114.428 201.337 114.699 200.897 114.89C200.457 115.081 199.973 115.176 199.445 115.176Z" fill="#3093BB"/>
<path d="M6.54591 85.1211V95.839C6.34592 95.8952 6.14202 95.9363 5.9359 95.962C5.66157 96.0002 5.38488 96.0189 5.1079 96.018C4.64505 96.0655 4.18121 95.9378 3.80791 95.6601C3.66395 95.4826 3.55747 95.2778 3.49491 95.058C3.43 94.8321 3.40895 94.5959 3.43291 94.362V85.1211H0.339905C0.24649 84.9346 0.170823 84.7397 0.113905 84.5391C0.0392663 84.2848 0.00253757 84.021 0.0049053 83.756C-0.0278315 83.3636 0.0767997 82.9719 0.300905 82.6481C0.406905 82.5301 0.533905 82.438 0.672905 82.378C0.810293 82.319 0.959628 82.2929 1.10891 82.3021H9.71891C9.82191 82.4811 9.90191 82.6771 9.95491 82.8831C10.0219 83.1371 10.0549 83.401 10.0529 83.666C10.0809 84.061 9.97591 84.453 9.75791 84.763C9.65291 84.884 9.52691 84.979 9.38791 85.041C9.25042 85.1024 9.10021 85.1298 8.94991 85.1211H6.54591ZM24.1369 89.154C24.1551 90.1609 23.9879 91.1626 23.6439 92.109C23.3543 92.9075 22.8943 93.6333 22.2959 94.236C21.7023 94.8336 20.9838 95.2922 20.1919 95.5791C18.5069 96.1791 16.6739 96.1791 14.9889 95.5791C14.2134 95.2933 13.5085 94.8442 12.9219 94.262C12.3193 93.6495 11.8543 92.9155 11.5579 92.109C11.2138 91.1626 11.0467 90.1609 11.0649 89.154C11.046 88.1494 11.217 87.1502 11.5689 86.209C11.8744 85.4056 12.346 84.6757 12.9529 84.0671C13.5419 83.4879 14.2462 83.0392 15.0199 82.75C15.842 82.4446 16.713 82.2921 17.5899 82.3001C18.4704 82.2926 19.3449 82.4451 20.1709 82.75C20.9488 83.0373 21.657 83.4862 22.2489 84.0671C22.8558 84.6757 23.3275 85.4056 23.6329 86.209C23.9849 87.149 24.1559 88.149 24.1369 89.154ZM20.7369 89.154C20.7369 87.784 20.4549 86.752 19.8879 86.059C19.5996 85.7333 19.2459 85.472 18.8499 85.292C18.456 85.1135 18.0284 85.0212 17.5959 85.0212C17.1634 85.0212 16.7359 85.1135 16.3419 85.292C15.9469 85.47 15.5929 85.732 15.3039 86.059C14.7299 86.752 14.4429 87.784 14.4439 89.154C14.4439 90.539 14.7259 91.578 15.2929 92.27C15.5829 92.597 15.9379 92.8581 16.3339 93.0371C16.7287 93.2156 17.1571 93.308 17.5904 93.308C18.0237 93.308 18.4521 93.2156 18.8469 93.0371C19.2429 92.8581 19.5969 92.597 19.8879 92.27C20.4549 91.578 20.7379 90.54 20.7379 89.154H20.7369ZM32.3449 85.1211V95.839C32.124 95.8953 31.8994 95.9364 31.6729 95.962C31.3711 96.0002 31.0671 96.0189 30.7629 96.018C30.2592 96.0669 29.7542 95.9404 29.3329 95.6601C29.1767 95.4861 29.0595 95.2809 28.9889 95.058C28.9177 94.8334 28.8945 94.5962 28.9209 94.362V85.1211H25.5189C25.4163 84.9359 25.3325 84.7409 25.2689 84.5391C25.1873 84.2862 25.1472 84.0217 25.1499 83.756C25.1151 83.359 25.2311 82.9634 25.4749 82.6481C25.5894 82.5297 25.7281 82.4374 25.8815 82.3775C26.035 82.3176 26.1995 82.2916 26.3639 82.3011H35.8339C35.9489 82.4811 36.0359 82.6771 36.0939 82.8831C36.1689 83.1371 36.2049 83.401 36.2029 83.666C36.2342 84.0595 36.118 84.4505 35.8769 84.763C35.7643 84.8843 35.6263 84.9793 35.4729 85.0411C35.3194 85.103 35.1541 85.1303 34.9889 85.1211H32.3449ZM44.8869 92.88H40.4459C40.2824 93.3971 40.1273 93.9169 39.9809 94.4391C39.8369 94.9511 39.7129 95.4051 39.6069 95.7991C39.4109 95.8581 39.2069 95.9091 38.9959 95.9531C38.7419 96.0011 38.4839 96.023 38.2259 96.019C37.701 96.0531 37.1774 95.9351 36.7179 95.679C36.5544 95.5735 36.4211 95.4274 36.3309 95.255C36.242 95.0848 36.1999 94.8939 36.2089 94.7021C36.2079 94.5021 36.2389 94.302 36.2989 94.109C36.3589 93.919 36.4269 93.699 36.5029 93.451C36.6089 93.056 36.7599 92.5661 36.9559 91.9811C37.1519 91.3951 37.3679 90.763 37.6019 90.081C38.0793 88.6923 38.574 87.3095 39.0859 85.933C39.3279 85.283 39.5459 84.686 39.7429 84.145C39.9399 83.603 40.1059 83.171 40.2419 82.85C40.5739 82.68 40.9279 82.554 41.2949 82.476C41.7581 82.361 42.2336 82.3022 42.7109 82.3011C43.3227 82.2902 43.932 82.3828 44.5129 82.575C44.7429 82.64 44.9529 82.756 45.1279 82.915C45.3029 83.073 45.4379 83.268 45.5209 83.485C45.8079 84.262 46.1169 85.162 46.4509 86.185C46.7819 87.21 47.1179 88.264 47.4579 89.346C48.0883 91.3512 48.6963 93.3634 49.2819 95.3821C49.0819 95.5951 48.8279 95.7541 48.5459 95.8431C48.1709 95.9681 47.7759 96.028 47.3789 96.019C46.8984 96.0638 46.4167 95.9481 46.0089 95.6901C45.7122 95.4156 45.5099 95.0544 45.4309 94.658L44.8869 92.88ZM42.6889 85.374C42.4434 86.1292 42.1827 86.8794 41.9069 87.624C41.5969 88.465 41.3069 89.3241 41.0349 90.2031H44.2749C44.0284 89.3172 43.7677 88.4355 43.4929 87.558C43.2289 86.716 43.0059 85.988 42.8249 85.374H42.6889ZM50.7819 95.527C50.6133 95.3481 50.4828 95.1368 50.3982 94.906C50.3136 94.6751 50.2768 94.4295 50.2899 94.184V82.485C50.4499 82.456 50.6799 82.419 50.9789 82.375C51.2719 82.331 51.5669 82.308 51.8639 82.308C52.3605 82.267 52.8573 82.3835 53.2839 82.641C53.4518 82.8116 53.5784 83.0184 53.6542 83.2454C53.7299 83.4725 53.7527 83.7138 53.7209 83.951V93.207H58.9639C59.0669 93.39 59.1509 93.584 59.2159 93.784C59.2979 94.034 59.3379 94.297 59.3359 94.561C59.3649 94.954 59.2519 95.3451 59.0189 95.6611C58.9112 95.7821 58.7778 95.8777 58.6285 95.9408C58.4793 96.0039 58.3178 96.0331 58.1559 96.026H52.1039C51.861 96.0387 51.618 96.0007 51.3905 95.9147C51.1629 95.8286 50.9557 95.6973 50.7819 95.527ZM69.0199 95.962C68.7294 95.9998 68.4368 96.0185 68.1439 96.018C67.6639 96.068 67.1809 95.943 66.7769 95.665C66.6295 95.4914 66.5195 95.2892 66.4539 95.071C66.3873 94.8503 66.3658 94.6183 66.3909 94.389V82.484C66.5439 82.454 66.7629 82.418 67.0479 82.374C67.3279 82.33 67.6109 82.308 67.8939 82.308C68.3669 82.268 68.8409 82.382 69.2499 82.638C69.4099 82.806 69.5299 83.011 69.6019 83.236C69.6749 83.461 69.6969 83.701 69.6679 83.936V87.809H74.1549V82.484C74.3079 82.454 74.5279 82.418 74.8129 82.374C75.0999 82.33 75.3889 82.308 75.6789 82.308C76.1489 82.268 76.6189 82.3911 77.0149 82.6601C77.1729 82.8341 77.2929 83.042 77.3649 83.27C77.4369 83.499 77.4599 83.7411 77.4329 83.9801V95.8411C77.22 95.8964 77.0035 95.9368 76.7849 95.962C76.4949 96 76.2019 96.018 75.9089 96.018C75.4289 96.068 74.9459 95.943 74.5419 95.665C74.3945 95.4914 74.2845 95.2892 74.2189 95.071C74.1522 94.8503 74.1308 94.6183 74.1559 94.389V90.5391H69.6679V95.8411C69.4549 95.8971 69.2379 95.937 69.0209 95.962H69.0199ZM80.9339 95.518C80.7726 95.3339 80.6489 95.1198 80.5699 94.888C80.4893 94.6518 80.4541 94.4024 80.4659 94.153V84.1781C80.4489 83.9271 80.4819 83.6751 80.5629 83.4391C80.6429 83.2041 80.7699 82.99 80.9339 82.812C81.0979 82.635 81.2959 82.4971 81.5139 82.4101C81.7294 82.3228 81.9622 82.2869 82.1939 82.305H89.0909C89.1859 82.483 89.2629 82.6721 89.3199 82.8691C89.3929 83.1171 89.4279 83.3761 89.4239 83.6361C89.4539 84.0321 89.3459 84.426 89.1219 84.742C89.016 84.8629 88.8845 84.9585 88.7369 85.0221C88.5909 85.0851 88.4349 85.112 88.2779 85.102H83.6529V87.63H88.4869C88.5809 87.81 88.6579 87.998 88.7159 88.195C88.7879 88.443 88.8229 88.702 88.8199 88.962C88.8499 89.353 88.7459 89.743 88.5279 90.057C88.4209 90.177 88.2909 90.271 88.1479 90.331C88.0049 90.3912 87.8497 90.4169 87.6949 90.406H83.6529V93.228H89.1739C89.2709 93.413 89.3479 93.6101 89.4039 93.8141C89.4739 94.0701 89.5099 94.337 89.5079 94.604C89.5399 94.994 89.4309 95.3821 89.2049 95.6881C89.0992 95.8018 88.9703 95.8915 88.8269 95.951C88.6861 96.0091 88.534 96.0347 88.3819 96.026H82.1949C81.963 96.0386 81.7312 96.0001 81.5159 95.9131C81.2963 95.8237 81.098 95.6891 80.9339 95.518ZM99.5359 92.88H95.4359C95.2852 93.3975 95.1425 93.9172 95.0079 94.4391C94.8749 94.9511 94.7599 95.4051 94.6629 95.7991C94.4819 95.8581 94.2929 95.9091 94.0979 95.9531C93.864 96.0007 93.6256 96.0228 93.3869 96.019C92.8996 96.0519 92.414 95.9331 91.9969 95.679C91.8433 95.5707 91.72 95.4247 91.6389 95.255C91.5563 95.0828 91.5175 94.8929 91.5259 94.7021C91.5249 94.5021 91.5529 94.302 91.6089 94.109C91.6649 93.919 91.7279 93.699 91.7979 93.451C91.8949 93.056 92.0339 92.5661 92.2159 91.9811C92.3959 91.3951 92.5959 90.763 92.8119 90.081C93.2523 88.6931 93.709 87.3103 94.1819 85.933C94.4049 85.283 94.6069 84.686 94.7879 84.145C94.9689 83.603 95.1229 83.171 95.2479 82.85C95.5549 82.68 95.8819 82.554 96.2209 82.476C96.6471 82.3612 97.0865 82.3024 97.5279 82.3011C98.0943 82.2905 98.6578 82.3834 99.1909 82.575C99.4047 82.6413 99.5995 82.7579 99.7589 82.915C99.9209 83.073 100.045 83.268 100.122 83.485C100.387 84.262 100.672 85.162 100.979 86.185C101.286 87.21 101.596 88.264 101.91 89.346C102.492 91.3523 103.053 93.3644 103.594 95.3821C103.412 95.5927 103.177 95.7517 102.914 95.8431C102.569 95.968 102.204 96.0277 101.837 96.019C101.389 96.063 100.941 95.9464 100.571 95.6901C100.293 95.4075 100.108 95.0478 100.038 94.658L99.5359 92.88ZM97.5069 85.374C97.2808 86.1285 97.0404 86.8787 96.7859 87.624C96.4964 88.477 96.228 89.3369 95.9809 90.2031H98.9709C98.7438 89.3178 98.5034 88.4361 98.2499 87.558C98.0059 86.716 97.7999 85.988 97.6329 85.374H97.5069ZM106.099 95.527C105.931 95.3477 105.801 95.1363 105.716 94.9056C105.632 94.6748 105.595 94.4295 105.607 94.184V82.485C105.768 82.456 105.997 82.419 106.296 82.375C106.589 82.331 106.884 82.308 107.181 82.308C107.677 82.267 108.174 82.3835 108.601 82.641C108.767 82.8128 108.893 83.0197 108.968 83.2464C109.044 83.4731 109.068 83.7139 109.038 83.951V93.207H114.281C114.384 93.39 114.468 93.584 114.533 93.784C114.615 94.034 114.655 94.297 114.653 94.561C114.682 94.954 114.569 95.3451 114.336 95.6611C114.228 95.782 114.095 95.8775 113.945 95.9406C113.796 96.0037 113.635 96.0329 113.473 96.026H107.421C107.178 96.0384 106.935 96.0003 106.708 95.9142C106.48 95.8282 106.273 95.697 106.099 95.527ZM121.203 85.1211V95.839C121.003 95.895 120.798 95.936 120.593 95.962C120.319 96.0002 120.042 96.0189 119.765 96.018C119.302 96.0655 118.838 95.9378 118.465 95.6601C118.321 95.4826 118.215 95.2778 118.153 95.058C118.088 94.8322 118.067 94.5959 118.091 94.362V85.1211H114.998C114.904 84.9346 114.828 84.7397 114.771 84.5391C114.696 84.2848 114.66 84.0209 114.663 83.756C114.629 83.3636 114.734 82.9718 114.958 82.6481C115.064 82.5301 115.191 82.438 115.33 82.378C115.467 82.3189 115.617 82.2929 115.766 82.3021H124.375C124.48 82.4811 124.559 82.6771 124.612 82.8831C124.679 83.1371 124.713 83.401 124.71 83.666C124.738 84.061 124.633 84.453 124.415 84.763C124.314 84.8818 124.187 84.9768 124.045 85.041C123.907 85.1024 123.757 85.1298 123.607 85.1211H121.203ZM129.366 95.962C129.076 96 128.783 96.018 128.49 96.018C128.007 96.0671 127.522 95.9419 127.123 95.665C126.976 95.4892 126.866 95.2856 126.8 95.0664C126.733 94.8472 126.711 94.6168 126.736 94.389V82.484C126.89 82.454 127.109 82.418 127.394 82.374C127.674 82.33 127.957 82.308 128.239 82.308C128.715 82.2677 129.191 82.3836 129.596 82.638C129.755 82.806 129.876 83.011 129.948 83.236C130.021 83.461 130.043 83.701 130.014 83.936V87.809H134.501V82.484C134.654 82.454 134.874 82.418 135.159 82.374C135.446 82.33 135.735 82.308 136.025 82.308C136.495 82.268 136.964 82.3911 137.361 82.6601C137.519 82.8341 137.638 83.042 137.711 83.27C137.783 83.499 137.806 83.7411 137.778 83.9801V95.8411C137.565 95.8963 137.349 95.9368 137.131 95.962C136.84 95.9998 136.548 96.0185 136.255 96.018C135.772 96.0671 135.287 95.9419 134.888 95.665C134.74 95.4915 134.63 95.2893 134.564 95.071C134.498 94.8502 134.476 94.6183 134.501 94.389V90.5391H130.014V95.8411C129.801 95.8971 129.584 95.937 129.366 95.962ZM149.312 93.2861C149.881 93.3372 150.45 93.1979 150.931 92.89C151.08 92.7793 151.201 92.6356 151.284 92.4703C151.368 92.3049 151.412 92.1224 151.414 91.937C151.419 91.7801 151.387 91.6241 151.322 91.4812C151.257 91.3383 151.16 91.2124 151.038 91.113C150.7 90.8624 150.319 90.6772 149.913 90.567L148.819 90.224C148.263 90.055 147.719 89.851 147.19 89.614C146.737 89.4144 146.318 89.147 145.946 88.821C145.605 88.5169 145.331 88.145 145.142 87.729C144.937 87.2453 144.838 86.7232 144.852 86.198C144.832 85.6486 144.946 85.1026 145.183 84.6066C145.42 84.1106 145.774 83.6795 146.214 83.35C147.122 82.65 148.383 82.3001 149.998 82.3001C150.569 82.2971 151.139 82.34 151.703 82.429C152.166 82.497 152.617 82.63 153.043 82.825C153.379 82.977 153.679 83.2 153.922 83.478C154.134 83.729 154.249 84.048 154.244 84.378C154.25 84.685 154.164 84.9871 153.997 85.2451C153.842 85.4841 153.651 85.697 153.429 85.876C153.026 85.615 152.585 85.4199 152.121 85.298C151.542 85.1366 150.943 85.0575 150.342 85.0631C149.814 85.0262 149.287 85.1374 148.819 85.3841C148.672 85.4636 148.548 85.581 148.462 85.724C148.375 85.8671 148.328 86.0308 148.326 86.198C148.32 86.3252 148.346 86.4518 148.402 86.566C148.458 86.6802 148.542 86.7783 148.647 86.851C148.962 87.048 149.301 87.203 149.655 87.311L150.813 87.697C151.421 87.898 152.012 88.145 152.582 88.436C153.049 88.6718 153.479 88.9747 153.858 89.335C154.194 89.662 154.457 90.055 154.629 90.492C154.808 90.967 154.896 91.4721 154.887 91.9801C154.894 92.5458 154.773 93.1057 154.533 93.618C154.289 94.1206 153.929 94.5577 153.483 94.893C152.967 95.2748 152.385 95.5578 151.767 95.728C151.003 95.9393 150.212 96.0403 149.419 96.028C148.808 96.0323 148.198 95.9787 147.597 95.868C147.096 95.7792 146.61 95.6242 146.15 95.407C145.778 95.2344 145.448 94.9817 145.185 94.667C144.953 94.3875 144.828 94.0351 144.831 93.672C144.819 93.3207 144.937 92.9774 145.163 92.708C145.373 92.461 145.623 92.251 145.903 92.088C146.343 92.433 146.831 92.714 147.351 92.923C147.974 93.1737 148.641 93.2971 149.312 93.2861ZM169.973 89.154C169.991 90.1609 169.824 91.1626 169.48 92.109C169.19 92.9073 168.73 93.6331 168.132 94.236C167.538 94.8334 166.82 95.292 166.028 95.5791C164.343 96.1791 162.509 96.1791 160.824 95.5791C160.049 95.2932 159.344 94.844 158.758 94.262C158.155 93.6497 157.69 92.9157 157.394 92.109C157.05 91.1626 156.883 90.1609 156.901 89.154C156.882 88.1495 157.053 87.1503 157.404 86.209C157.71 85.4057 158.182 84.6758 158.789 84.0671C159.378 83.488 160.082 83.0393 160.856 82.75C161.678 82.4445 162.549 82.292 163.426 82.3001C164.306 82.2925 165.181 82.445 166.007 82.75C166.785 83.0373 167.492 83.4861 168.084 84.0671C168.692 84.6753 169.164 85.4053 169.469 86.209C169.821 87.149 169.992 88.149 169.973 89.154ZM166.574 89.154C166.574 87.784 166.29 86.752 165.724 86.059C165.436 85.7333 165.082 85.472 164.686 85.292C164.292 85.1134 163.864 85.0209 163.431 85.0209C162.999 85.0209 162.571 85.1134 162.177 85.292C161.783 85.47 161.429 85.732 161.139 86.059C160.565 86.752 160.279 87.784 160.279 89.154C160.279 90.539 160.562 91.578 161.129 92.27C161.419 92.597 161.774 92.8581 162.17 93.0371C162.766 93.3076 163.434 93.3791 164.074 93.241C164.714 93.1029 165.292 92.7624 165.724 92.27C166.29 91.578 166.574 90.54 166.574 89.154ZM172.479 95.527C172.311 95.3475 172.181 95.1361 172.097 94.9054C172.013 94.6747 171.976 94.4294 171.988 94.184V82.485C172.148 82.456 172.377 82.419 172.676 82.375C172.969 82.331 173.265 82.308 173.561 82.308C174.057 82.267 174.554 82.3835 174.981 82.641C175.149 82.8116 175.275 83.0184 175.351 83.2454C175.427 83.4725 175.45 83.7138 175.418 83.951V93.207H180.661C180.764 93.3903 180.849 93.5837 180.913 93.784C180.995 94.034 181.036 94.297 181.033 94.561C181.063 94.9539 180.95 95.3444 180.716 95.6611C180.609 95.7826 180.475 95.8784 180.326 95.9416C180.177 96.0048 180.015 96.0336 179.853 96.026H173.801C173.558 96.0384 173.315 96.0003 173.088 95.9142C172.86 95.8282 172.653 95.697 172.479 95.527ZM188.564 96.028C187.776 96.0407 186.993 95.9158 186.248 95.659C185.606 95.4356 185.017 95.0815 184.518 94.6191C184.04 94.1676 183.668 93.6161 183.428 93.004C183.168 92.3304 183.039 91.6131 183.05 90.891V82.4811C183.204 82.4531 183.424 82.417 183.711 82.373C183.999 82.33 184.289 82.308 184.581 82.308C185.053 82.267 185.527 82.3801 185.933 82.6331C186.09 82.8011 186.208 83.003 186.279 83.225C186.35 83.445 186.371 83.6811 186.342 83.9121V90.826C186.32 91.1536 186.364 91.4821 186.47 91.7928C186.576 92.1034 186.743 92.39 186.96 92.6361C187.171 92.8501 187.423 93.016 187.698 93.126C187.974 93.236 188.269 93.2871 188.564 93.2751C188.863 93.2881 189.161 93.238 189.441 93.129C189.72 93.019 189.975 92.8511 190.19 92.6361C190.626 92.1377 190.848 91.4872 190.808 90.826V82.4801C190.962 82.4521 191.182 82.4161 191.468 82.3721C191.756 82.3291 192.047 82.307 192.339 82.307C192.811 82.266 193.285 82.3791 193.691 82.6321C193.848 82.8001 193.966 83.002 194.037 83.224C194.108 83.444 194.129 83.6801 194.1 83.9111V90.89C194.11 91.6121 193.982 92.3294 193.722 93.003C193.482 93.6151 193.11 94.1666 192.632 94.618C192.131 95.0819 191.538 95.4361 190.892 95.658C190.143 95.9139 189.355 96.0384 188.564 96.026V96.028ZM203.325 85.1211V95.839C203.104 95.8954 202.879 95.9365 202.653 95.962C202.351 96.0002 202.047 96.0189 201.743 96.018C201.239 96.067 200.734 95.9405 200.313 95.6601C200.157 95.4849 200.04 95.2789 199.969 95.0554C199.898 94.832 199.875 94.596 199.901 94.363V85.1201H196.498C196.395 84.935 196.312 84.74 196.249 84.5381C196.167 84.2852 196.127 84.0208 196.13 83.755C196.095 83.358 196.211 82.9624 196.455 82.6471C196.572 82.5291 196.711 82.437 196.864 82.377C197.017 82.317 197.18 82.2921 197.343 82.3011H206.814C206.929 82.4801 207.017 82.6761 207.074 82.8821C207.149 83.1361 207.185 83.4 207.183 83.665C207.213 84.06 207.097 84.452 206.858 84.762C206.745 84.8831 206.607 84.9779 206.453 85.0398C206.3 85.1016 206.134 85.129 205.969 85.1201L203.325 85.1211ZM210.811 96.018C210.372 96.068 209.931 95.943 209.561 95.665C209.425 95.4883 209.324 95.2864 209.266 95.071C209.205 94.8493 209.185 94.618 209.208 94.389V82.484C209.348 82.455 209.548 82.418 209.809 82.374C210.071 82.33 210.336 82.3079 210.601 82.308C211.032 82.266 211.463 82.382 211.833 82.638C211.975 82.808 212.083 83.014 212.147 83.238C212.212 83.463 212.231 83.702 212.205 83.937V95.84C212.011 95.8952 211.813 95.9357 211.613 95.961C211.347 95.9989 211.079 96.0186 210.811 96.018ZM227.301 89.154C227.32 90.161 227.152 91.1627 226.808 92.109C226.519 92.9077 226.059 93.6336 225.46 94.236C224.867 94.8336 224.149 95.2923 223.357 95.5791C221.672 96.1791 219.838 96.1791 218.153 95.5791C217.378 95.2932 216.673 94.8441 216.086 94.262C215.484 93.6492 215.019 92.9153 214.722 92.109C214.378 91.1626 214.211 90.1609 214.229 89.154C214.21 88.1494 214.381 87.1501 214.733 86.209C215.038 85.4053 215.51 84.6753 216.118 84.0671C216.706 83.4879 217.41 83.0391 218.184 82.75C219.006 82.4446 219.878 82.2921 220.755 82.3001C221.635 82.2926 222.51 82.4451 223.336 82.75C224.114 83.0373 224.821 83.4861 225.413 84.0671C226.02 84.6758 226.492 85.4057 226.798 86.209C227.149 87.149 227.32 88.149 227.301 89.154ZM223.902 89.154C223.902 87.784 223.619 86.752 223.053 86.059C222.764 85.7333 222.41 85.4719 222.014 85.292C221.62 85.1135 221.192 85.0212 220.76 85.0212C220.327 85.0212 219.9 85.1135 219.506 85.292C219.111 85.47 218.757 85.732 218.468 86.059C217.894 86.752 217.607 87.784 217.608 89.154C217.608 90.539 217.891 91.578 218.457 92.27C218.748 92.597 219.103 92.8581 219.498 93.0371C219.893 93.2154 220.321 93.3077 220.754 93.3077C221.188 93.3077 221.616 93.2154 222.011 93.0371C222.407 92.8581 222.762 92.597 223.053 92.27C223.619 91.578 223.902 90.54 223.902 89.154ZM240.591 95.863C240.211 95.9804 239.815 96.0361 239.417 96.028C238.966 96.0308 238.519 95.9488 238.098 95.7861C237.627 95.5641 237.258 95.1706 237.068 94.686L234.677 89.762C234.444 89.293 234.227 88.8241 234.028 88.3551C233.829 87.8861 233.633 87.3951 233.441 86.8821L233.296 86.9271C233.365 87.8061 233.406 88.645 233.42 89.444C233.434 90.242 233.441 91.015 233.441 91.763V95.852C233.239 95.8914 233.037 95.924 232.833 95.95C232.556 95.9876 232.277 96.0063 231.998 96.006C231.538 96.0522 231.077 95.9312 230.7 95.665C230.559 95.4991 230.453 95.3057 230.391 95.097C230.327 94.886 230.306 94.6643 230.329 94.445V83.123C230.531 82.846 230.808 82.643 231.123 82.541C231.495 82.4001 231.889 82.3293 232.287 82.332C232.74 82.327 233.19 82.409 233.616 82.574C234.07 82.784 234.434 83.169 234.636 83.651L237.047 88.597C237.281 89.067 237.497 89.535 237.696 90.004C237.895 90.474 238.091 90.964 238.283 91.477L238.366 91.4551C238.299 90.5258 238.261 89.5947 238.252 88.6631C238.246 87.7831 238.242 86.9411 238.242 86.1351V82.485C238.379 82.457 238.582 82.42 238.85 82.375C239.133 82.331 239.419 82.309 239.705 82.31C240.165 82.2633 240.626 82.3841 241.004 82.6501C241.143 82.8141 241.249 83.0071 241.313 83.2181C241.376 83.4281 241.398 83.6511 241.374 83.8711V95.434C241.146 95.6305 240.879 95.7767 240.591 95.863ZM248.883 93.2861C249.452 93.3372 250.021 93.1979 250.502 92.89C250.65 92.7792 250.771 92.6355 250.855 92.4701C250.938 92.3048 250.983 92.1223 250.984 91.937C250.99 91.78 250.959 91.6237 250.894 91.4807C250.829 91.3376 250.731 91.2117 250.609 91.113C250.271 90.8623 249.889 90.6771 249.483 90.567L248.39 90.224C247.834 90.055 247.29 89.851 246.76 89.614C246.308 89.4142 245.889 89.1468 245.517 88.821C245.176 88.517 244.902 88.1451 244.713 87.729C244.508 87.2454 244.409 86.7232 244.424 86.198C244.404 85.6487 244.517 85.1027 244.754 84.6067C244.991 84.1107 245.345 83.6795 245.785 83.35C246.692 82.65 247.954 82.3001 249.569 82.3001C250.14 82.2971 250.71 82.34 251.274 82.429C251.737 82.497 252.188 82.63 252.614 82.825C252.95 82.977 253.25 83.2 253.493 83.478C253.705 83.729 253.82 84.048 253.815 84.378C253.821 84.685 253.735 84.9871 253.568 85.2451C253.413 85.4841 253.222 85.697 253 85.876C252.597 85.615 252.156 85.4198 251.692 85.298C251.113 85.1365 250.513 85.0574 249.912 85.0631C249.385 85.0263 248.857 85.1374 248.39 85.3841C248.243 85.4636 248.119 85.581 248.033 85.724C247.946 85.8671 247.899 86.0308 247.897 86.198C247.89 86.3254 247.916 86.4523 247.972 86.5667C248.029 86.6811 248.114 86.779 248.219 86.851C248.533 87.048 248.871 87.203 249.226 87.311L250.384 87.697C250.991 87.898 251.583 88.145 252.153 88.436C252.62 88.672 253.05 88.974 253.429 89.335C253.765 89.662 254.029 90.055 254.201 90.492C254.379 90.967 254.467 91.4721 254.458 91.9801C254.465 92.5458 254.344 93.1059 254.104 93.618C253.861 94.121 253.5 94.558 253.054 94.893C252.538 95.2748 251.957 95.5579 251.338 95.728C250.574 95.9392 249.784 96.0402 248.991 96.028C248.38 96.0324 247.769 95.9788 247.168 95.868C246.667 95.7791 246.18 95.6241 245.72 95.407C245.348 95.2343 245.019 94.9816 244.756 94.667C244.524 94.3875 244.399 94.0351 244.402 93.672C244.39 93.3207 244.508 92.9773 244.734 92.708C244.944 92.461 245.194 92.251 245.474 92.088C245.914 92.433 246.402 92.714 246.921 92.922C247.544 93.173 248.211 93.2971 248.883 93.2861Z" fill="#3093BB"/>
</g>
<defs>
<clipPath id="clip0_434_14120">
<rect width="255" height="115" fill="white"/>
</clipPath>
</defs>
</svg>
