<svg width="65" height="65" fill="none" xmlns="http://www.w3.org/2000/svg">
    <path d="M32.172 7.857a9.577 9.577 0 0 0-9.583 9.584v16.428a9.577 9.577 0 0 0 9.583 9.584 9.577 9.577 0 0 0 9.583-9.584V17.441a9.577 9.577 0 0 0-9.583-9.584zm0 1.37a8.181 8.181 0 0 1 8.214 8.214v16.428a8.181 8.181 0 0 1-8.214 8.215 8.181 8.181 0 0 1-8.214-8.215V17.441a8.181 8.181 0 0 1 8.214-8.215zM17.112 26.34a.712.712 0 0 0-.684.706v6.845c0 8.48 6.668 15.366 15.06 15.722v6.161h-6.161a.685.685 0 0 0 0 1.37h13.69a.684.684 0 1 0 0-1.37h-6.16v-6.16c8.391-.357 15.06-7.242 15.06-15.723v-6.845a.712.712 0 0 0-.685-.695.712.712 0 0 0-.685.695v6.845c0 7.975-6.4 14.375-14.375 14.375s-14.375-6.4-14.375-14.375v-6.845a.712.712 0 0 0-.684-.706z" fill="#9393AA" stroke="#9393AA" stroke-width="3"/>
</svg>
