<svg width="32" height="32" viewBox="0 0 32 32" fill="none" xmlns="http://www.w3.org/2000/svg">
    <path opacity=".01" fill="#000" d="M0 0h32v32H0z"/>
    <path fill-rule="evenodd" clip-rule="evenodd" d="M28.89 16.175c-3.823-3.585-8.356-5.509-12.89-5.509-4.533 0-9.066 1.924-12.889 5.509a1.436 1.436 0 0 0-.444 1.049c0 .437.178.787.444 1.05l2.667 2.622c.533.525 1.6.525 2.133 0 .8-.787 1.778-1.399 2.756-1.924.533-.262.889-.786.889-1.398v-2.71c1.689-.525 3.111-.7 4.444-.7 1.422 0 2.845.262 4.445.7v2.71c0 .612.355 1.136.889 1.398 1.066.525 1.955 1.137 2.755 1.924.267.262.711.437 1.067.437.444 0 .8-.175 1.067-.437l2.666-2.623a1.6 1.6 0 0 0 .445-1.05c0-.436-.178-.786-.445-1.048z" fill="#fff"/>
</svg>
