<svg width="18" height="18" viewBox="0 0 18 18" fill="none" xmlns="http://www.w3.org/2000/svg">
<path d="M16.0802 8.28744L9.18772 15.1799C8.34333 16.0243 7.19811 16.4987 6.00397 16.4987C4.80983 16.4987 3.6646 16.0243 2.82022 15.1799C1.97583 14.3356 1.50146 13.1903 1.50146 11.9962C1.50146 10.8021 1.97583 9.65682 2.82022 8.81244L9.71272 1.91994C10.2756 1.35702 11.0391 1.04077 11.8352 1.04077C12.6313 1.04077 13.3948 1.35702 13.9577 1.91994C14.5206 2.48286 14.8369 3.24635 14.8369 4.04244C14.8369 4.83853 14.5206 5.60202 13.9577 6.16494L7.05772 13.0574C6.77626 13.3389 6.39451 13.497 5.99647 13.497C5.59842 13.497 5.21668 13.3389 4.93522 13.0574C4.65376 12.776 4.49563 12.3942 4.49563 11.9962C4.49563 11.5981 4.65376 11.2164 4.93522 10.9349L11.3027 4.57494" stroke="#96A0B5" stroke-width="2" stroke-linecap="round" stroke-linejoin="round"/>
</svg>
