<svg width="24" height="24" viewBox="0 0 24 24" fill="none" xmlns="http://www.w3.org/2000/svg">
<path fill-rule="evenodd" clip-rule="evenodd" d="M13 1V5C13 7.20914 14.7909 9 17 9H21V19C21 21.2091 19.2091 23 17 23H7C4.79086 23 3 21.2091 3 19V5C3 2.79086 4.79086 1 7 1L13 1ZM15 1.58579V5C15 6.10457 15.8954 7 17 7H20.4142L15 1.58579ZM10 11.9541C10 11.2213 10.4033 10.5828 11 10.2483V9H13V10H13.5V12H12.1926L12.7717 12.2316C13.5135 12.5284 14 13.2469 14 14.0459C14 14.7787 13.5967 15.4172 13 15.7517V17H11V16H10.5V14H11.8074L11.2283 13.7684C10.4865 13.4716 10 12.7531 10 11.9541Z" fill="#9393aa"/>
</svg>
