<svg width="25" height="24" viewBox="0 0 25 24" fill="none" xmlns="http://www.w3.org/2000/svg">
    <path fill-rule="evenodd" clip-rule="evenodd" d="M6.5 10a2 2 0 1 0 0 4 2 2 0 0 0 0-4zm-4 2a4 4 0 1 1 8 0 4 4 0 0 1-8 0zM18.5 4a2 2 0 1 0 0 4 2 2 0 0 0 0-4zm-4 2a4 4 0 1 1 8 0 4 4 0 0 1-8 0zM18.5 16a2 2 0 1 0 0 4 2 2 0 0 0 0-4zm-4 2a4 4 0 1 1 8 0 4 4 0 0 1-8 0z" fill="#3093BB"/>
    <path fill-rule="evenodd" clip-rule="evenodd" d="m15.974 7.88-6.5 3.5-.948-1.76 6.5-3.5.948 1.76zM15.026 17.88l-6.5-3.5.948-1.76 6.5 3.5-.948 1.76z" fill="#3093BB"/>
</svg>
