
<svg width="24" height="24" viewBox="0 0 24 24" fill="none" xmlns="http://www.w3.org/2000/svg">
    <path fill-rule="evenodd" clip-rule="evenodd" d="M1 7a3 3 0 0 1 3-3h16a3 3 0 0 1 3 3v12a3 3 0 0 1-3 3H4a3 3 0 0 1-3-3V7zm3-1a1 1 0 0 0-1 1v12a1 1 0 0 0 1 1h16a1 1 0 0 0 1-1V7a1 1 0 0 0-1-1H4z" fill="#3093BB"/>
    <path fill-rule="evenodd" clip-rule="evenodd" d="M1 7a3 3 0 0 1 3-3h16a3 3 0 0 1 3 3v3a1 1 0 0 1-1 1H2a1 1 0 0 1-1-1V7zm3-1a1 1 0 0 0-1 1v2h18V7a1 1 0 0 0-1-1H4z" fill="#3093BB"/>
    <path fill-rule="evenodd" clip-rule="evenodd" d="M6 3v3.5H4V3h2zM13 3v3.5h-2V3h2zM20 3v3.5h-2V3h2z" fill="#3093BB"/>
</svg>
