<svg width="40" height="40" viewBox="0 0 40 40" fill="none" xmlns="http://www.w3.org/2000/svg">
<path d="M12 0.5H28C34.3513 0.5 39.5 5.64873 39.5 12V28C39.5 34.3513 34.3513 39.5 28 39.5H12C5.64873 39.5 0.5 34.3513 0.5 28V12C0.5 5.64873 5.64873 0.5 12 0.5Z" stroke="#E0E0E0"/>
<rect opacity="0.01" x="8" y="8" width="24" height="24" fill="black"/>
<path fill-rule="evenodd" clip-rule="evenodd" d="M20.7071 12.2929C21.0676 12.6534 21.0953 13.2206 20.7903 13.6129L20.7071 13.7071L15.415 19H27C27.5523 19 28 19.4477 28 20C28 20.5128 27.614 20.9355 27.1166 20.9933L27 21H15.415L20.7071 26.2929C21.0676 26.6534 21.0953 27.2206 20.7903 27.6129L20.7071 27.7071C20.3466 28.0676 19.7794 28.0953 19.3871 27.7903L19.2929 27.7071L12.2929 20.7071C12.2575 20.6717 12.2253 20.6343 12.1963 20.5953L12.1247 20.4841L12.0712 20.3713L12.0358 20.266L12.011 20.1485L12.004 20.0898L12 20L12.0028 19.9248L12.0202 19.7993L12.0497 19.6879L12.0937 19.5768L12.146 19.4793L12.2097 19.3871L12.2929 19.2929L19.2929 12.2929C19.6834 11.9024 20.3166 11.9024 20.7071 12.2929Z" fill="#1E1F20"/>
</svg>
