<svg width="20" height="20" viewBox="0 0 20 20" fill="none" xmlns="http://www.w3.org/2000/svg">
    <path d="M10 0c5.478 0 10 4.522 10 10 0 2.087-.609 4-1.74 5.652l1.131 3.392c.087.173 0 .347-.087.434-.174.087-.348.174-.521.087l-3.479-1.13C13.74 19.478 11.826 20 10 20 4.522 20 0 15.478 0 10S4.522 0 10 0zM4 14.087c.26.783 1.304 1.478 2.174 1.652.174 0 .348.087.609.087.695 0 1.565-.26 2.956-.783 1.74-.695 3.478-2.26 4.87-4.26l.087-.087C15.217 10 16 8.783 16 7.478c0-1.478-.783-2.26-1.043-2.608-.348-.348-.783-.522-1.305-.522h-.348c-.434 0-.695.174-.956.695l-.174.348c-.261.609-.609 1.566-.696 1.74-.174.347-.174.608 0 .869.087.174.174.348.348.522.087.087.174.174.174.26l.26.261v.087c-.26.435-.782 1.218-1.477 1.826-.957.87-1.653 1.131-2 1.305h-.087c-.087 0-.174.087-.174 0-.174-.174-.348-.522-.609-.783l-.087-.087c-.26-.348-.609-.434-.783-.434-.086 0-.26 0-.347.086-.087 0-.261.087-1.913.957l-.174.087c-.261.087-.435.174-.522.435-.348.174-.26.956-.087 1.565z" fill="#29A896"/>
</svg>
