<svg width="25" height="24" viewBox="0 0 25 24" fill="none" xmlns="http://www.w3.org/2000/svg">
    <path fill-rule="evenodd" clip-rule="evenodd" d="M2.5 4a3 3 0 0 1 3-3h8a3 3 0 0 1 3 3v3a1 1 0 1 1-2 0V4a1 1 0 0 0-1-1h-8a1 1 0 0 0-1 1v16a1 1 0 0 0 1 1h8a1 1 0 0 0 1-1v-5a1 1 0 1 1 2 0v5a3 3 0 0 1-3 3h-8a3 3 0 0 1-3-3V4z" fill="#F8446C"/>
    <path fill-rule="evenodd" clip-rule="evenodd" d="M11 20.5H8v-2h3v2zM15.5 9.988l-5.133-3.512-.527-.365c.207-.072.429-.111.66-.111h10c.227 0 .446.038.65.108l-.523.372L15.5 9.988zm6.965-2.362-.684.488-.016.011-5.7 3.9a1 1 0 0 1-1.13 0l-5.7-3.9-.005-.003-.697-.483A2.012 2.012 0 0 0 8.5 8v5.8a2 2 0 0 0 2 2h10a2 2 0 0 0 2-2V8c0-.128-.012-.253-.035-.374z" fill="#F8446C"/>
</svg>
