<svg width="40" height="40" viewBox="0 0 40 40" fill="none" xmlns="http://www.w3.org/2000/svg">
<rect width="40" height="40" rx="8" fill="#24B2B2"/>
<path fill-rule="evenodd" clip-rule="evenodd" d="M10 16C10 14.3431 11.3431 13 13 13H22.5C24.1569 13 25.5 14.3431 25.5 16V16.4612L28.5939 15.0862C28.9032 14.9487 29.2611 14.9771 29.5449 15.1615C29.8287 15.346 30 15.6615 30 16V24C30 24.3385 29.8287 24.654 29.5449 24.8385C29.2611 25.0229 28.9032 25.0513 28.5939 24.9138L25.5 23.5388V24C25.5 25.6569 24.1569 27 22.5 27H13C11.3431 27 10 25.6569 10 24V16ZM18 16H14V18H18V16Z" fill="white"/>
</svg>
