<svg width="36" height="36" viewBox="0 0 36 36" fill="none" xmlns="http://www.w3.org/2000/svg">
    <path d="M21 18a3 3 0 1 0 0-6 3 3 0 0 0 0 6z" fill="url(#pcn4wfaw2a)"/>
    <path fill-rule="evenodd" clip-rule="evenodd" d="M33 16.5a7.502 7.502 0 0 1-4.553 6.899A7.501 7.501 0 0 1 21 30H10.5A7.5 7.5 0 0 1 3 22.5v-3a7.502 7.502 0 0 1 6.126-7.374A7.502 7.502 0 0 1 16.5 6h9a7.5 7.5 0 0 1 7.5 7.5v3zM21 27a4.502 4.502 0 0 0 4.244-3H16.5A7.5 7.5 0 0 1 9 16.5v-1.244A4.502 4.502 0 0 0 6 19.5v3a4.5 4.5 0 0 0 4.5 4.5H21zm-9-10.5v-2.998A4.501 4.501 0 0 1 16.5 9h9a4.5 4.5 0 0 1 4.5 4.5v3a4.5 4.5 0 0 1-4.5 4.5h-9a4.5 4.5 0 0 1-4.5-4.5z" fill="url(#3cy1xkwseb)"/>
    <defs>
        <linearGradient id="pcn4wfaw2a" x1="18" y1="6" x2="18" y2="30" gradientUnits="userSpaceOnUse">
            <stop stop-color="#F78047"/>
            <stop offset="1" stop-color="#EB6B30"/>
        </linearGradient>
        <linearGradient id="3cy1xkwseb" x1="18" y1="6" x2="18" y2="30" gradientUnits="userSpaceOnUse">
            <stop stop-color="#F78047"/>
            <stop offset="1" stop-color="#EB6B30"/>
        </linearGradient>
    </defs>
</svg>
