<svg width="19" height="18" viewBox="0 0 19 18" fill="none" xmlns="http://www.w3.org/2000/svg">
    <path opacity=".01" fill="#000" d="M.5 0h18v18H.5z"/>
    <path fill-rule="evenodd" clip-rule="evenodd" d="m11.77 6.29-.925-.95-4.622 4.757a2.06 2.06 0 0 0 0 2.854 1.922 1.922 0 0 0 2.773 0l5.546-5.708a3.433 3.433 0 0 0 0-4.758 3.202 3.202 0 0 0-4.621 0L4.097 8.48l-.012.012c-1.78 1.833-1.78 4.803 0 6.635a4.467 4.467 0 0 0 6.446 0l.012-.013 3.975-4.09-.925-.952-3.974 4.092a3.19 3.19 0 0 1-4.61.012c-1.267-1.305-1.267-3.427 0-4.731a.305.305 0 0 1 .013-.013l5.823-5.994a1.924 1.924 0 0 1 2.773 0 2.063 2.063 0 0 1 0 2.854l-5.546 5.708a.641.641 0 0 1-.925 0 .688.688 0 0 1 0-.95L11.77 6.29z" fill="#fff"/>
</svg>
