<svg width="96" height="96" viewBox="0 0 96 96" fill="none" xmlns="http://www.w3.org/2000/svg">
    <circle cx="48" cy="48" r="48" fill="#F8FBFF"/>
    <mask id="hj2wd98zoa" style="mask-type:alpha" maskUnits="userSpaceOnUse" x="0" y="0" width="96" height="96">
        <circle cx="48" cy="48" r="48" fill="#F8FBFF"/>
    </mask>
    <path fill-rule="evenodd" clip-rule="evenodd" d="M60.937 40.411c-1.557 0-2.688 1.243-2.688 2.61 0 1.367 1.131 2.61 2.688 2.61 1.557 0 2.687-1.243 2.687-2.61 0-1.367-1.13-2.61-2.687-2.61zm-6.271 2.61c0-3.58 2.88-6.35 6.27-6.35 3.392 0 6.272 2.77 6.272 6.35 0 3.58-2.88 6.348-6.271 6.348-3.39 0-6.271-2.768-6.271-6.348zM32.27 33.245c-.495 0-.896.418-.896.934v7.556c0 4.13 3.209 7.479 7.167 7.479h1.792c3.958 0 7.166-3.348 7.166-7.479V34.18c0-.516-.4-.934-.896-.934h-.895v-3.74h.895c2.474 0 4.48 2.093 4.48 4.674v7.556c0 6.196-4.813 11.218-10.75 11.218H38.54c-5.937 0-10.75-5.022-10.75-11.218V34.18c0-2.581 2.005-4.674 4.48-4.674h.895v3.74h-.896z" fill="#3093BB"/>
    <path fill-rule="evenodd" clip-rule="evenodd" d="M62.728 47.5v13.32c0 2.582-2.005 4.675-4.479 4.675H42.124c-2.474 0-4.479-2.093-4.479-4.674v-9.738h3.583v9.738c0 .516.401.934.896.934H58.25c.495 0 .896-.418.896-.934V47.5h3.583z" fill="#3093BB"/>
</svg>
