<svg width="32" height="32" viewBox="0 0 32 32" fill="none" xmlns="http://www.w3.org/2000/svg">
    <path opacity=".01" fill="#000" d="M0 0h32v32H0z"/>
    <path fill-rule="evenodd" clip-rule="evenodd" d="m29.107 4.469-1.075-.97c-.353-.333-.998-.277-1.41.167l-5.869 5.556V7.055c0-2.444-2.054-4.388-4.637-4.388h-.117c-2.583 0-4.638 1.944-4.638 4.388v8.056c0 .833.235 1.667.705 2.333L10.01 19.39a6.567 6.567 0 0 1-1.584-4.278v-2.222c0-.778-.646-1.334-1.468-1.334s-1.467.556-1.467 1.334v2.222c0 2.389.939 4.555 2.465 6.222L3.027 26c-.411.389-.47 1-.177 1.333l.896 1.034c.352.333.998.277 1.408-.167L28.931 5.802c.47-.389.528-1 .176-1.333zm-5.42 9.975v.667c0 3.889-3.404 7.111-7.63 7.111h-.528l-2.29 2.278c.47.11 1.057.222 1.644.333v1.722h-2.641c-.822 0-1.468.611-1.468 1.39 0 .777.646 1.388 1.468 1.388h7.69c.821 0 1.467-.61 1.467-1.389 0-.777-.705-1.389-1.526-1.389H17.23v-1.777c5.283-.667 9.392-4.778 9.392-9.667v-2.222c0-.334-.176-.667-.353-.89l-2.582 2.445z" fill="#9393AA"/>
</svg>
