<svg width="59" height="33" viewBox="0 0 59 33" fill="none" xmlns="http://www.w3.org/2000/svg">
    <path d="M27.326 0c.139.053.277.108.417.157.47.167.963.285 1.41.505 1.862.917 3.078 2.439 3.664 4.5.113.467.186.944.218 1.424.023.217.088.296.295.29.363-.012.726.002 1.09-.004.164-.002.237.063.23.24-.008.186-.001.372-.001.559l-.001 19.646c-.004.084-.004.169.001.253.024.223-.063.292-.276.29a438.646 438.646 0 0 0-4.673 0c-.205.001-.276-.079-.273-.275.001-.101-.005-.203-.005-.305V19.86c0-.487.025-.43-.398-.43-1.824-.002-3.648.004-5.473-.006-.234-.002-.296.068-.295.312.008 2.584.005 5.168.005 7.752 0 .368 0 .368-.358.368-1.517 0-3.035-.004-4.552.005-.238.002-.32-.06-.32-.325.006-6.76.007-13.521.004-20.282 0-.373 0-.376.364-.38.307-.003.614-.006.92.002.178.005.247-.051.263-.257.193-2.464 1.302-4.343 3.308-5.639a6.663 6.663 0 0 1 2.06-.846.703.703 0 0 0 .196-.133h2.18zM23.26 10.682h.001v3.43c0 .372 0 .372.355.372l5.496-.001c.331 0 .33.002.33-.355l.001-6.76c.001-.541-.072-.491.461-.494.703-.003 1.405-.009 2.107.003.219.003.28-.082.27-.299a5.713 5.713 0 0 0-.46-1.96c-.77-1.798-2.045-3.015-3.852-3.574a5.704 5.704 0 0 0-2.613-.168 5.819 5.819 0 0 0-2.43 1.021 6.163 6.163 0 0 0-1.782 2.013 6.492 6.492 0 0 0-.79 2.619c-.028.342-.013.343.305.344h2.252c.348.001.349.002.35.379v3.43zm-3.657-2.458a.502.502 0 0 0 .113.348c.08.096.191.156.312.167a.451.451 0 0 0 .344-.125.496.496 0 0 0 .157-.344.52.52 0 0 0-.128-.332.475.475 0 0 0-.305-.16.448.448 0 0 0-.334.117.494.494 0 0 0-.159.329zm13.44.045a.484.484 0 0 0-.121-.348.442.442 0 0 0-.326-.143.44.44 0 0 0-.322.144.482.482 0 0 0-.131.342.5.5 0 0 0 .138.34.458.458 0 0 0 .325.136.413.413 0 0 0 .315-.136.456.456 0 0 0 .121-.335zM46.617 13.598c-.485.043-.93.052-1.364.127-1.864.323-3.224 1.82-3.504 3.778-.346 2.424 1.057 4.59 3.252 5.149a4.134 4.134 0 0 0 3.183-.444 4.49 4.49 0 0 0 2.01-2.63 6.034 6.034 0 0 0 .225-1.546c.02-2.287-.006-4.574.001-6.862.003-.98-.004-1.967.085-2.941.112-1.235.534-2.382 1.151-3.443 1.01-1.732 2.386-3.023 4.184-3.796a8.15 8.15 0 0 1 2.939-.662c.178-.007.221.058.22.23A681.118 681.118 0 0 0 59 4.7c.001.165-.055.218-.206.234-1.78.199-3.029 1.17-3.698 2.904a4.47 4.47 0 0 0-.292 1.53c-.027 2.855-.019 5.71-.01 8.565.005 1.865-.403 3.608-1.372 5.182-1.26 2.048-3.009 3.422-5.27 3.996-2.282.578-4.473.263-6.512-.985a8.921 8.921 0 0 1-2.776-2.688 9.43 9.43 0 0 1-1.436-3.666 9.615 9.615 0 0 1 .17-3.96 9.339 9.339 0 0 1 1.747-3.514c.871-1.104 1.973-1.899 3.189-2.535 1.135-.594 2.34-.78 3.592-.711h.025c.446.02.445.02.447.487.006 1.254.012 2.508.02 3.762v.297zM9.973 19.77v7.7c0 .382 0 .385-.373.385-1.453.002-2.906.002-4.36.001-.337 0-.339 0-.339-.349V12.283c0-.601.003-.601-.578-.601-1.34 0-2.68-.006-4.02.005-.228.001-.305-.058-.303-.31.011-1.406.012-2.812 0-4.218 0-.223.06-.29.273-.29 4.754.006 9.509.006 14.264 0 .253-.001.31.095.31.341a318.18 318.18 0 0 0 0 4.168c.002.256-.088.31-.311.308-1.405-.009-2.81-.005-4.214-.004-.348 0-.35 0-.35.361v7.726zM51.435 30.285c0 .255-.047.508-.14.744-.092.236-.228.45-.4.63a1.85 1.85 0 0 1-.6.423 1.775 1.775 0 0 1-1.418.001 1.848 1.848 0 0 1-.6-.42 1.953 1.953 0 0 1-.403-.63 1.992 1.992 0 0 1 .403-2.111 1.807 1.807 0 0 1 1.305-.567c.49-.001.959.202 1.306.563.347.362.544.853.547 1.367zM44.005 30.292c.05 1.009-.787 1.932-1.833 1.934-.242 0-.482-.05-.706-.149a1.842 1.842 0 0 1-.597-.42 1.944 1.944 0 0 1-.398-.63 2.019 2.019 0 0 1 .003-1.481c.094-.235.23-.448.402-.627a1.84 1.84 0 0 1 .599-.418 1.77 1.77 0 0 1 .706-.146c.242-.003.483.045.707.142a1.8 1.8 0 0 1 .597.42c.17.18.304.396.393.632.09.236.133.489.127.743z" fill="#fff"/>
    <path d="M19.603 8.224a.493.493 0 0 1 .16-.33.448.448 0 0 1 .333-.116c.117.013.225.07.305.16a.52.52 0 0 1 .128.332.517.517 0 0 1-.157.344.467.467 0 0 1-.344.125.457.457 0 0 1-.312-.167.502.502 0 0 1-.113-.348zM33.041 8.27a.474.474 0 0 1-.12.334.429.429 0 0 1-.492.102.458.458 0 0 1-.25-.258.502.502 0 0 1 .093-.525.458.458 0 0 1 .323-.145.422.422 0 0 1 .326.143.466.466 0 0 1 .12.348z" fill="#fff"/>
</svg>
