<svg width="32" height="32" viewBox="0 0 32 32" fill="none" xmlns="http://www.w3.org/2000/svg">
    <path fill-rule="evenodd" clip-rule="evenodd" d="M10.4 9.6a2.4 2.4 0 0 1 2.4-2.4h6.4a2.4 2.4 0 0 1 2.4 2.4v12.8a2.4 2.4 0 0 1-2.4 2.4h-6.4a2.4 2.4 0 0 1-2.4-2.4V9.6zm2.4-.8a.8.8 0 0 0-.8.8v12.8a.8.8 0 0 0 .8.8h6.4a.8.8 0 0 0 .8-.8V9.6a.8.8 0 0 0-.8-.8h-6.4z" fill="#3093BB"/>
    <path fill-rule="evenodd" clip-rule="evenodd" d="M17.2 22.8h-2.4v-1.6h2.4v1.6zM12.8 8a.8.8 0 0 1 .8-.8h4.8a.8.8 0 0 1 .8.8v.4a2.4 2.4 0 0 1-2.4 2.4h-1.6a2.4 2.4 0 0 1-2.4-2.4V8zm1.707.8a.8.8 0 0 0 .693.4h1.6a.8.8 0 0 0 .693-.4h-2.986z" fill="#3093BB"/>
</svg>
