<svg width="32" height="32" viewBox="0 0 32 32" fill="none" xmlns="http://www.w3.org/2000/svg">
    <path fill-rule="evenodd" clip-rule="evenodd" d="M15.2 21.2v-2h1.6v2h-1.6z" fill="#3093BB"/>
    <path fill-rule="evenodd" clip-rule="evenodd" d="M16 17.6a.4.4 0 1 0 0 .8.4.4 0 0 0 0-.8zm-2 .4a2 2 0 1 1 4 0 2 2 0 0 1-4 0z" fill="#3093BB"/>
    <path fill-rule="evenodd" clip-rule="evenodd" d="M8.8 16.4a2.4 2.4 0 0 1 2.4-2.4h9.6a2.4 2.4 0 0 1 2.4 2.4v5.2a2.4 2.4 0 0 1-2.4 2.4h-9.6a2.4 2.4 0 0 1-2.4-2.4v-5.2zm2.4-.8a.8.8 0 0 0-.8.8v5.2a.8.8 0 0 0 .8.8h9.6a.8.8 0 0 0 .8-.8v-5.2a.8.8 0 0 0-.8-.8h-9.6z" fill="#3093BB"/>
    <path fill-rule="evenodd" clip-rule="evenodd" d="M11.2 11.2a4 4 0 0 1 4-4h1.6a4 4 0 0 1 4 4v3.6a.8.8 0 0 1-.8.8h-8a.8.8 0 0 1-.8-.8v-3.6zm4-2.4a2.4 2.4 0 0 0-2.4 2.4V14h6.4v-2.8a2.4 2.4 0 0 0-2.4-2.4h-1.6z" fill="#3093BB"/>
</svg>
