<svg width="32" height="32" viewBox="0 0 32 32" fill="none" xmlns="http://www.w3.org/2000/svg">
    <path opacity=".01" fill="#000" d="M0 0h32v32H0z"/>
    <path fill-rule="evenodd" clip-rule="evenodd" d="M15.994 2.667a13.242 13.242 0 0 0-9.427 3.906C1.79 11.35 1.362 18.96 5.502 24.223c-.446.802-.999 1.412-1.651 1.733a1.733 1.733 0 0 0 .5 3.268 7.11 7.11 0 0 0 1.094.082c1.512 0 3.063-.417 4.542-1.405a13.332 13.332 0 0 0 15.44-2.475A13.24 13.24 0 0 0 29.334 16c0-3.558-1.39-6.904-3.913-9.427a13.242 13.242 0 0 0-9.427-3.907zM9.334 17.6 16.74 8l-.74 6.4h6.666L15.26 24l.74-6.4H9.334z" fill="#fff"/>
</svg>
