<?xml version="1.0" encoding="utf-8"?>
<!-- Generator: Adobe Illustrator 23.0.3, SVG Export Plug-In . SVG Version: 6.00 Build 0)  -->
<svg version="1.1" id="Layer_1" xmlns="http://www.w3.org/2000/svg" xmlns:xlink="http://www.w3.org/1999/xlink" x="0px" y="0px"
	 viewBox="0 0 32 32" style="enable-background:new 0 0 32 32;" xml:space="preserve">
<style type="text/css">
	.st0{clip-path:url(#SVGID_2_);}
	.st1{clip-path:url(#SVGID_4_);}
</style>
<g>
	<g>
		<path d="M15,25.9829102c-0.1376953,0-0.2758789-0.0283203-0.4057617-0.0859375L4.2177734,21.2895508H1
			c-0.5522461,0-1-0.4477539-1-1v-8.6132813c0-0.5522461,0.4477539-1,1-1h3.2177734l10.3764648-4.6074219
			c0.3100586-0.1376953,0.6669922-0.1083984,0.9506836,0.0756836C15.8286133,6.3291016,16,6.6445313,16,6.9829102v18
			c0,0.3383789-0.1713867,0.6538086-0.4550781,0.8383789C15.3803711,25.9282227,15.1904297,25.9829102,15,25.9829102z M2,19.2895508
			h2.4296875c0.1396484,0,0.277832,0.0292969,0.4057617,0.0859375L14,23.4448242V8.5209961L4.8354492,12.590332
			c-0.1279297,0.0566406-0.2661133,0.0859375-0.4057617,0.0859375H2V19.2895508z"/>
	</g>
	<g>
		<path d="M23.6977539,28.0004883c-0.3896484,0-0.7602539-0.2294922-0.9213867-0.6108398
			c-0.215332-0.5087891,0.0229492-1.0957031,0.53125-1.3105469C27.3730469,24.3598633,30,20.3964844,30,15.9829102
			c0-4.3789063-2.5986328-8.3295898-6.6196289-10.0649414c-0.5073242-0.21875-0.7412109-0.8071289-0.5219727-1.3139648
			c0.2177734-0.5073242,0.8066406-0.7436523,1.3139648-0.5219727C28.9277344,6.1333008,32,10.8046875,32,15.9829102
			c0,5.2192383-3.105957,9.9052734-7.9130859,11.9379883C23.9594727,27.9746094,23.8276367,28.0004883,23.6977539,28.0004883z"/>
	</g>
	<g>
		<path d="M22.7514648,24.0512695c-0.3579102,0-0.7041016-0.1923828-0.8837891-0.5307617
			c-0.2592773-0.4873047-0.0742188-1.0927734,0.4135742-1.3520508C24.5751953,20.9487305,26,18.5786133,26,15.9829102
			c0-2.5952148-1.4248047-4.965332-3.71875-6.1850586c-0.487793-0.2592773-0.6728516-0.8647461-0.4135742-1.3520508
			c0.2587891-0.487793,0.8652344-0.6738281,1.3520508-0.4135742C26.168457,9.5996094,28,12.6464844,28,15.9829102
			c0,3.3369141-1.831543,6.3837891-4.7802734,7.9511719C23.0703125,24.0136719,22.909668,24.0512695,22.7514648,24.0512695z"/>
	</g>
	<g>
		<path d="M19,20.7329102c-0.5522461,0-1-0.4477539-1-1s0.4477539-1,1-1c1.5166016,0,2.75-1.2333984,2.75-2.75
			s-1.2333984-2.75-2.75-2.75c-0.5522461,0-1-0.4477539-1-1s0.4477539-1,1-1c2.6191406,0,4.75,2.1308594,4.75,4.75
			S21.6191406,20.7329102,19,20.7329102z"/>
	</g>
</g>
</svg>
