<svg width="50" height="47" viewBox="0 0 50 47" fill="none" xmlns="http://www.w3.org/2000/svg">
<path d="M8.63114 38H28.2366C32.6142 38 36.1896 34.7845 36.8064 30.6588L45.561 36.1798C46.0543 36.4832 46.5476 36.6652 47.1023 36.6652C47.5956 36.6652 48.0269 36.5438 48.4587 36.3013C49.3833 35.8159 50 34.7845 50 33.7531V13.2469C50 12.155 49.3833 11.1842 48.4587 10.6987C47.5341 10.2133 46.4242 10.2133 45.561 10.8202L36.8064 16.3412C36.2516 12.2159 32.6142 9 28.2366 9H8.63114C3.88378 9 3.62769e-08 12.8223 3.62769e-08 17.4935V29.5667C-0.00042999 34.1775 3.82235 37.9998 8.63114 37.9998V38ZM46.8557 12.8222C47.0406 12.7007 47.1641 12.7616 47.2256 12.8222C47.2871 12.8827 47.472 13.0041 47.472 13.247V33.7533C47.472 33.9958 47.2871 34.1173 47.2256 34.1782C47.1021 34.2388 46.9791 34.2388 46.8557 34.1782L36.8677 27.8074V19.192L46.8557 12.8222ZM2.46588 17.4934C2.46588 14.1565 5.24014 11.4264 8.63114 11.4264H28.2366C31.6276 11.4264 34.4019 14.1565 34.4019 17.4934V29.5666C34.4019 32.9035 31.6276 35.6336 28.2366 35.6336H8.63114C5.24014 35.6336 2.46588 32.9035 2.46588 29.5666V17.4934Z" fill="white"/>
</svg>
