<svg width="1500" height="1420" viewBox="0 0 1500 1420" fill="none" xmlns="http://www.w3.org/2000/svg">
<path d="M1371.3 1420H128C57.3 1420 0 1362.7 0 1292V0H1499.3V1292C1499.3 1362.7 1442 1420 1371.3 1420Z" fill="#7AB8D8"/>
<path opacity="0.05" d="M696.8 176.7C696.8 384 862.9 552.1 1067.7 552.1C1272.6 552.1 1438.6 384 1438.6 176.7C1438.6 112.8 1422.8 52.6 1395 0H740.4C712.6 52.7 696.8 112.8 696.8 176.7Z" fill="white"/>
<path opacity="0.05" d="M1499.3 733.6V9.2C1477.6 5.3 1455.2 3.2 1432.3 3.2C1227.5 3.2 1061.6 168.1 1061.6 371.4C1061.6 574.8 1227.6 739.6 1432.3 739.6C1455.2 739.6 1477.6 737.6 1499.3 733.6Z" fill="white"/>
<path opacity="0.05" d="M235 611.7C191.2 567.9 133 543.8 71.1 543.8C46.6 543.8 22.7 547.6 0 554.9V558.2C22.4 550.9 46.3 546.9 71.1 546.9C197.3 546.9 300 649.6 300 775.8C300 902 197.3 1004.7 71.1 1004.7C46.3 1004.7 22.4 1000.7 0 993.4V996.7C22.7 1004 46.6 1007.8 71.1 1007.8C133 1007.8 191.3 983.7 235 939.9C278.8 896.1 302.9 837.9 302.9 776C303 713.7 278.8 655.5 235 611.7Z" fill="white"/>
<path opacity="0.05" d="M271.5 575.2C218 521.7 146.8 492.2 71.1 492.2C46.8 492.2 22.9 495.3 0 501.2V504.4C22.7 498.4 46.5 495.3 71.1 495.3C225.7 495.3 351.6 621.1 351.6 775.8C351.6 930.4 225.8 1056.3 71.1 1056.3C46.5 1056.3 22.7 1053.1 0 1047.2V1050.4C22.9 1056.3 46.8 1059.4 71.1 1059.4C146.8 1059.4 218 1029.9 271.5 976.4C325 922.9 354.5 851.7 354.5 776C354.6 699.9 325.1 628.8 271.5 575.2Z" fill="white"/>
</svg>
